<svg xmlns="http://www.w3.org/2000/svg" xmlns:xlink="http://www.w3.org/1999/xlink" width="39" height="754" viewBox="0 0 39 754">
  <defs>
    <clipPath id="clip-path">
      <rect width="39" height="754" fill="none"/>
    </clipPath>
  </defs>
  <g id="Repeat_Grid_1" data-name="Repeat Grid 1" clip-path="url(#clip-path)">
    <g transform="translate(-2 -2)">
      <circle id="Ellipse_1" data-name="Ellipse 1" cx="2.5" cy="2.5" r="2.5" transform="translate(2 2)" fill="#f8f8f8"/>
    </g>
    <g transform="translate(9 -2)">
      <circle id="Ellipse_1-2" data-name="Ellipse 1" cx="2.5" cy="2.5" r="2.5" transform="translate(2 2)" fill="#f8f8f8"/>
    </g>
    <g transform="translate(20 -2)">
      <circle id="Ellipse_1-3" data-name="Ellipse 1" cx="2.5" cy="2.5" r="2.5" transform="translate(2 2)" fill="#f8f8f8"/>
    </g>
    <g transform="translate(31 -2)">
      <circle id="Ellipse_1-4" data-name="Ellipse 1" cx="2.5" cy="2.5" r="2.5" transform="translate(2 2)" fill="#f8f8f8"/>
    </g>
    <g transform="translate(-2 9)">
      <circle id="Ellipse_1-5" data-name="Ellipse 1" cx="2.5" cy="2.5" r="2.5" transform="translate(2 2)" fill="#f8f8f8"/>
    </g>
    <g transform="translate(9 9)">
      <circle id="Ellipse_1-6" data-name="Ellipse 1" cx="2.5" cy="2.5" r="2.5" transform="translate(2 2)" fill="#f8f8f8"/>
    </g>
    <g transform="translate(20 9)">
      <circle id="Ellipse_1-7" data-name="Ellipse 1" cx="2.5" cy="2.5" r="2.5" transform="translate(2 2)" fill="#f8f8f8"/>
    </g>
    <g transform="translate(31 9)">
      <circle id="Ellipse_1-8" data-name="Ellipse 1" cx="2.5" cy="2.5" r="2.5" transform="translate(2 2)" fill="#f8f8f8"/>
    </g>
    <g transform="translate(-2 20)">
      <circle id="Ellipse_1-9" data-name="Ellipse 1" cx="2.5" cy="2.5" r="2.5" transform="translate(2 2)" fill="#f8f8f8"/>
    </g>
    <g transform="translate(9 20)">
      <circle id="Ellipse_1-10" data-name="Ellipse 1" cx="2.5" cy="2.5" r="2.5" transform="translate(2 2)" fill="#f8f8f8"/>
    </g>
    <g transform="translate(20 20)">
      <circle id="Ellipse_1-11" data-name="Ellipse 1" cx="2.5" cy="2.5" r="2.5" transform="translate(2 2)" fill="#f8f8f8"/>
    </g>
    <g transform="translate(31 20)">
      <circle id="Ellipse_1-12" data-name="Ellipse 1" cx="2.5" cy="2.5" r="2.5" transform="translate(2 2)" fill="#f8f8f8"/>
    </g>
    <g transform="translate(-2 31)">
      <circle id="Ellipse_1-13" data-name="Ellipse 1" cx="2.5" cy="2.5" r="2.5" transform="translate(2 2)" fill="#f8f8f8"/>
    </g>
    <g transform="translate(9 31)">
      <circle id="Ellipse_1-14" data-name="Ellipse 1" cx="2.5" cy="2.5" r="2.5" transform="translate(2 2)" fill="#f8f8f8"/>
    </g>
    <g transform="translate(20 31)">
      <circle id="Ellipse_1-15" data-name="Ellipse 1" cx="2.5" cy="2.5" r="2.5" transform="translate(2 2)" fill="#f8f8f8"/>
    </g>
    <g transform="translate(31 31)">
      <circle id="Ellipse_1-16" data-name="Ellipse 1" cx="2.5" cy="2.5" r="2.5" transform="translate(2 2)" fill="#f8f8f8"/>
    </g>
    <g transform="translate(-2 42)">
      <circle id="Ellipse_1-17" data-name="Ellipse 1" cx="2.5" cy="2.5" r="2.5" transform="translate(2 2)" fill="#f8f8f8"/>
    </g>
    <g transform="translate(9 42)">
      <circle id="Ellipse_1-18" data-name="Ellipse 1" cx="2.5" cy="2.5" r="2.5" transform="translate(2 2)" fill="#f8f8f8"/>
    </g>
    <g transform="translate(20 42)">
      <circle id="Ellipse_1-19" data-name="Ellipse 1" cx="2.5" cy="2.5" r="2.5" transform="translate(2 2)" fill="#f8f8f8"/>
    </g>
    <g transform="translate(31 42)">
      <circle id="Ellipse_1-20" data-name="Ellipse 1" cx="2.5" cy="2.5" r="2.5" transform="translate(2 2)" fill="#f8f8f8"/>
    </g>
    <g transform="translate(-2 53)">
      <circle id="Ellipse_1-21" data-name="Ellipse 1" cx="2.5" cy="2.5" r="2.5" transform="translate(2 2)" fill="#f8f8f8"/>
    </g>
    <g transform="translate(9 53)">
      <circle id="Ellipse_1-22" data-name="Ellipse 1" cx="2.5" cy="2.5" r="2.5" transform="translate(2 2)" fill="#f8f8f8"/>
    </g>
    <g transform="translate(20 53)">
      <circle id="Ellipse_1-23" data-name="Ellipse 1" cx="2.5" cy="2.5" r="2.5" transform="translate(2 2)" fill="#f8f8f8"/>
    </g>
    <g transform="translate(31 53)">
      <circle id="Ellipse_1-24" data-name="Ellipse 1" cx="2.5" cy="2.5" r="2.5" transform="translate(2 2)" fill="#f8f8f8"/>
    </g>
    <g transform="translate(-2 64)">
      <circle id="Ellipse_1-25" data-name="Ellipse 1" cx="2.5" cy="2.5" r="2.5" transform="translate(2 2)" fill="#f8f8f8"/>
    </g>
    <g transform="translate(9 64)">
      <circle id="Ellipse_1-26" data-name="Ellipse 1" cx="2.5" cy="2.5" r="2.5" transform="translate(2 2)" fill="#f8f8f8"/>
    </g>
    <g transform="translate(20 64)">
      <circle id="Ellipse_1-27" data-name="Ellipse 1" cx="2.5" cy="2.5" r="2.5" transform="translate(2 2)" fill="#f8f8f8"/>
    </g>
    <g transform="translate(31 64)">
      <circle id="Ellipse_1-28" data-name="Ellipse 1" cx="2.5" cy="2.5" r="2.5" transform="translate(2 2)" fill="#f8f8f8"/>
    </g>
    <g transform="translate(-2 75)">
      <circle id="Ellipse_1-29" data-name="Ellipse 1" cx="2.5" cy="2.5" r="2.5" transform="translate(2 2)" fill="#f8f8f8"/>
    </g>
    <g transform="translate(9 75)">
      <circle id="Ellipse_1-30" data-name="Ellipse 1" cx="2.5" cy="2.5" r="2.5" transform="translate(2 2)" fill="#f8f8f8"/>
    </g>
    <g transform="translate(20 75)">
      <circle id="Ellipse_1-31" data-name="Ellipse 1" cx="2.5" cy="2.5" r="2.5" transform="translate(2 2)" fill="#f8f8f8"/>
    </g>
    <g transform="translate(31 75)">
      <circle id="Ellipse_1-32" data-name="Ellipse 1" cx="2.5" cy="2.5" r="2.5" transform="translate(2 2)" fill="#f8f8f8"/>
    </g>
    <g transform="translate(-2 86)">
      <circle id="Ellipse_1-33" data-name="Ellipse 1" cx="2.5" cy="2.5" r="2.5" transform="translate(2 2)" fill="#f8f8f8"/>
    </g>
    <g transform="translate(9 86)">
      <circle id="Ellipse_1-34" data-name="Ellipse 1" cx="2.5" cy="2.5" r="2.5" transform="translate(2 2)" fill="#f8f8f8"/>
    </g>
    <g transform="translate(20 86)">
      <circle id="Ellipse_1-35" data-name="Ellipse 1" cx="2.5" cy="2.5" r="2.5" transform="translate(2 2)" fill="#f8f8f8"/>
    </g>
    <g transform="translate(31 86)">
      <circle id="Ellipse_1-36" data-name="Ellipse 1" cx="2.5" cy="2.5" r="2.5" transform="translate(2 2)" fill="#f8f8f8"/>
    </g>
    <g transform="translate(-2 97)">
      <circle id="Ellipse_1-37" data-name="Ellipse 1" cx="2.5" cy="2.5" r="2.5" transform="translate(2 2)" fill="#f8f8f8"/>
    </g>
    <g transform="translate(9 97)">
      <circle id="Ellipse_1-38" data-name="Ellipse 1" cx="2.5" cy="2.5" r="2.5" transform="translate(2 2)" fill="#f8f8f8"/>
    </g>
    <g transform="translate(20 97)">
      <circle id="Ellipse_1-39" data-name="Ellipse 1" cx="2.5" cy="2.5" r="2.5" transform="translate(2 2)" fill="#f8f8f8"/>
    </g>
    <g transform="translate(31 97)">
      <circle id="Ellipse_1-40" data-name="Ellipse 1" cx="2.5" cy="2.5" r="2.5" transform="translate(2 2)" fill="#f8f8f8"/>
    </g>
    <g transform="translate(-2 108)">
      <circle id="Ellipse_1-41" data-name="Ellipse 1" cx="2.5" cy="2.5" r="2.5" transform="translate(2 2)" fill="#f8f8f8"/>
    </g>
    <g transform="translate(9 108)">
      <circle id="Ellipse_1-42" data-name="Ellipse 1" cx="2.5" cy="2.5" r="2.5" transform="translate(2 2)" fill="#f8f8f8"/>
    </g>
    <g transform="translate(20 108)">
      <circle id="Ellipse_1-43" data-name="Ellipse 1" cx="2.5" cy="2.5" r="2.5" transform="translate(2 2)" fill="#f8f8f8"/>
    </g>
    <g transform="translate(31 108)">
      <circle id="Ellipse_1-44" data-name="Ellipse 1" cx="2.5" cy="2.5" r="2.5" transform="translate(2 2)" fill="#f8f8f8"/>
    </g>
    <g transform="translate(-2 119)">
      <circle id="Ellipse_1-45" data-name="Ellipse 1" cx="2.5" cy="2.5" r="2.5" transform="translate(2 2)" fill="#f8f8f8"/>
    </g>
    <g transform="translate(9 119)">
      <circle id="Ellipse_1-46" data-name="Ellipse 1" cx="2.5" cy="2.5" r="2.5" transform="translate(2 2)" fill="#f8f8f8"/>
    </g>
    <g transform="translate(20 119)">
      <circle id="Ellipse_1-47" data-name="Ellipse 1" cx="2.5" cy="2.5" r="2.5" transform="translate(2 2)" fill="#f8f8f8"/>
    </g>
    <g transform="translate(31 119)">
      <circle id="Ellipse_1-48" data-name="Ellipse 1" cx="2.5" cy="2.5" r="2.5" transform="translate(2 2)" fill="#f8f8f8"/>
    </g>
    <g transform="translate(-2 130)">
      <circle id="Ellipse_1-49" data-name="Ellipse 1" cx="2.5" cy="2.5" r="2.5" transform="translate(2 2)" fill="#f8f8f8"/>
    </g>
    <g transform="translate(9 130)">
      <circle id="Ellipse_1-50" data-name="Ellipse 1" cx="2.5" cy="2.5" r="2.5" transform="translate(2 2)" fill="#f8f8f8"/>
    </g>
    <g transform="translate(20 130)">
      <circle id="Ellipse_1-51" data-name="Ellipse 1" cx="2.5" cy="2.5" r="2.5" transform="translate(2 2)" fill="#f8f8f8"/>
    </g>
    <g transform="translate(31 130)">
      <circle id="Ellipse_1-52" data-name="Ellipse 1" cx="2.5" cy="2.5" r="2.5" transform="translate(2 2)" fill="#f8f8f8"/>
    </g>
    <g transform="translate(-2 141)">
      <circle id="Ellipse_1-53" data-name="Ellipse 1" cx="2.5" cy="2.5" r="2.5" transform="translate(2 2)" fill="#f8f8f8"/>
    </g>
    <g transform="translate(9 141)">
      <circle id="Ellipse_1-54" data-name="Ellipse 1" cx="2.5" cy="2.5" r="2.5" transform="translate(2 2)" fill="#f8f8f8"/>
    </g>
    <g transform="translate(20 141)">
      <circle id="Ellipse_1-55" data-name="Ellipse 1" cx="2.5" cy="2.5" r="2.5" transform="translate(2 2)" fill="#f8f8f8"/>
    </g>
    <g transform="translate(31 141)">
      <circle id="Ellipse_1-56" data-name="Ellipse 1" cx="2.5" cy="2.5" r="2.5" transform="translate(2 2)" fill="#f8f8f8"/>
    </g>
    <g transform="translate(-2 152)">
      <circle id="Ellipse_1-57" data-name="Ellipse 1" cx="2.5" cy="2.5" r="2.5" transform="translate(2 2)" fill="#f8f8f8"/>
    </g>
    <g transform="translate(9 152)">
      <circle id="Ellipse_1-58" data-name="Ellipse 1" cx="2.5" cy="2.5" r="2.5" transform="translate(2 2)" fill="#f8f8f8"/>
    </g>
    <g transform="translate(20 152)">
      <circle id="Ellipse_1-59" data-name="Ellipse 1" cx="2.5" cy="2.5" r="2.5" transform="translate(2 2)" fill="#f8f8f8"/>
    </g>
    <g transform="translate(31 152)">
      <circle id="Ellipse_1-60" data-name="Ellipse 1" cx="2.5" cy="2.5" r="2.5" transform="translate(2 2)" fill="#f8f8f8"/>
    </g>
    <g transform="translate(-2 163)">
      <circle id="Ellipse_1-61" data-name="Ellipse 1" cx="2.5" cy="2.5" r="2.5" transform="translate(2 2)" fill="#f8f8f8"/>
    </g>
    <g transform="translate(9 163)">
      <circle id="Ellipse_1-62" data-name="Ellipse 1" cx="2.5" cy="2.5" r="2.5" transform="translate(2 2)" fill="#f8f8f8"/>
    </g>
    <g transform="translate(20 163)">
      <circle id="Ellipse_1-63" data-name="Ellipse 1" cx="2.5" cy="2.5" r="2.5" transform="translate(2 2)" fill="#f8f8f8"/>
    </g>
    <g transform="translate(31 163)">
      <circle id="Ellipse_1-64" data-name="Ellipse 1" cx="2.5" cy="2.5" r="2.5" transform="translate(2 2)" fill="#f8f8f8"/>
    </g>
    <g transform="translate(-2 174)">
      <circle id="Ellipse_1-65" data-name="Ellipse 1" cx="2.5" cy="2.5" r="2.5" transform="translate(2 2)" fill="#f8f8f8"/>
    </g>
    <g transform="translate(9 174)">
      <circle id="Ellipse_1-66" data-name="Ellipse 1" cx="2.5" cy="2.5" r="2.5" transform="translate(2 2)" fill="#f8f8f8"/>
    </g>
    <g transform="translate(20 174)">
      <circle id="Ellipse_1-67" data-name="Ellipse 1" cx="2.5" cy="2.5" r="2.5" transform="translate(2 2)" fill="#f8f8f8"/>
    </g>
    <g transform="translate(31 174)">
      <circle id="Ellipse_1-68" data-name="Ellipse 1" cx="2.5" cy="2.5" r="2.5" transform="translate(2 2)" fill="#f8f8f8"/>
    </g>
    <g transform="translate(-2 185)">
      <circle id="Ellipse_1-69" data-name="Ellipse 1" cx="2.5" cy="2.5" r="2.5" transform="translate(2 2)" fill="#f8f8f8"/>
    </g>
    <g transform="translate(9 185)">
      <circle id="Ellipse_1-70" data-name="Ellipse 1" cx="2.5" cy="2.5" r="2.5" transform="translate(2 2)" fill="#f8f8f8"/>
    </g>
    <g transform="translate(20 185)">
      <circle id="Ellipse_1-71" data-name="Ellipse 1" cx="2.5" cy="2.5" r="2.5" transform="translate(2 2)" fill="#f8f8f8"/>
    </g>
    <g transform="translate(31 185)">
      <circle id="Ellipse_1-72" data-name="Ellipse 1" cx="2.5" cy="2.5" r="2.5" transform="translate(2 2)" fill="#f8f8f8"/>
    </g>
    <g transform="translate(-2 196)">
      <circle id="Ellipse_1-73" data-name="Ellipse 1" cx="2.5" cy="2.5" r="2.5" transform="translate(2 2)" fill="#f8f8f8"/>
    </g>
    <g transform="translate(9 196)">
      <circle id="Ellipse_1-74" data-name="Ellipse 1" cx="2.5" cy="2.5" r="2.5" transform="translate(2 2)" fill="#f8f8f8"/>
    </g>
    <g transform="translate(20 196)">
      <circle id="Ellipse_1-75" data-name="Ellipse 1" cx="2.5" cy="2.5" r="2.5" transform="translate(2 2)" fill="#f8f8f8"/>
    </g>
    <g transform="translate(31 196)">
      <circle id="Ellipse_1-76" data-name="Ellipse 1" cx="2.5" cy="2.5" r="2.5" transform="translate(2 2)" fill="#f8f8f8"/>
    </g>
    <g transform="translate(-2 207)">
      <circle id="Ellipse_1-77" data-name="Ellipse 1" cx="2.5" cy="2.5" r="2.5" transform="translate(2 2)" fill="#f8f8f8"/>
    </g>
    <g transform="translate(9 207)">
      <circle id="Ellipse_1-78" data-name="Ellipse 1" cx="2.5" cy="2.5" r="2.5" transform="translate(2 2)" fill="#f8f8f8"/>
    </g>
    <g transform="translate(20 207)">
      <circle id="Ellipse_1-79" data-name="Ellipse 1" cx="2.5" cy="2.5" r="2.5" transform="translate(2 2)" fill="#f8f8f8"/>
    </g>
    <g transform="translate(31 207)">
      <circle id="Ellipse_1-80" data-name="Ellipse 1" cx="2.5" cy="2.5" r="2.5" transform="translate(2 2)" fill="#f8f8f8"/>
    </g>
    <g transform="translate(-2 218)">
      <circle id="Ellipse_1-81" data-name="Ellipse 1" cx="2.5" cy="2.5" r="2.5" transform="translate(2 2)" fill="#f8f8f8"/>
    </g>
    <g transform="translate(9 218)">
      <circle id="Ellipse_1-82" data-name="Ellipse 1" cx="2.5" cy="2.5" r="2.5" transform="translate(2 2)" fill="#f8f8f8"/>
    </g>
    <g transform="translate(20 218)">
      <circle id="Ellipse_1-83" data-name="Ellipse 1" cx="2.5" cy="2.5" r="2.5" transform="translate(2 2)" fill="#f8f8f8"/>
    </g>
    <g transform="translate(31 218)">
      <circle id="Ellipse_1-84" data-name="Ellipse 1" cx="2.5" cy="2.5" r="2.5" transform="translate(2 2)" fill="#f8f8f8"/>
    </g>
    <g transform="translate(-2 229)">
      <circle id="Ellipse_1-85" data-name="Ellipse 1" cx="2.5" cy="2.5" r="2.5" transform="translate(2 2)" fill="#f8f8f8"/>
    </g>
    <g transform="translate(9 229)">
      <circle id="Ellipse_1-86" data-name="Ellipse 1" cx="2.5" cy="2.5" r="2.5" transform="translate(2 2)" fill="#f8f8f8"/>
    </g>
    <g transform="translate(20 229)">
      <circle id="Ellipse_1-87" data-name="Ellipse 1" cx="2.5" cy="2.5" r="2.5" transform="translate(2 2)" fill="#f8f8f8"/>
    </g>
    <g transform="translate(31 229)">
      <circle id="Ellipse_1-88" data-name="Ellipse 1" cx="2.5" cy="2.5" r="2.5" transform="translate(2 2)" fill="#f8f8f8"/>
    </g>
    <g transform="translate(-2 240)">
      <circle id="Ellipse_1-89" data-name="Ellipse 1" cx="2.5" cy="2.5" r="2.5" transform="translate(2 2)" fill="#f8f8f8"/>
    </g>
    <g transform="translate(9 240)">
      <circle id="Ellipse_1-90" data-name="Ellipse 1" cx="2.5" cy="2.5" r="2.5" transform="translate(2 2)" fill="#f8f8f8"/>
    </g>
    <g transform="translate(20 240)">
      <circle id="Ellipse_1-91" data-name="Ellipse 1" cx="2.5" cy="2.5" r="2.5" transform="translate(2 2)" fill="#f8f8f8"/>
    </g>
    <g transform="translate(31 240)">
      <circle id="Ellipse_1-92" data-name="Ellipse 1" cx="2.5" cy="2.5" r="2.5" transform="translate(2 2)" fill="#f8f8f8"/>
    </g>
    <g transform="translate(-2 251)">
      <circle id="Ellipse_1-93" data-name="Ellipse 1" cx="2.5" cy="2.5" r="2.5" transform="translate(2 2)" fill="#f8f8f8"/>
    </g>
    <g transform="translate(9 251)">
      <circle id="Ellipse_1-94" data-name="Ellipse 1" cx="2.5" cy="2.5" r="2.5" transform="translate(2 2)" fill="#f8f8f8"/>
    </g>
    <g transform="translate(20 251)">
      <circle id="Ellipse_1-95" data-name="Ellipse 1" cx="2.5" cy="2.5" r="2.5" transform="translate(2 2)" fill="#f8f8f8"/>
    </g>
    <g transform="translate(31 251)">
      <circle id="Ellipse_1-96" data-name="Ellipse 1" cx="2.5" cy="2.5" r="2.5" transform="translate(2 2)" fill="#f8f8f8"/>
    </g>
    <g transform="translate(-2 262)">
      <circle id="Ellipse_1-97" data-name="Ellipse 1" cx="2.5" cy="2.5" r="2.5" transform="translate(2 2)" fill="#f8f8f8"/>
    </g>
    <g transform="translate(9 262)">
      <circle id="Ellipse_1-98" data-name="Ellipse 1" cx="2.5" cy="2.5" r="2.5" transform="translate(2 2)" fill="#f8f8f8"/>
    </g>
    <g transform="translate(20 262)">
      <circle id="Ellipse_1-99" data-name="Ellipse 1" cx="2.5" cy="2.5" r="2.5" transform="translate(2 2)" fill="#f8f8f8"/>
    </g>
    <g transform="translate(31 262)">
      <circle id="Ellipse_1-100" data-name="Ellipse 1" cx="2.5" cy="2.5" r="2.5" transform="translate(2 2)" fill="#f8f8f8"/>
    </g>
    <g transform="translate(-2 273)">
      <circle id="Ellipse_1-101" data-name="Ellipse 1" cx="2.5" cy="2.5" r="2.5" transform="translate(2 2)" fill="#f8f8f8"/>
    </g>
    <g transform="translate(9 273)">
      <circle id="Ellipse_1-102" data-name="Ellipse 1" cx="2.5" cy="2.5" r="2.5" transform="translate(2 2)" fill="#f8f8f8"/>
    </g>
    <g transform="translate(20 273)">
      <circle id="Ellipse_1-103" data-name="Ellipse 1" cx="2.5" cy="2.5" r="2.5" transform="translate(2 2)" fill="#f8f8f8"/>
    </g>
    <g transform="translate(31 273)">
      <circle id="Ellipse_1-104" data-name="Ellipse 1" cx="2.5" cy="2.5" r="2.5" transform="translate(2 2)" fill="#f8f8f8"/>
    </g>
    <g transform="translate(-2 284)">
      <circle id="Ellipse_1-105" data-name="Ellipse 1" cx="2.5" cy="2.5" r="2.5" transform="translate(2 2)" fill="#f8f8f8"/>
    </g>
    <g transform="translate(9 284)">
      <circle id="Ellipse_1-106" data-name="Ellipse 1" cx="2.5" cy="2.5" r="2.5" transform="translate(2 2)" fill="#f8f8f8"/>
    </g>
    <g transform="translate(20 284)">
      <circle id="Ellipse_1-107" data-name="Ellipse 1" cx="2.5" cy="2.5" r="2.5" transform="translate(2 2)" fill="#f8f8f8"/>
    </g>
    <g transform="translate(31 284)">
      <circle id="Ellipse_1-108" data-name="Ellipse 1" cx="2.5" cy="2.5" r="2.5" transform="translate(2 2)" fill="#f8f8f8"/>
    </g>
    <g transform="translate(-2 295)">
      <circle id="Ellipse_1-109" data-name="Ellipse 1" cx="2.5" cy="2.5" r="2.5" transform="translate(2 2)" fill="#f8f8f8"/>
    </g>
    <g transform="translate(9 295)">
      <circle id="Ellipse_1-110" data-name="Ellipse 1" cx="2.5" cy="2.5" r="2.5" transform="translate(2 2)" fill="#f8f8f8"/>
    </g>
    <g transform="translate(20 295)">
      <circle id="Ellipse_1-111" data-name="Ellipse 1" cx="2.5" cy="2.5" r="2.5" transform="translate(2 2)" fill="#f8f8f8"/>
    </g>
    <g transform="translate(31 295)">
      <circle id="Ellipse_1-112" data-name="Ellipse 1" cx="2.5" cy="2.5" r="2.5" transform="translate(2 2)" fill="#f8f8f8"/>
    </g>
    <g transform="translate(-2 306)">
      <circle id="Ellipse_1-113" data-name="Ellipse 1" cx="2.5" cy="2.5" r="2.5" transform="translate(2 2)" fill="#f8f8f8"/>
    </g>
    <g transform="translate(9 306)">
      <circle id="Ellipse_1-114" data-name="Ellipse 1" cx="2.5" cy="2.5" r="2.5" transform="translate(2 2)" fill="#f8f8f8"/>
    </g>
    <g transform="translate(20 306)">
      <circle id="Ellipse_1-115" data-name="Ellipse 1" cx="2.5" cy="2.5" r="2.5" transform="translate(2 2)" fill="#f8f8f8"/>
    </g>
    <g transform="translate(31 306)">
      <circle id="Ellipse_1-116" data-name="Ellipse 1" cx="2.5" cy="2.5" r="2.5" transform="translate(2 2)" fill="#f8f8f8"/>
    </g>
    <g transform="translate(-2 317)">
      <circle id="Ellipse_1-117" data-name="Ellipse 1" cx="2.5" cy="2.5" r="2.5" transform="translate(2 2)" fill="#f8f8f8"/>
    </g>
    <g transform="translate(9 317)">
      <circle id="Ellipse_1-118" data-name="Ellipse 1" cx="2.5" cy="2.5" r="2.5" transform="translate(2 2)" fill="#f8f8f8"/>
    </g>
    <g transform="translate(20 317)">
      <circle id="Ellipse_1-119" data-name="Ellipse 1" cx="2.5" cy="2.5" r="2.5" transform="translate(2 2)" fill="#f8f8f8"/>
    </g>
    <g transform="translate(31 317)">
      <circle id="Ellipse_1-120" data-name="Ellipse 1" cx="2.5" cy="2.5" r="2.5" transform="translate(2 2)" fill="#f8f8f8"/>
    </g>
    <g transform="translate(-2 328)">
      <circle id="Ellipse_1-121" data-name="Ellipse 1" cx="2.5" cy="2.5" r="2.5" transform="translate(2 2)" fill="#f8f8f8"/>
    </g>
    <g transform="translate(9 328)">
      <circle id="Ellipse_1-122" data-name="Ellipse 1" cx="2.5" cy="2.5" r="2.5" transform="translate(2 2)" fill="#f8f8f8"/>
    </g>
    <g transform="translate(20 328)">
      <circle id="Ellipse_1-123" data-name="Ellipse 1" cx="2.5" cy="2.5" r="2.5" transform="translate(2 2)" fill="#f8f8f8"/>
    </g>
    <g transform="translate(31 328)">
      <circle id="Ellipse_1-124" data-name="Ellipse 1" cx="2.5" cy="2.5" r="2.5" transform="translate(2 2)" fill="#f8f8f8"/>
    </g>
    <g transform="translate(-2 339)">
      <circle id="Ellipse_1-125" data-name="Ellipse 1" cx="2.5" cy="2.5" r="2.5" transform="translate(2 2)" fill="#f8f8f8"/>
    </g>
    <g transform="translate(9 339)">
      <circle id="Ellipse_1-126" data-name="Ellipse 1" cx="2.5" cy="2.5" r="2.5" transform="translate(2 2)" fill="#f8f8f8"/>
    </g>
    <g transform="translate(20 339)">
      <circle id="Ellipse_1-127" data-name="Ellipse 1" cx="2.5" cy="2.5" r="2.5" transform="translate(2 2)" fill="#f8f8f8"/>
    </g>
    <g transform="translate(31 339)">
      <circle id="Ellipse_1-128" data-name="Ellipse 1" cx="2.5" cy="2.5" r="2.5" transform="translate(2 2)" fill="#f8f8f8"/>
    </g>
    <g transform="translate(-2 350)">
      <circle id="Ellipse_1-129" data-name="Ellipse 1" cx="2.5" cy="2.5" r="2.5" transform="translate(2 2)" fill="#f8f8f8"/>
    </g>
    <g transform="translate(9 350)">
      <circle id="Ellipse_1-130" data-name="Ellipse 1" cx="2.5" cy="2.5" r="2.5" transform="translate(2 2)" fill="#f8f8f8"/>
    </g>
    <g transform="translate(20 350)">
      <circle id="Ellipse_1-131" data-name="Ellipse 1" cx="2.5" cy="2.5" r="2.5" transform="translate(2 2)" fill="#f8f8f8"/>
    </g>
    <g transform="translate(31 350)">
      <circle id="Ellipse_1-132" data-name="Ellipse 1" cx="2.5" cy="2.5" r="2.5" transform="translate(2 2)" fill="#f8f8f8"/>
    </g>
    <g transform="translate(-2 361)">
      <circle id="Ellipse_1-133" data-name="Ellipse 1" cx="2.5" cy="2.5" r="2.5" transform="translate(2 2)" fill="#f8f8f8"/>
    </g>
    <g transform="translate(9 361)">
      <circle id="Ellipse_1-134" data-name="Ellipse 1" cx="2.5" cy="2.5" r="2.5" transform="translate(2 2)" fill="#f8f8f8"/>
    </g>
    <g transform="translate(20 361)">
      <circle id="Ellipse_1-135" data-name="Ellipse 1" cx="2.5" cy="2.5" r="2.5" transform="translate(2 2)" fill="#f8f8f8"/>
    </g>
    <g transform="translate(31 361)">
      <circle id="Ellipse_1-136" data-name="Ellipse 1" cx="2.5" cy="2.5" r="2.5" transform="translate(2 2)" fill="#f8f8f8"/>
    </g>
    <g transform="translate(-2 372)">
      <circle id="Ellipse_1-137" data-name="Ellipse 1" cx="2.5" cy="2.5" r="2.5" transform="translate(2 2)" fill="#f8f8f8"/>
    </g>
    <g transform="translate(9 372)">
      <circle id="Ellipse_1-138" data-name="Ellipse 1" cx="2.5" cy="2.5" r="2.5" transform="translate(2 2)" fill="#f8f8f8"/>
    </g>
    <g transform="translate(20 372)">
      <circle id="Ellipse_1-139" data-name="Ellipse 1" cx="2.5" cy="2.5" r="2.5" transform="translate(2 2)" fill="#f8f8f8"/>
    </g>
    <g transform="translate(31 372)">
      <circle id="Ellipse_1-140" data-name="Ellipse 1" cx="2.5" cy="2.5" r="2.5" transform="translate(2 2)" fill="#f8f8f8"/>
    </g>
    <g transform="translate(-2 383)">
      <circle id="Ellipse_1-141" data-name="Ellipse 1" cx="2.5" cy="2.5" r="2.5" transform="translate(2 2)" fill="#f8f8f8"/>
    </g>
    <g transform="translate(9 383)">
      <circle id="Ellipse_1-142" data-name="Ellipse 1" cx="2.5" cy="2.5" r="2.5" transform="translate(2 2)" fill="#f8f8f8"/>
    </g>
    <g transform="translate(20 383)">
      <circle id="Ellipse_1-143" data-name="Ellipse 1" cx="2.5" cy="2.5" r="2.5" transform="translate(2 2)" fill="#f8f8f8"/>
    </g>
    <g transform="translate(31 383)">
      <circle id="Ellipse_1-144" data-name="Ellipse 1" cx="2.5" cy="2.5" r="2.5" transform="translate(2 2)" fill="#f8f8f8"/>
    </g>
    <g transform="translate(-2 394)">
      <circle id="Ellipse_1-145" data-name="Ellipse 1" cx="2.5" cy="2.5" r="2.5" transform="translate(2 2)" fill="#f8f8f8"/>
    </g>
    <g transform="translate(9 394)">
      <circle id="Ellipse_1-146" data-name="Ellipse 1" cx="2.5" cy="2.5" r="2.5" transform="translate(2 2)" fill="#f8f8f8"/>
    </g>
    <g transform="translate(20 394)">
      <circle id="Ellipse_1-147" data-name="Ellipse 1" cx="2.5" cy="2.5" r="2.5" transform="translate(2 2)" fill="#f8f8f8"/>
    </g>
    <g transform="translate(31 394)">
      <circle id="Ellipse_1-148" data-name="Ellipse 1" cx="2.5" cy="2.5" r="2.5" transform="translate(2 2)" fill="#f8f8f8"/>
    </g>
    <g transform="translate(-2 405)">
      <circle id="Ellipse_1-149" data-name="Ellipse 1" cx="2.5" cy="2.5" r="2.5" transform="translate(2 2)" fill="#f8f8f8"/>
    </g>
    <g transform="translate(9 405)">
      <circle id="Ellipse_1-150" data-name="Ellipse 1" cx="2.5" cy="2.5" r="2.5" transform="translate(2 2)" fill="#f8f8f8"/>
    </g>
    <g transform="translate(20 405)">
      <circle id="Ellipse_1-151" data-name="Ellipse 1" cx="2.5" cy="2.5" r="2.5" transform="translate(2 2)" fill="#f8f8f8"/>
    </g>
    <g transform="translate(31 405)">
      <circle id="Ellipse_1-152" data-name="Ellipse 1" cx="2.5" cy="2.5" r="2.5" transform="translate(2 2)" fill="#f8f8f8"/>
    </g>
    <g transform="translate(-2 416)">
      <circle id="Ellipse_1-153" data-name="Ellipse 1" cx="2.5" cy="2.5" r="2.5" transform="translate(2 2)" fill="#f8f8f8"/>
    </g>
    <g transform="translate(9 416)">
      <circle id="Ellipse_1-154" data-name="Ellipse 1" cx="2.5" cy="2.5" r="2.5" transform="translate(2 2)" fill="#f8f8f8"/>
    </g>
    <g transform="translate(20 416)">
      <circle id="Ellipse_1-155" data-name="Ellipse 1" cx="2.5" cy="2.5" r="2.5" transform="translate(2 2)" fill="#f8f8f8"/>
    </g>
    <g transform="translate(31 416)">
      <circle id="Ellipse_1-156" data-name="Ellipse 1" cx="2.5" cy="2.5" r="2.5" transform="translate(2 2)" fill="#f8f8f8"/>
    </g>
    <g transform="translate(-2 427)">
      <circle id="Ellipse_1-157" data-name="Ellipse 1" cx="2.5" cy="2.5" r="2.5" transform="translate(2 2)" fill="#f8f8f8"/>
    </g>
    <g transform="translate(9 427)">
      <circle id="Ellipse_1-158" data-name="Ellipse 1" cx="2.5" cy="2.5" r="2.5" transform="translate(2 2)" fill="#f8f8f8"/>
    </g>
    <g transform="translate(20 427)">
      <circle id="Ellipse_1-159" data-name="Ellipse 1" cx="2.5" cy="2.5" r="2.5" transform="translate(2 2)" fill="#f8f8f8"/>
    </g>
    <g transform="translate(31 427)">
      <circle id="Ellipse_1-160" data-name="Ellipse 1" cx="2.5" cy="2.5" r="2.5" transform="translate(2 2)" fill="#f8f8f8"/>
    </g>
    <g transform="translate(-2 438)">
      <circle id="Ellipse_1-161" data-name="Ellipse 1" cx="2.5" cy="2.5" r="2.5" transform="translate(2 2)" fill="#f8f8f8"/>
    </g>
    <g transform="translate(9 438)">
      <circle id="Ellipse_1-162" data-name="Ellipse 1" cx="2.5" cy="2.5" r="2.5" transform="translate(2 2)" fill="#f8f8f8"/>
    </g>
    <g transform="translate(20 438)">
      <circle id="Ellipse_1-163" data-name="Ellipse 1" cx="2.5" cy="2.5" r="2.5" transform="translate(2 2)" fill="#f8f8f8"/>
    </g>
    <g transform="translate(31 438)">
      <circle id="Ellipse_1-164" data-name="Ellipse 1" cx="2.5" cy="2.5" r="2.5" transform="translate(2 2)" fill="#f8f8f8"/>
    </g>
    <g transform="translate(-2 449)">
      <circle id="Ellipse_1-165" data-name="Ellipse 1" cx="2.5" cy="2.5" r="2.5" transform="translate(2 2)" fill="#f8f8f8"/>
    </g>
    <g transform="translate(9 449)">
      <circle id="Ellipse_1-166" data-name="Ellipse 1" cx="2.5" cy="2.5" r="2.5" transform="translate(2 2)" fill="#f8f8f8"/>
    </g>
    <g transform="translate(20 449)">
      <circle id="Ellipse_1-167" data-name="Ellipse 1" cx="2.5" cy="2.5" r="2.5" transform="translate(2 2)" fill="#f8f8f8"/>
    </g>
    <g transform="translate(31 449)">
      <circle id="Ellipse_1-168" data-name="Ellipse 1" cx="2.5" cy="2.5" r="2.5" transform="translate(2 2)" fill="#f8f8f8"/>
    </g>
    <g transform="translate(-2 460)">
      <circle id="Ellipse_1-169" data-name="Ellipse 1" cx="2.5" cy="2.5" r="2.5" transform="translate(2 2)" fill="#f8f8f8"/>
    </g>
    <g transform="translate(9 460)">
      <circle id="Ellipse_1-170" data-name="Ellipse 1" cx="2.5" cy="2.5" r="2.5" transform="translate(2 2)" fill="#f8f8f8"/>
    </g>
    <g transform="translate(20 460)">
      <circle id="Ellipse_1-171" data-name="Ellipse 1" cx="2.5" cy="2.5" r="2.5" transform="translate(2 2)" fill="#f8f8f8"/>
    </g>
    <g transform="translate(31 460)">
      <circle id="Ellipse_1-172" data-name="Ellipse 1" cx="2.5" cy="2.5" r="2.5" transform="translate(2 2)" fill="#f8f8f8"/>
    </g>
    <g transform="translate(-2 471)">
      <circle id="Ellipse_1-173" data-name="Ellipse 1" cx="2.5" cy="2.5" r="2.5" transform="translate(2 2)" fill="#f8f8f8"/>
    </g>
    <g transform="translate(9 471)">
      <circle id="Ellipse_1-174" data-name="Ellipse 1" cx="2.5" cy="2.5" r="2.5" transform="translate(2 2)" fill="#f8f8f8"/>
    </g>
    <g transform="translate(20 471)">
      <circle id="Ellipse_1-175" data-name="Ellipse 1" cx="2.5" cy="2.5" r="2.5" transform="translate(2 2)" fill="#f8f8f8"/>
    </g>
    <g transform="translate(31 471)">
      <circle id="Ellipse_1-176" data-name="Ellipse 1" cx="2.5" cy="2.5" r="2.5" transform="translate(2 2)" fill="#f8f8f8"/>
    </g>
    <g transform="translate(-2 482)">
      <circle id="Ellipse_1-177" data-name="Ellipse 1" cx="2.5" cy="2.5" r="2.5" transform="translate(2 2)" fill="#f8f8f8"/>
    </g>
    <g transform="translate(9 482)">
      <circle id="Ellipse_1-178" data-name="Ellipse 1" cx="2.5" cy="2.5" r="2.5" transform="translate(2 2)" fill="#f8f8f8"/>
    </g>
    <g transform="translate(20 482)">
      <circle id="Ellipse_1-179" data-name="Ellipse 1" cx="2.5" cy="2.5" r="2.5" transform="translate(2 2)" fill="#f8f8f8"/>
    </g>
    <g transform="translate(31 482)">
      <circle id="Ellipse_1-180" data-name="Ellipse 1" cx="2.5" cy="2.5" r="2.5" transform="translate(2 2)" fill="#f8f8f8"/>
    </g>
    <g transform="translate(-2 493)">
      <circle id="Ellipse_1-181" data-name="Ellipse 1" cx="2.5" cy="2.5" r="2.5" transform="translate(2 2)" fill="#f8f8f8"/>
    </g>
    <g transform="translate(9 493)">
      <circle id="Ellipse_1-182" data-name="Ellipse 1" cx="2.5" cy="2.5" r="2.5" transform="translate(2 2)" fill="#f8f8f8"/>
    </g>
    <g transform="translate(20 493)">
      <circle id="Ellipse_1-183" data-name="Ellipse 1" cx="2.5" cy="2.5" r="2.5" transform="translate(2 2)" fill="#f8f8f8"/>
    </g>
    <g transform="translate(31 493)">
      <circle id="Ellipse_1-184" data-name="Ellipse 1" cx="2.5" cy="2.5" r="2.5" transform="translate(2 2)" fill="#f8f8f8"/>
    </g>
    <g transform="translate(-2 504)">
      <circle id="Ellipse_1-185" data-name="Ellipse 1" cx="2.5" cy="2.5" r="2.5" transform="translate(2 2)" fill="#f8f8f8"/>
    </g>
    <g transform="translate(9 504)">
      <circle id="Ellipse_1-186" data-name="Ellipse 1" cx="2.5" cy="2.5" r="2.5" transform="translate(2 2)" fill="#f8f8f8"/>
    </g>
    <g transform="translate(20 504)">
      <circle id="Ellipse_1-187" data-name="Ellipse 1" cx="2.5" cy="2.5" r="2.5" transform="translate(2 2)" fill="#f8f8f8"/>
    </g>
    <g transform="translate(31 504)">
      <circle id="Ellipse_1-188" data-name="Ellipse 1" cx="2.5" cy="2.5" r="2.5" transform="translate(2 2)" fill="#f8f8f8"/>
    </g>
    <g transform="translate(-2 515)">
      <circle id="Ellipse_1-189" data-name="Ellipse 1" cx="2.5" cy="2.5" r="2.5" transform="translate(2 2)" fill="#f8f8f8"/>
    </g>
    <g transform="translate(9 515)">
      <circle id="Ellipse_1-190" data-name="Ellipse 1" cx="2.5" cy="2.5" r="2.5" transform="translate(2 2)" fill="#f8f8f8"/>
    </g>
    <g transform="translate(20 515)">
      <circle id="Ellipse_1-191" data-name="Ellipse 1" cx="2.5" cy="2.5" r="2.5" transform="translate(2 2)" fill="#f8f8f8"/>
    </g>
    <g transform="translate(31 515)">
      <circle id="Ellipse_1-192" data-name="Ellipse 1" cx="2.5" cy="2.5" r="2.5" transform="translate(2 2)" fill="#f8f8f8"/>
    </g>
    <g transform="translate(-2 526)">
      <circle id="Ellipse_1-193" data-name="Ellipse 1" cx="2.5" cy="2.5" r="2.5" transform="translate(2 2)" fill="#f8f8f8"/>
    </g>
    <g transform="translate(9 526)">
      <circle id="Ellipse_1-194" data-name="Ellipse 1" cx="2.5" cy="2.5" r="2.5" transform="translate(2 2)" fill="#f8f8f8"/>
    </g>
    <g transform="translate(20 526)">
      <circle id="Ellipse_1-195" data-name="Ellipse 1" cx="2.5" cy="2.5" r="2.5" transform="translate(2 2)" fill="#f8f8f8"/>
    </g>
    <g transform="translate(31 526)">
      <circle id="Ellipse_1-196" data-name="Ellipse 1" cx="2.5" cy="2.5" r="2.5" transform="translate(2 2)" fill="#f8f8f8"/>
    </g>
    <g transform="translate(-2 537)">
      <circle id="Ellipse_1-197" data-name="Ellipse 1" cx="2.5" cy="2.5" r="2.5" transform="translate(2 2)" fill="#f8f8f8"/>
    </g>
    <g transform="translate(9 537)">
      <circle id="Ellipse_1-198" data-name="Ellipse 1" cx="2.5" cy="2.5" r="2.5" transform="translate(2 2)" fill="#f8f8f8"/>
    </g>
    <g transform="translate(20 537)">
      <circle id="Ellipse_1-199" data-name="Ellipse 1" cx="2.5" cy="2.5" r="2.5" transform="translate(2 2)" fill="#f8f8f8"/>
    </g>
    <g transform="translate(31 537)">
      <circle id="Ellipse_1-200" data-name="Ellipse 1" cx="2.5" cy="2.5" r="2.5" transform="translate(2 2)" fill="#f8f8f8"/>
    </g>
    <g transform="translate(-2 548)">
      <circle id="Ellipse_1-201" data-name="Ellipse 1" cx="2.5" cy="2.5" r="2.5" transform="translate(2 2)" fill="#f8f8f8"/>
    </g>
    <g transform="translate(9 548)">
      <circle id="Ellipse_1-202" data-name="Ellipse 1" cx="2.5" cy="2.5" r="2.5" transform="translate(2 2)" fill="#f8f8f8"/>
    </g>
    <g transform="translate(20 548)">
      <circle id="Ellipse_1-203" data-name="Ellipse 1" cx="2.5" cy="2.5" r="2.5" transform="translate(2 2)" fill="#f8f8f8"/>
    </g>
    <g transform="translate(31 548)">
      <circle id="Ellipse_1-204" data-name="Ellipse 1" cx="2.5" cy="2.5" r="2.5" transform="translate(2 2)" fill="#f8f8f8"/>
    </g>
    <g transform="translate(-2 559)">
      <circle id="Ellipse_1-205" data-name="Ellipse 1" cx="2.5" cy="2.5" r="2.5" transform="translate(2 2)" fill="#f8f8f8"/>
    </g>
    <g transform="translate(9 559)">
      <circle id="Ellipse_1-206" data-name="Ellipse 1" cx="2.5" cy="2.5" r="2.5" transform="translate(2 2)" fill="#f8f8f8"/>
    </g>
    <g transform="translate(20 559)">
      <circle id="Ellipse_1-207" data-name="Ellipse 1" cx="2.5" cy="2.5" r="2.5" transform="translate(2 2)" fill="#f8f8f8"/>
    </g>
    <g transform="translate(31 559)">
      <circle id="Ellipse_1-208" data-name="Ellipse 1" cx="2.5" cy="2.5" r="2.5" transform="translate(2 2)" fill="#f8f8f8"/>
    </g>
    <g transform="translate(-2 570)">
      <circle id="Ellipse_1-209" data-name="Ellipse 1" cx="2.5" cy="2.5" r="2.5" transform="translate(2 2)" fill="#f8f8f8"/>
    </g>
    <g transform="translate(9 570)">
      <circle id="Ellipse_1-210" data-name="Ellipse 1" cx="2.5" cy="2.5" r="2.5" transform="translate(2 2)" fill="#f8f8f8"/>
    </g>
    <g transform="translate(20 570)">
      <circle id="Ellipse_1-211" data-name="Ellipse 1" cx="2.5" cy="2.5" r="2.5" transform="translate(2 2)" fill="#f8f8f8"/>
    </g>
    <g transform="translate(31 570)">
      <circle id="Ellipse_1-212" data-name="Ellipse 1" cx="2.5" cy="2.5" r="2.5" transform="translate(2 2)" fill="#f8f8f8"/>
    </g>
    <g transform="translate(-2 581)">
      <circle id="Ellipse_1-213" data-name="Ellipse 1" cx="2.5" cy="2.5" r="2.5" transform="translate(2 2)" fill="#f8f8f8"/>
    </g>
    <g transform="translate(9 581)">
      <circle id="Ellipse_1-214" data-name="Ellipse 1" cx="2.5" cy="2.5" r="2.5" transform="translate(2 2)" fill="#f8f8f8"/>
    </g>
    <g transform="translate(20 581)">
      <circle id="Ellipse_1-215" data-name="Ellipse 1" cx="2.5" cy="2.5" r="2.5" transform="translate(2 2)" fill="#f8f8f8"/>
    </g>
    <g transform="translate(31 581)">
      <circle id="Ellipse_1-216" data-name="Ellipse 1" cx="2.5" cy="2.5" r="2.5" transform="translate(2 2)" fill="#f8f8f8"/>
    </g>
    <g transform="translate(-2 592)">
      <circle id="Ellipse_1-217" data-name="Ellipse 1" cx="2.5" cy="2.5" r="2.5" transform="translate(2 2)" fill="#f8f8f8"/>
    </g>
    <g transform="translate(9 592)">
      <circle id="Ellipse_1-218" data-name="Ellipse 1" cx="2.5" cy="2.5" r="2.5" transform="translate(2 2)" fill="#f8f8f8"/>
    </g>
    <g transform="translate(20 592)">
      <circle id="Ellipse_1-219" data-name="Ellipse 1" cx="2.5" cy="2.5" r="2.5" transform="translate(2 2)" fill="#f8f8f8"/>
    </g>
    <g transform="translate(31 592)">
      <circle id="Ellipse_1-220" data-name="Ellipse 1" cx="2.5" cy="2.5" r="2.5" transform="translate(2 2)" fill="#f8f8f8"/>
    </g>
    <g transform="translate(-2 603)">
      <circle id="Ellipse_1-221" data-name="Ellipse 1" cx="2.5" cy="2.5" r="2.5" transform="translate(2 2)" fill="#f8f8f8"/>
    </g>
    <g transform="translate(9 603)">
      <circle id="Ellipse_1-222" data-name="Ellipse 1" cx="2.5" cy="2.5" r="2.5" transform="translate(2 2)" fill="#f8f8f8"/>
    </g>
    <g transform="translate(20 603)">
      <circle id="Ellipse_1-223" data-name="Ellipse 1" cx="2.5" cy="2.5" r="2.5" transform="translate(2 2)" fill="#f8f8f8"/>
    </g>
    <g transform="translate(31 603)">
      <circle id="Ellipse_1-224" data-name="Ellipse 1" cx="2.5" cy="2.5" r="2.5" transform="translate(2 2)" fill="#f8f8f8"/>
    </g>
    <g transform="translate(-2 614)">
      <circle id="Ellipse_1-225" data-name="Ellipse 1" cx="2.5" cy="2.5" r="2.5" transform="translate(2 2)" fill="#f8f8f8"/>
    </g>
    <g transform="translate(9 614)">
      <circle id="Ellipse_1-226" data-name="Ellipse 1" cx="2.5" cy="2.5" r="2.5" transform="translate(2 2)" fill="#f8f8f8"/>
    </g>
    <g transform="translate(20 614)">
      <circle id="Ellipse_1-227" data-name="Ellipse 1" cx="2.5" cy="2.5" r="2.5" transform="translate(2 2)" fill="#f8f8f8"/>
    </g>
    <g transform="translate(31 614)">
      <circle id="Ellipse_1-228" data-name="Ellipse 1" cx="2.5" cy="2.5" r="2.5" transform="translate(2 2)" fill="#f8f8f8"/>
    </g>
    <g transform="translate(-2 625)">
      <circle id="Ellipse_1-229" data-name="Ellipse 1" cx="2.5" cy="2.5" r="2.5" transform="translate(2 2)" fill="#f8f8f8"/>
    </g>
    <g transform="translate(9 625)">
      <circle id="Ellipse_1-230" data-name="Ellipse 1" cx="2.5" cy="2.5" r="2.5" transform="translate(2 2)" fill="#f8f8f8"/>
    </g>
    <g transform="translate(20 625)">
      <circle id="Ellipse_1-231" data-name="Ellipse 1" cx="2.5" cy="2.5" r="2.5" transform="translate(2 2)" fill="#f8f8f8"/>
    </g>
    <g transform="translate(31 625)">
      <circle id="Ellipse_1-232" data-name="Ellipse 1" cx="2.5" cy="2.5" r="2.5" transform="translate(2 2)" fill="#f8f8f8"/>
    </g>
    <g transform="translate(-2 636)">
      <circle id="Ellipse_1-233" data-name="Ellipse 1" cx="2.5" cy="2.5" r="2.5" transform="translate(2 2)" fill="#f8f8f8"/>
    </g>
    <g transform="translate(9 636)">
      <circle id="Ellipse_1-234" data-name="Ellipse 1" cx="2.5" cy="2.5" r="2.5" transform="translate(2 2)" fill="#f8f8f8"/>
    </g>
    <g transform="translate(20 636)">
      <circle id="Ellipse_1-235" data-name="Ellipse 1" cx="2.5" cy="2.5" r="2.5" transform="translate(2 2)" fill="#f8f8f8"/>
    </g>
    <g transform="translate(31 636)">
      <circle id="Ellipse_1-236" data-name="Ellipse 1" cx="2.5" cy="2.5" r="2.5" transform="translate(2 2)" fill="#f8f8f8"/>
    </g>
    <g transform="translate(-2 647)">
      <circle id="Ellipse_1-237" data-name="Ellipse 1" cx="2.5" cy="2.5" r="2.5" transform="translate(2 2)" fill="#f8f8f8"/>
    </g>
    <g transform="translate(9 647)">
      <circle id="Ellipse_1-238" data-name="Ellipse 1" cx="2.5" cy="2.5" r="2.5" transform="translate(2 2)" fill="#f8f8f8"/>
    </g>
    <g transform="translate(20 647)">
      <circle id="Ellipse_1-239" data-name="Ellipse 1" cx="2.5" cy="2.5" r="2.5" transform="translate(2 2)" fill="#f8f8f8"/>
    </g>
    <g transform="translate(31 647)">
      <circle id="Ellipse_1-240" data-name="Ellipse 1" cx="2.5" cy="2.5" r="2.5" transform="translate(2 2)" fill="#f8f8f8"/>
    </g>
    <g transform="translate(-2 658)">
      <circle id="Ellipse_1-241" data-name="Ellipse 1" cx="2.5" cy="2.5" r="2.5" transform="translate(2 2)" fill="#f8f8f8"/>
    </g>
    <g transform="translate(9 658)">
      <circle id="Ellipse_1-242" data-name="Ellipse 1" cx="2.5" cy="2.5" r="2.5" transform="translate(2 2)" fill="#f8f8f8"/>
    </g>
    <g transform="translate(20 658)">
      <circle id="Ellipse_1-243" data-name="Ellipse 1" cx="2.5" cy="2.5" r="2.5" transform="translate(2 2)" fill="#f8f8f8"/>
    </g>
    <g transform="translate(31 658)">
      <circle id="Ellipse_1-244" data-name="Ellipse 1" cx="2.5" cy="2.5" r="2.5" transform="translate(2 2)" fill="#f8f8f8"/>
    </g>
    <g transform="translate(-2 669)">
      <circle id="Ellipse_1-245" data-name="Ellipse 1" cx="2.5" cy="2.5" r="2.5" transform="translate(2 2)" fill="#f8f8f8"/>
    </g>
    <g transform="translate(9 669)">
      <circle id="Ellipse_1-246" data-name="Ellipse 1" cx="2.5" cy="2.5" r="2.5" transform="translate(2 2)" fill="#f8f8f8"/>
    </g>
    <g transform="translate(20 669)">
      <circle id="Ellipse_1-247" data-name="Ellipse 1" cx="2.5" cy="2.5" r="2.5" transform="translate(2 2)" fill="#f8f8f8"/>
    </g>
    <g transform="translate(31 669)">
      <circle id="Ellipse_1-248" data-name="Ellipse 1" cx="2.5" cy="2.5" r="2.5" transform="translate(2 2)" fill="#f8f8f8"/>
    </g>
    <g transform="translate(-2 680)">
      <circle id="Ellipse_1-249" data-name="Ellipse 1" cx="2.5" cy="2.5" r="2.5" transform="translate(2 2)" fill="#f8f8f8"/>
    </g>
    <g transform="translate(9 680)">
      <circle id="Ellipse_1-250" data-name="Ellipse 1" cx="2.5" cy="2.5" r="2.5" transform="translate(2 2)" fill="#f8f8f8"/>
    </g>
    <g transform="translate(20 680)">
      <circle id="Ellipse_1-251" data-name="Ellipse 1" cx="2.5" cy="2.5" r="2.5" transform="translate(2 2)" fill="#f8f8f8"/>
    </g>
    <g transform="translate(31 680)">
      <circle id="Ellipse_1-252" data-name="Ellipse 1" cx="2.5" cy="2.5" r="2.5" transform="translate(2 2)" fill="#f8f8f8"/>
    </g>
    <g transform="translate(-2 691)">
      <circle id="Ellipse_1-253" data-name="Ellipse 1" cx="2.5" cy="2.5" r="2.5" transform="translate(2 2)" fill="#f8f8f8"/>
    </g>
    <g transform="translate(9 691)">
      <circle id="Ellipse_1-254" data-name="Ellipse 1" cx="2.5" cy="2.5" r="2.5" transform="translate(2 2)" fill="#f8f8f8"/>
    </g>
    <g transform="translate(20 691)">
      <circle id="Ellipse_1-255" data-name="Ellipse 1" cx="2.5" cy="2.5" r="2.5" transform="translate(2 2)" fill="#f8f8f8"/>
    </g>
    <g transform="translate(31 691)">
      <circle id="Ellipse_1-256" data-name="Ellipse 1" cx="2.5" cy="2.5" r="2.5" transform="translate(2 2)" fill="#f8f8f8"/>
    </g>
    <g transform="translate(-2 702)">
      <circle id="Ellipse_1-257" data-name="Ellipse 1" cx="2.5" cy="2.5" r="2.5" transform="translate(2 2)" fill="#f8f8f8"/>
    </g>
    <g transform="translate(9 702)">
      <circle id="Ellipse_1-258" data-name="Ellipse 1" cx="2.5" cy="2.5" r="2.5" transform="translate(2 2)" fill="#f8f8f8"/>
    </g>
    <g transform="translate(20 702)">
      <circle id="Ellipse_1-259" data-name="Ellipse 1" cx="2.5" cy="2.5" r="2.5" transform="translate(2 2)" fill="#f8f8f8"/>
    </g>
    <g transform="translate(31 702)">
      <circle id="Ellipse_1-260" data-name="Ellipse 1" cx="2.5" cy="2.5" r="2.5" transform="translate(2 2)" fill="#f8f8f8"/>
    </g>
    <g transform="translate(-2 713)">
      <circle id="Ellipse_1-261" data-name="Ellipse 1" cx="2.5" cy="2.5" r="2.5" transform="translate(2 2)" fill="#f8f8f8"/>
    </g>
    <g transform="translate(9 713)">
      <circle id="Ellipse_1-262" data-name="Ellipse 1" cx="2.5" cy="2.5" r="2.5" transform="translate(2 2)" fill="#f8f8f8"/>
    </g>
    <g transform="translate(20 713)">
      <circle id="Ellipse_1-263" data-name="Ellipse 1" cx="2.5" cy="2.5" r="2.5" transform="translate(2 2)" fill="#f8f8f8"/>
    </g>
    <g transform="translate(31 713)">
      <circle id="Ellipse_1-264" data-name="Ellipse 1" cx="2.5" cy="2.5" r="2.5" transform="translate(2 2)" fill="#f8f8f8"/>
    </g>
    <g transform="translate(-2 724)">
      <circle id="Ellipse_1-265" data-name="Ellipse 1" cx="2.5" cy="2.5" r="2.5" transform="translate(2 2)" fill="#f8f8f8"/>
    </g>
    <g transform="translate(9 724)">
      <circle id="Ellipse_1-266" data-name="Ellipse 1" cx="2.5" cy="2.5" r="2.5" transform="translate(2 2)" fill="#f8f8f8"/>
    </g>
    <g transform="translate(20 724)">
      <circle id="Ellipse_1-267" data-name="Ellipse 1" cx="2.5" cy="2.5" r="2.5" transform="translate(2 2)" fill="#f8f8f8"/>
    </g>
    <g transform="translate(31 724)">
      <circle id="Ellipse_1-268" data-name="Ellipse 1" cx="2.5" cy="2.5" r="2.5" transform="translate(2 2)" fill="#f8f8f8"/>
    </g>
    <g transform="translate(-2 735)">
      <circle id="Ellipse_1-269" data-name="Ellipse 1" cx="2.5" cy="2.5" r="2.5" transform="translate(2 2)" fill="#f8f8f8"/>
    </g>
    <g transform="translate(9 735)">
      <circle id="Ellipse_1-270" data-name="Ellipse 1" cx="2.5" cy="2.5" r="2.5" transform="translate(2 2)" fill="#f8f8f8"/>
    </g>
    <g transform="translate(20 735)">
      <circle id="Ellipse_1-271" data-name="Ellipse 1" cx="2.5" cy="2.5" r="2.5" transform="translate(2 2)" fill="#f8f8f8"/>
    </g>
    <g transform="translate(31 735)">
      <circle id="Ellipse_1-272" data-name="Ellipse 1" cx="2.5" cy="2.5" r="2.5" transform="translate(2 2)" fill="#f8f8f8"/>
    </g>
    <g transform="translate(-2 746)">
      <circle id="Ellipse_1-273" data-name="Ellipse 1" cx="2.5" cy="2.5" r="2.5" transform="translate(2 2)" fill="#f8f8f8"/>
    </g>
    <g transform="translate(9 746)">
      <circle id="Ellipse_1-274" data-name="Ellipse 1" cx="2.5" cy="2.5" r="2.5" transform="translate(2 2)" fill="#f8f8f8"/>
    </g>
    <g transform="translate(20 746)">
      <circle id="Ellipse_1-275" data-name="Ellipse 1" cx="2.5" cy="2.5" r="2.5" transform="translate(2 2)" fill="#f8f8f8"/>
    </g>
    <g transform="translate(31 746)">
      <circle id="Ellipse_1-276" data-name="Ellipse 1" cx="2.5" cy="2.5" r="2.5" transform="translate(2 2)" fill="#f8f8f8"/>
    </g>
  </g>
</svg>
