<svg xmlns="http://www.w3.org/2000/svg" width="59.922" height="47.358" viewBox="0 0 59.922 47.358">
  <g id="microphone_3_" data-name="microphone (3)" transform="translate(-8 -64)">
    <path id="Path_27" data-name="Path 27" d="M192.7,91.061a8.708,8.708,0,0,0,8.7-8.7V72.7a8.7,8.7,0,1,0-17.4,0v9.665A8.708,8.708,0,0,0,192.7,91.061ZM187.866,67.97V72.7a.966.966,0,0,0,1.933,0V66.9a.967.967,0,0,0-.045-.291A6.711,6.711,0,0,1,191.732,66v6.7a.966.966,0,0,0,1.933,0V66a6.712,6.712,0,0,1,1.978.605.966.966,0,0,0-.045.291v5.8a.966.966,0,0,0,1.933,0V67.97a6.742,6.742,0,0,1,1.933,4.728v5.8H185.933V72.7A6.742,6.742,0,0,1,187.866,67.97Zm-1.933,12.46h13.531v1.933a6.765,6.765,0,0,1-13.531,0Z" transform="translate(-154.737)"/>
    <path id="Path_28" data-name="Path 28" d="M66.955,151.981H63.089V124.92a3.87,3.87,0,0,0-3.866-3.866H49.559v-1.087a.966.966,0,0,0-1.933,0v11.719a8.708,8.708,0,0,1-8.7,8.7H36.994a8.708,8.708,0,0,1-8.7-8.7V119.966a.966.966,0,0,0-1.933,0v1.087H16.7a3.87,3.87,0,0,0-3.866,3.866v27.061H8.966a.966.966,0,0,0-.966.966v3.866a2.9,2.9,0,0,0,2.9,2.9H65.022a2.9,2.9,0,0,0,2.9-2.9v-3.866A.966.966,0,0,0,66.955,151.981Zm-28.028-9.665a10.643,10.643,0,0,0,10.631-10.631v-5.8h8.7v23.2H48.592v-1.933a.966.966,0,0,0-.966-.966h-8.7Zm7.732,5.8v.966h-17.4v-.966Zm-9.665-5.8v3.866H28.3a.966.966,0,0,0-.966.966v1.933H17.665v-23.2h8.7v5.8A10.643,10.643,0,0,0,36.994,142.316Zm-22.229-17.4a1.936,1.936,0,0,1,1.933-1.933h9.665v.966H16.7a.966.966,0,0,0-.966.966v25.129a.966.966,0,0,0,.966.966H59.224a.966.966,0,0,0,.966-.966V124.92a.966.966,0,0,0-.966-.966H49.559v-.966h9.665a1.936,1.936,0,0,1,1.933,1.933v27.061H14.765Zm26.687,28.994-.323.966H34.792l-.323-.966Zm24.537,2.9a.968.968,0,0,1-.966.966H10.9a.968.968,0,0,1-.966-.966v-2.9h22.5l.747,2.239a.966.966,0,0,0,.917.661h7.732a.967.967,0,0,0,.917-.661l.747-2.239h22.5Z" transform="translate(0 -48.355)"/>
  </g>
</svg>
