<svg id="photography" xmlns="http://www.w3.org/2000/svg" width="57.455" height="38.99" viewBox="0 0 57.455 38.99">
  <g id="Group_28" data-name="Group 28" transform="translate(0 0)">
    <g id="Group_27" data-name="Group 27">
      <path id="Path_10" data-name="Path 10" d="M56.311,82.274H1.145A1.145,1.145,0,0,0,0,83.419v36.7a1.144,1.144,0,0,0,1.145,1.144H56.311a1.145,1.145,0,0,0,1.144-1.144v-36.7A1.145,1.145,0,0,0,56.311,82.274Zm-1.145,36.7H2.289V84.563H55.166v34.412Z" transform="translate(0 -82.274)"/>
    </g>
  </g>
  <g id="Group_30" data-name="Group 30" transform="translate(4.67 4.597)">
    <g id="Group_29" data-name="Group 29">
      <path id="Path_11" data-name="Path 11" d="M90.816,125.451h-45.8a1.16,1.16,0,0,0-1.157,1.164v27.468a1.16,1.16,0,0,0,1.157,1.164h45.8a1.16,1.16,0,0,0,1.157-1.164V126.615A1.16,1.16,0,0,0,90.816,125.451ZM89.66,152.919H46.17v-2.565L60.933,135.5l11.775,11.849a1.152,1.152,0,0,0,1.636,0l6.256-6.295,9.061,9.118v2.749Zm0-6.041-8.243-8.295a1.152,1.152,0,0,0-1.636,0l-6.256,6.295L61.751,133.029a1.152,1.152,0,0,0-1.636,0L46.17,147.062V127.779H89.66Z" transform="translate(-43.857 -125.451)"/>
    </g>
  </g>
  <g id="Group_32" data-name="Group 32" transform="translate(30.351 9.78)">
    <g id="Group_31" data-name="Group 31">
      <path id="Path_12" data-name="Path 12" d="M272.04,168.287a3.8,3.8,0,1,0,3.8,3.8A3.805,3.805,0,0,0,272.04,168.287Zm0,5.43a1.629,1.629,0,1,1,1.629-1.629A1.631,1.631,0,0,1,272.04,173.717Z" transform="translate(-268.239 -168.287)"/>
    </g>
  </g>
  <g id="Group_34" data-name="Group 34" transform="translate(23.606 20.691)">
    <g id="Group_33" data-name="Group 33">
      <path id="Path_13" data-name="Path 13" d="M216.073,270.125l-5.647-5.647a1.086,1.086,0,1,0-1.536,1.536l5.647,5.647a1.086,1.086,0,0,0,1.536-1.536Z" transform="translate(-208.573 -264.16)"/>
    </g>
  </g>
  <g id="Group_36" data-name="Group 36" transform="translate(20.881 17.902)">
    <g id="Group_35" data-name="Group 35">
      <path id="Path_14" data-name="Path 14" d="M187.8,241.856l-.326-.326a1.086,1.086,0,0,0-1.536,1.536l.326.326a1.086,1.086,0,0,0,1.536-1.536Z" transform="translate(-185.624 -241.212)"/>
    </g>
  </g>
</svg>
