<svg id="photo-camera" xmlns="http://www.w3.org/2000/svg" width="54.514" height="38.008" viewBox="0 0 54.514 38.008">
  <g id="Group_16" data-name="Group 16" transform="translate(0 0)">
    <g id="Group_15" data-name="Group 15">
      <path id="Path_4" data-name="Path 4" d="M53.428,82.292H15.637V78.6a1.086,1.086,0,0,0-1.086-1.086H5.212A1.086,1.086,0,0,0,4.127,78.6v3.692H1.086A1.086,1.086,0,0,0,0,83.378v31.058a1.086,1.086,0,0,0,1.086,1.086H53.428a1.086,1.086,0,0,0,1.086-1.086V83.378A1.086,1.086,0,0,0,53.428,82.292ZM6.3,79.686h7.167v2.606H6.3ZM52.342,113.35H2.172V84.464h50.17V113.35Z" transform="translate(0 -77.514)"/>
    </g>
  </g>
  <g id="Group_18" data-name="Group 18" transform="translate(14.443 8.579)">
    <g id="Group_17" data-name="Group 17">
      <path id="Path_5" data-name="Path 5" d="M148.463,158.088A12.814,12.814,0,1,0,161.277,170.9,12.829,12.829,0,0,0,148.463,158.088Zm0,23.456A10.642,10.642,0,1,1,159.105,170.9,10.654,10.654,0,0,1,148.463,181.544Z" transform="translate(-135.649 -158.088)"/>
    </g>
  </g>
  <g id="Group_20" data-name="Group 20" transform="translate(17.809 11.945)">
    <g id="Group_19" data-name="Group 19">
      <path id="Path_6" data-name="Path 6" d="M176.715,189.705a9.448,9.448,0,1,0,9.448,9.448A9.458,9.458,0,0,0,176.715,189.705Zm0,16.723a7.276,7.276,0,1,1,7.276-7.276A7.284,7.284,0,0,1,176.715,206.428Z" transform="translate(-167.267 -189.705)"/>
    </g>
  </g>
  <g id="Group_22" data-name="Group 22" transform="translate(40.505 8.687)">
    <g id="Group_21" data-name="Group 21">
      <path id="Path_7" data-name="Path 7" d="M389.661,159.108h-8.144a1.086,1.086,0,0,0-1.086,1.086v4.235a1.086,1.086,0,0,0,1.086,1.086h8.144a1.086,1.086,0,0,0,1.086-1.086v-4.235A1.086,1.086,0,0,0,389.661,159.108Zm-1.086,4.235H382.6V161.28h5.973Z" transform="translate(-380.431 -159.108)"/>
    </g>
  </g>
  <g id="Group_24" data-name="Group 24" transform="translate(4.235 9.448)">
    <g id="Group_23" data-name="Group 23">
      <path id="Path_8" data-name="Path 8" d="M40.863,166.247a1.086,1.086,0,0,0-1.086,1.086V182.97a1.086,1.086,0,1,0,2.172,0V167.333A1.086,1.086,0,0,0,40.863,166.247Z" transform="translate(-39.777 -166.247)"/>
    </g>
  </g>
  <g id="Group_26" data-name="Group 26" transform="translate(4.235 29.211)">
    <g id="Group_25" data-name="Group 25">
      <path id="Path_9" data-name="Path 9" d="M40.863,351.872a1.086,1.086,0,0,0-1.086,1.086v1.3a1.086,1.086,0,1,0,2.172,0v-1.3A1.086,1.086,0,0,0,40.863,351.872Z" transform="translate(-39.777 -351.872)"/>
    </g>
  </g>
</svg>
