<svg id="video-camera" xmlns="http://www.w3.org/2000/svg" width="69.869" height="38" viewBox="0 0 69.869 38">
  <g id="Group_38" data-name="Group 38" transform="translate(0 0)">
    <g id="Group_37" data-name="Group 37">
      <path id="Path_15" data-name="Path 15" d="M68.477,118.242H64.728a1.392,1.392,0,0,0-1.392,1.392v.885H46.182a5.75,5.75,0,0,0-5.744,5.744v3.228H35.456v-.059a10,10,0,0,0-9.984-9.984H18.049v-1.286a1.392,1.392,0,0,0-1.392-1.392H6.346a4.2,4.2,0,0,0,0,8.408H16.657a1.392,1.392,0,0,0,1.392-1.392v-1.554h7.423a7.208,7.208,0,0,1,7.2,7.2v.059H15.452a1.392,1.392,0,0,0-1.392,1.392v2.741L6.5,131.24a1.389,1.389,0,0,0-.334-.061h0L1.474,130.9A1.392,1.392,0,0,0,0,132.289v19.625a1.392,1.392,0,0,0,1.392,1.392l.083,0,4.687-.278h0a1.4,1.4,0,0,0,.325-.059l7.57-2.34v2.752a1.392,1.392,0,0,0,1.392,1.392H56.158a1.392,1.392,0,0,0,1.392-1.392V127.936a.081.081,0,0,1,.081-.081h5.705v.885a1.392,1.392,0,0,0,1.392,1.392h3.749a1.392,1.392,0,0,0,1.392-1.392v-9.105A1.392,1.392,0,0,0,68.477,118.242Zm-53.212,4.151H6.346a1.42,1.42,0,0,1,0-2.84h8.919ZM4.687,150.324l-1.9.113V133.766l1.9.113Zm9.373-2.612-6.59,2.036V134.465l6.59,2.075ZM45.8,151.985H25.809v-9.8H45.8v9.8Zm8.965,0H48.585v-11.2a1.392,1.392,0,0,0-1.392-1.392H24.417a1.392,1.392,0,0,0-1.392,1.392v11.2H16.843V132.273H54.766v19.712Zm8.57-26.915H57.631a2.868,2.868,0,0,0-2.865,2.865v1.554H43.222v-3.228a2.963,2.963,0,0,1,2.96-2.96H63.336Zm3.749,2.276H66.12v-6.322h.966Z" transform="translate(0 -116.769)"/>
    </g>
  </g>
  <g id="Group_40" data-name="Group 40" transform="translate(41.357 27.246)">
    <g id="Group_39" data-name="Group 39">
      <path id="Path_16" data-name="Path 16" d="M301.3,313.016h-.356a1.086,1.086,0,0,0,0,2.172h.356a1.086,1.086,0,1,0,0-2.172Z" transform="translate(-299.857 -313.016)"/>
    </g>
  </g>
  <g id="Group_42" data-name="Group 42" transform="translate(28.799 27.246)">
    <g id="Group_41" data-name="Group 41">
      <path id="Path_17" data-name="Path 17" d="M210.151,313.016h-6.93a1.086,1.086,0,1,0,0,2.172h6.93a1.086,1.086,0,0,0,0-2.172Z" transform="translate(-202.135 -313.016)"/>
    </g>
  </g>
  <g id="Group_44" data-name="Group 44" transform="translate(18.664 17.059)">
    <g id="Group_43" data-name="Group 43">
      <path id="Path_18" data-name="Path 18" d="M136.6,239.424a1.19,1.19,0,1,0,1.19,1.19A1.192,1.192,0,0,0,136.6,239.424Z" transform="translate(-135.412 -239.424)"/>
    </g>
  </g>
  <g id="Group_46" data-name="Group 46" transform="translate(23.533 17.059)">
    <g id="Group_45" data-name="Group 45">
      <path id="Path_19" data-name="Path 19" d="M171.926,239.424a1.19,1.19,0,1,0,1.19,1.19A1.192,1.192,0,0,0,171.926,239.424Z" transform="translate(-170.736 -239.424)"/>
    </g>
  </g>
</svg>
