<svg xmlns="http://www.w3.org/2000/svg" width="66" height="66" viewBox="0 0 66 66"><g transform="translate(0.5 0.5)"><path d="M42.6,4.629V60.371A4.129,4.129,0,0,1,38.468,64.5H11.629A4.129,4.129,0,0,1,7.5,60.371V4.629A4.129,4.129,0,0,1,11.629.5H38.468A4.129,4.129,0,0,1,42.6,4.629Z" transform="translate(7.452)" fill="none"/><path d="M46.726,10.823V4.629M14.726.5h-3.1A4.129,4.129,0,0,0,7.5,4.629V60.371A4.129,4.129,0,0,0,11.629,64.5H38.468A4.129,4.129,0,0,0,42.6,60.371V4.629A4.129,4.129,0,0,0,38.468.5h-3.1M14.726.5H35.371M14.726.5a4.129,4.129,0,0,0,4.129,4.129H31.242A4.129,4.129,0,0,0,35.371.5" transform="translate(7.452)" fill="none" stroke="#6e99ac" stroke-linecap="round" stroke-linejoin="round" stroke-width="2"/><path d="M16.5,10.629A4.129,4.129,0,0,1,20.629,6.5h22.71a4.129,4.129,0,0,1,4.129,4.129V27.145L43.76,23.921a4.129,4.129,0,0,0-2.579-.9H20.629A4.129,4.129,0,0,1,16.5,18.887Z" transform="translate(17.032 6.387)" fill="#f8faff"/><path d="M31.468,18.629A4.129,4.129,0,0,0,27.339,14.5H4.629A4.129,4.129,0,0,0,.5,18.629V35.145l3.708-3.224a4.129,4.129,0,0,1,2.579-.9H27.339a4.129,4.129,0,0,0,4.129-4.129Z" transform="translate(0 14.903)" fill="#f8faff"/><path d="M16.5,10.629A4.129,4.129,0,0,1,20.629,6.5h22.71a4.129,4.129,0,0,1,4.129,4.129V27.145L43.76,23.921a4.129,4.129,0,0,0-2.579-.9H20.629A4.129,4.129,0,0,1,16.5,18.887Z" transform="translate(17.032 6.387)" fill="none" stroke="#6e99ac" stroke-linejoin="round" stroke-width="2"/><path d="M31.468,18.629A4.129,4.129,0,0,0,27.339,14.5H4.629A4.129,4.129,0,0,0,.5,18.629V35.145l3.708-3.224a4.129,4.129,0,0,1,2.579-.9H27.339a4.129,4.129,0,0,0,4.129-4.129Z" transform="translate(0 14.903)" fill="none" stroke="#6e99ac" stroke-linejoin="round" stroke-width="2"/><path d="M10,29.065A1.934,1.934,0,0,1,11.77,27H33a2.089,2.089,0,0,1,0,4.129H11.77A1.934,1.934,0,0,1,10,29.065Z" transform="translate(10.113 28.21)" fill="#6e99ac"/><path d="M39.645,10.032A1.032,1.032,0,0,0,38.613,9H20.032a1.032,1.032,0,1,0,0,2.065H38.613A1.032,1.032,0,0,0,39.645,10.032Z" transform="translate(19.694 9.048)" fill="#6e99ac"/><path d="M39.645,12.032A1.032,1.032,0,0,0,38.613,11H20.032a1.032,1.032,0,1,0,0,2.065H38.613A1.032,1.032,0,0,0,39.645,12.032Z" transform="translate(19.694 11.177)" fill="#6e99ac"/><path d="M3,18.032A1.032,1.032,0,0,1,4.032,17H22.613a1.032,1.032,0,0,1,0,2.065H4.032A1.032,1.032,0,0,1,3,18.032Z" transform="translate(2.661 17.565)" fill="#6e99ac"/><path d="M3,20.032A1.032,1.032,0,0,1,4.032,19H22.613a1.032,1.032,0,0,1,0,2.065H4.032A1.032,1.032,0,0,1,3,20.032Z" transform="translate(2.661 19.694)" fill="#6e99ac"/></g></svg>