<svg xmlns="http://www.w3.org/2000/svg" width="64.867" height="67" viewBox="0 0 64.867 67"><g transform="translate(0 1)"><path d="M4.433,1.5h56a2.933,2.933,0,0,1,2.933,2.933v56a2.933,2.933,0,0,1-2.933,2.933h-56A2.933,2.933,0,0,1,1.5,60.434v-56A2.933,2.933,0,0,1,4.433,1.5Z" transform="translate(0 1.133)" fill="none" stroke="#6e99ac" stroke-width="3"/><path d="M9.267,15.133A2.133,2.133,0,1,1,7.133,13,2.133,2.133,0,0,1,9.267,15.133Z" transform="translate(3.967 14.167)" fill="#6e99ac"/><path d="M21.267,23.133A2.133,2.133,0,1,1,19.133,21,2.133,2.133,0,0,1,21.267,23.133Z" transform="translate(17.567 23.233)" fill="#6e99ac"/><path d="M9.267,19.133A2.133,2.133,0,1,1,7.133,17,2.133,2.133,0,0,1,9.267,19.133Z" transform="translate(3.967 18.7)" fill="#6e99ac"/><path d="M9.267,23.133A2.133,2.133,0,1,1,7.133,21,2.133,2.133,0,0,1,9.267,23.133Z" transform="translate(3.967 23.233)" fill="#6e99ac"/><path d="M9.267,27.133A2.133,2.133,0,1,1,7.133,25,2.133,2.133,0,0,1,9.267,27.133Z" transform="translate(3.967 27.767)" fill="#6e99ac"/><path d="M13.267,15.133A2.133,2.133,0,1,1,11.133,13,2.133,2.133,0,0,1,13.267,15.133Z" transform="translate(8.5 14.167)" fill="#6e99ac"/><path d="M13.267,19.133A2.133,2.133,0,1,1,11.133,17,2.133,2.133,0,0,1,13.267,19.133Z" transform="translate(8.5 18.7)" fill="#6e99ac"/><path d="M13.267,23.133A2.133,2.133,0,1,1,11.133,21,2.133,2.133,0,0,1,13.267,23.133Z" transform="translate(8.5 23.233)" fill="#6e99ac"/><path d="M13.267,27.133A2.133,2.133,0,1,1,11.133,25,2.133,2.133,0,0,1,13.267,27.133Z" transform="translate(8.5 27.767)" fill="#6e99ac"/><path d="M17.267,15.133A2.133,2.133,0,1,1,15.133,13,2.133,2.133,0,0,1,17.267,15.133Z" transform="translate(13.034 14.167)" fill="#6e99ac"/><path d="M17.267,19.133A2.133,2.133,0,1,1,15.133,17,2.133,2.133,0,0,1,17.267,19.133Z" transform="translate(13.034 18.7)" fill="#6e99ac"/><path d="M17.267,23.133A2.133,2.133,0,1,1,15.133,21,2.133,2.133,0,0,1,17.267,23.133Z" transform="translate(13.034 23.233)" fill="#6e99ac"/><path d="M17.267,27.133A2.133,2.133,0,1,1,15.133,25,2.133,2.133,0,0,1,17.267,27.133Z" transform="translate(13.034 27.767)" fill="#6e99ac"/><path d="M21.267,15.133A2.133,2.133,0,1,1,19.133,13,2.133,2.133,0,0,1,21.267,15.133Z" transform="translate(17.567 14.167)" fill="#6e99ac"/><path d="M21.267,19.133A2.133,2.133,0,1,1,19.133,17,2.133,2.133,0,0,1,21.267,19.133Z" transform="translate(17.567 18.7)" fill="#6e99ac"/><path d="M21.267,27.133A2.133,2.133,0,1,1,19.133,25,2.133,2.133,0,0,1,21.267,27.133Z" transform="translate(17.567 27.767)" fill="#6e99ac"/><path d="M25.267,15.133A2.133,2.133,0,1,1,23.133,13,2.133,2.133,0,0,1,25.267,15.133Z" transform="translate(22.101 14.167)" fill="#6e99ac"/><path d="M25.267,19.133A2.133,2.133,0,1,1,23.133,17,2.133,2.133,0,0,1,25.267,19.133Z" transform="translate(22.101 18.7)" fill="#6e99ac"/><path d="M25.267,23.133A2.133,2.133,0,1,1,23.133,21,2.133,2.133,0,0,1,25.267,23.133Z" transform="translate(22.101 23.233)" fill="#6e99ac"/><path d="M25.267,27.133A2.133,2.133,0,1,1,23.133,25,2.133,2.133,0,0,1,25.267,27.133Z" transform="translate(22.101 27.767)" fill="#6e99ac"/><path d="M29.267,15.133A2.133,2.133,0,1,1,27.133,13,2.133,2.133,0,0,1,29.267,15.133Z" transform="translate(26.634 14.167)" fill="#6e99ac"/><path d="M29.267,19.133A2.133,2.133,0,1,1,27.133,17,2.133,2.133,0,0,1,29.267,19.133Z" transform="translate(26.634 18.7)" fill="#6e99ac"/><path d="M29.267,23.133A2.133,2.133,0,1,1,27.133,21,2.133,2.133,0,0,1,29.267,23.133Z" transform="translate(26.634 23.233)" fill="#6e99ac"/><path d="M29.267,27.133A2.133,2.133,0,1,1,27.133,25,2.133,2.133,0,0,1,29.267,27.133Z" transform="translate(26.634 27.767)" fill="#6e99ac"/><path d="M5.5,11.167H50.3m-34,6.4H39.5M48.167.5V4.767M43.9.5V4.767M11.9.5V4.767M7.633.5V4.767" transform="translate(4.533)" fill="none" stroke="#6e99ac" stroke-linecap="round" stroke-linejoin="round" stroke-width="3"/></g></svg>