<svg xmlns="http://www.w3.org/2000/svg" width="65.806" height="65" viewBox="0 0 65.806 65"><g transform="translate(0.911)"><path d="M14,13.016a1.016,1.016,0,1,1,2.032,0V33.333a1.016,1.016,0,0,1-2.032,0Z" transform="translate(13.929 12.381)" fill="#6e99ac"/><path d="M17,13.016a1.016,1.016,0,1,1,2.032,0V33.333a1.016,1.016,0,0,1-2.032,0Z" transform="translate(17.024 12.381)" fill="#6e99ac"/><path d="M16.738,46.1l1.011-.1,0-.038-.006-.037Zm-.44-2.574-1.011.1,0,.037.006.037Zm-1.886-3.165.6-.817Zm25.021,3.165,1,.171.007-.037,0-.037Zm-.44,2.574-1-.171-.006.037,0,.038Zm2.327-5.738.6.817h0ZM19.738,56.889a1.016,1.016,0,1,0,0,2.032Zm16.254,2.032a1.016,1.016,0,0,0,0-2.032Zm-16.254-6.1a1.016,1.016,0,1,0,0,2.032Zm16.254,2.032a1.016,1.016,0,0,0,0-2.032ZM6.532,22.892A21.1,21.1,0,0,1,27.865,2.032V0A23.132,23.132,0,0,0,4.5,22.892ZM27.865,2.032A21.1,21.1,0,0,1,49.2,22.892H51.23A23.132,23.132,0,0,0,27.865,0Zm7.082,46.73H20.783v2.032H34.947ZM17.739,45.93l-.44-2.574-2,.343.44,2.574Zm-2.724-6.384A20.676,20.676,0,0,1,6.532,22.892H4.5A22.708,22.708,0,0,0,13.808,41.18Zm23.416,3.81-.44,2.574,2,.343.44-2.574ZM49.2,22.892a20.676,20.676,0,0,1-8.484,16.653l1.208,1.634A22.708,22.708,0,0,0,51.23,22.892ZM40.444,43.624a3.513,3.513,0,0,1,1.479-2.444l-1.208-1.634a5.541,5.541,0,0,0-2.294,3.885Zm-23.135-.193a5.54,5.54,0,0,0-2.294-3.885L13.808,41.18a3.513,3.513,0,0,1,1.479,2.444Zm3.474,5.331A3.047,3.047,0,0,1,17.749,46l-2.023.193a5.079,5.079,0,0,0,5.056,4.6Zm14.164,2.032A5.079,5.079,0,0,0,40,46.2L37.981,46a3.047,3.047,0,0,1-3.034,2.757ZM19.738,58.921H35.992V56.889H19.738Zm0-4.063H35.992V52.825H19.738Z" transform="translate(4.127)" fill="#6e99ac"/><path d="M17.032,32.532A2.032,2.032,0,0,0,19.063,30.5H15A2.032,2.032,0,0,0,17.032,32.532Z" transform="translate(14.96 31.468)" fill="#a8abff"/><path d="M51.294,19.5l12.19,4.063m-16.254,0L63.484,37.786M12.69,19.5.5,23.563m16.254,0L.5,37.786m33.524,4.063a2.032,2.032,0,0,1-4.063,0Z" transform="translate(0 20.119)" fill="none" stroke="#6e99ac" stroke-linecap="round" stroke-linejoin="round" stroke-width="2"/></g></svg>