<svg xmlns="http://www.w3.org/2000/svg" width="90.622" height="90.623" viewBox="0 0 90.622 90.623"><g transform="translate(-1745 -1262)"><g transform="translate(1745 1262)"><path d="M47.205,72.509a3.693,3.693,0,1,1-.21-1.232A3.7,3.7,0,0,1,47.205,72.509Z" transform="translate(-2.907 -4.683)" fill="#fff"/><path d="M57.705,72.509a3.693,3.693,0,1,1-.21-1.232A3.7,3.7,0,0,1,57.705,72.509Z" transform="translate(-3.55 -4.683)" fill="#fff"/><path d="M39.446,77.337,39.9,77.2a.469.469,0,0,0-.449-.331Zm-.808-5.891v.469a.469.469,0,0,0,.465-.537ZM56,77.337v-.469a.469.469,0,0,0-.449.331Zm-3.129,4.656-.3-.36h0Zm3.937-10.547-.465-.067a.469.469,0,0,0,.465.537ZM29.933,91.032l-.224-.412-.017.009-.017.011Zm35.581,0,.258-.392-.017-.011-.017-.009ZM38.947,69.382a.469.469,0,1,0-.938.033Zm18.491.033a.469.469,0,1,0-.938-.033Zm-21.2,18.191.224.412Zm3.073-16.36-.443-.156Zm16.829,0,.443-.156ZM47.724,90.285l.007-.469ZM39,77.476a11,11,0,0,0,2.63,4.284,8.444,8.444,0,0,0,6.1,2.593v-.939A7.505,7.505,0,0,1,42.292,81.1a10.068,10.068,0,0,1-2.4-3.9Zm.449-.608a1.643,1.643,0,0,1-1.366-.73,3.582,3.582,0,0,1-.614-1.787,3.466,3.466,0,0,1,.271-1.776,1,1,0,0,1,.9-.66v-.939A1.932,1.932,0,0,0,36.9,72.158a4.392,4.392,0,0,0-.366,2.274,4.514,4.514,0,0,0,.793,2.263,2.579,2.579,0,0,0,2.122,1.111Zm16.106.331a10.012,10.012,0,0,1-2.982,4.435l.6.72a10.947,10.947,0,0,0,3.277-4.878ZM52.57,81.634a7.388,7.388,0,0,1-4.847,1.78v.939a8.326,8.326,0,0,0,5.449-2ZM56,77.807A2.579,2.579,0,0,0,58.123,76.7a4.514,4.514,0,0,0,.793-2.263,4.392,4.392,0,0,0-.366-2.274,1.932,1.932,0,0,0-1.742-1.181v.939a1,1,0,0,1,.9.66,3.466,3.466,0,0,1,.271,1.776,3.582,3.582,0,0,1-.614,1.787,1.643,1.643,0,0,1-1.366.73ZM29.675,90.64a3.481,3.481,0,0,0-1.519,2.915h.939a2.544,2.544,0,0,1,1.1-2.131Zm12.9-8.646-.451-.132h0v0l-.005.017-.022.071c-.02.063-.051.155-.092.269-.081.228-.2.54-.36.875a4.323,4.323,0,0,1-1.269,1.725l.516.784a5.2,5.2,0,0,0,1.6-2.11c.173-.369.305-.709.394-.958.044-.124.078-.227.1-.3l.026-.084.007-.023,0-.007v0h0Zm12.013,3.634,10.7,5.816.448-.825L55.037,84.8Zm10.667,5.8a2.544,2.544,0,0,1,1.1,2.131h.939a3.481,3.481,0,0,0-1.519-2.915Zm-12.384-9.43-.451.132h0v0l0,.007.007.023.026.084c.023.072.057.174.1.3.089.248.221.589.394.958a5.2,5.2,0,0,0,1.6,2.11l.516-.784A4.323,4.323,0,0,1,53.8,83.1c-.157-.335-.278-.646-.36-.875-.041-.114-.071-.206-.092-.269l-.022-.071-.005-.017v0h0ZM38.639,71.446l.465-.067h0v-.006l0-.025c0-.023-.008-.057-.013-.1-.011-.091-.027-.227-.044-.4-.034-.349-.073-.851-.095-1.461l-.938.033c.022.632.063,1.154.1,1.519.018.183.034.326.046.425.006.049.011.087.015.114l0,.03v.011h0Zm18.17,0,.465.067h0V71.5l0-.03c0-.026.008-.064.015-.114.012-.1.029-.242.046-.425.036-.365.077-.887.1-1.519l-.938-.033c-.021.61-.061,1.112-.095,1.461-.017.174-.033.31-.044.4-.006.046-.01.08-.013.1l0,.025v.006h0ZM40.386,85.614c2.661,1.66,4.845,2.565,7.135,2.581s4.6-.857,7.529-2.574l-.475-.81c-2.875,1.687-5.013,2.459-7.047,2.445s-4.036-.811-6.645-2.438Zm.024-.811-4.4,2.39.448.825,4.4-2.39Zm-4.4,2.39-6.3,3.426.448.825,6.3-3.426Zm10.01-14.715A3.227,3.227,0,0,1,42.8,75.705v.939a4.166,4.166,0,0,0,4.166-4.166ZM42.8,75.705a3.227,3.227,0,0,1-3.227-3.227h-.939A4.166,4.166,0,0,0,42.8,76.644Zm13.084-3.227a3.227,3.227,0,0,1-3.227,3.227v.939a4.166,4.166,0,0,0,4.166-4.166Zm-3.227,3.227a3.227,3.227,0,0,1-3.227-3.227h-.939a4.166,4.166,0,0,0,4.166,4.166ZM42.8,69.251A3.229,3.229,0,0,1,45.839,71.4l.885-.313A4.167,4.167,0,0,0,42.8,68.313ZM45.839,71.4a3.22,3.22,0,0,1,.184,1.076h.939a4.161,4.161,0,0,0-.237-1.389Zm3.587,1.076a3.22,3.22,0,0,1,.184-1.076l-.885-.313a4.161,4.161,0,0,0-.237,1.389Zm.184-1.076a3.229,3.229,0,0,1,3.044-2.151v-.939a4.167,4.167,0,0,0-3.929,2.777Zm-3.328.313h2.885v-.939H46.281Zm-6.713.763a3.22,3.22,0,0,1,.184-1.076l-.885-.313a4.161,4.161,0,0,0-.237,1.389Zm.184-1.076A3.229,3.229,0,0,1,42.8,69.251v-.939a4.167,4.167,0,0,0-3.929,2.777Zm12.9-2.151A3.229,3.229,0,0,1,55.7,71.4l.885-.313a4.167,4.167,0,0,0-3.929-2.777ZM55.7,71.4a3.22,3.22,0,0,1,.184,1.076h.939a4.161,4.161,0,0,0-.237-1.389ZM37.712,87.019a16.9,16.9,0,0,0,10,3.735l.015-.939a15.965,15.965,0,0,1-9.445-3.539Zm10,3.735a12.538,12.538,0,0,0,9.6-4.049l-.692-.634a11.6,11.6,0,0,1-8.892,3.745Zm-.462-.469v3.27h.939v-3.27Z" transform="translate(-2.193 -4.652)" fill="#6e99ac"/><path d="M1,2.878V28.225A1.878,1.878,0,0,0,2.878,30.1H50.755a1.878,1.878,0,0,0,1.878-1.878V2.878A1.878,1.878,0,0,0,50.755,1H2.878A1.878,1.878,0,0,0,1,2.878Z" transform="translate(-0.531 -0.531)" fill="#6e99ac"/><path d="M85.541,91.225H78.5V64h7.041Z" transform="translate(-5.276 -4.388)" fill="#6e99ac" stroke="#6e99ac" stroke-width="1"/><path d="M19.51,52.8a.939.939,0,0,1,.939-.939H46.735V42h-33.8a.939.939,0,0,0-.939.939V89.878h7.51Z" transform="translate(-1.204 -3.041)" fill="#6e99ac" stroke="#6e99ac" stroke-width="1"/><path d="M37.844,68.746s0-11.089,10.473-11.089v4.078a2.039,2.039,0,0,0,1.408,1.878h3.407c-1.126,1.98-2.712,3.365-7.02,4.58V64.31A12.522,12.522,0,0,1,37.844,68.746Z" transform="translate(-2.786 -3.999)" fill="#6e99ac"/><path d="M56,35.878v1.878a1.878,1.878,0,0,0,1.878,1.878H86.041a1.878,1.878,0,0,0,1.878-1.878V35.878A1.878,1.878,0,0,0,86.041,34H57.878A1.878,1.878,0,0,0,56,35.878Z" transform="translate(-3.898 -2.551)" fill="#6e99ac"/><path d="M56.939,45.878H86.98a.939.939,0,0,0,0-1.878H56.939a.939.939,0,0,0,0,1.878Z" transform="translate(-3.898 -3.163)" fill="#6e99ac"/><path d="M56.939,49.878H86.98a.939.939,0,0,0,0-1.878H56.939a.939.939,0,1,0,0,1.878Z" transform="translate(-3.898 -3.408)" fill="#6e99ac"/><path d="M56.939,53.878H86.98a.939.939,0,1,0,0-1.878H56.939a.939.939,0,0,0,0,1.878Z" transform="translate(-3.898 -3.653)" fill="#6e99ac"/><path d="M56.939,57.878H86.98a.939.939,0,1,0,0-1.878H56.939a.939.939,0,0,0,0,1.878Z" transform="translate(-3.898 -3.898)" fill="#6e99ac"/><path d="M59.9,68.58c-2.519,0-3.359-1.952-3.921-4.58h2.925A13.231,13.231,0,0,1,59.9,68.58Z" transform="translate(-3.897 -4.388)" fill="#6e99ac"/><path d="M73.724,87.337h-.469v.469h.469Zm7.041,0v.469h.469v-.469Zm-61.959,0v.469h.469v-.469Zm-7.51,0h-.469v.469H11.3Zm34.735-33.18H46.5a.469.469,0,0,0-.469-.469ZM35.557,65.246h-.469a.469.469,0,0,0,.53.466Zm8.269-4.436H44.3a.469.469,0,0,0-.812-.321Zm0,3.881h-.469a.469.469,0,0,0,.6.452Zm2.2-25.232H46.5V38.99h-.469Zm0,9.857v.469H46.5v-.469Zm27.694,10.8v-.469h-.469v.469Zm7.041,0h.469v-.469h-.469Zm-33.326,0-.148.445.072.024h.076Zm3.407,0,.408.232.4-.7h-.807Zm1.737,0v-.469H52l.121.567Zm3.921,4.58v.469a.469.469,0,0,0,.469-.469Zm-1-4.58.433-.181-.12-.289h-.313ZM1.439,28.194V2.847H.5V28.194Zm0-25.347A1.408,1.408,0,0,1,2.847,1.439V.5A2.347,2.347,0,0,0,.5,2.847ZM2.847,1.439H50.724V.5H2.847Zm47.877,0a1.408,1.408,0,0,1,1.408,1.408h.939A2.347,2.347,0,0,0,50.724.5Zm1.408,1.408V28.194h.939V2.847Zm0,25.347A1.408,1.408,0,0,1,50.724,29.6v.939a2.347,2.347,0,0,0,2.347-2.347ZM50.724,29.6H2.847v.939H50.724Zm-47.877,0a1.408,1.408,0,0,1-1.408-1.408H.5a2.347,2.347,0,0,0,2.347,2.347Zm70.877,58.2h7.041v-.939H73.724ZM19.745,48.847a1.408,1.408,0,0,0-1.408,1.408h.939a.469.469,0,0,1,.469-.469Zm-1.408,1.408V87.337h.939V50.255ZM11.3,87.806h7.51v-.939H11.3ZM10.827,40.4V87.337h.939V40.4Zm1.408-1.408A1.408,1.408,0,0,0,10.827,40.4h.939a.469.469,0,0,1,.469-.469Zm33.8,14.7a10.68,10.68,0,0,0-6.325,1.819,10.07,10.07,0,0,0-3.263,4,14.678,14.678,0,0,0-1.185,3.939c-.084.535-.127.983-.148,1.3-.011.158-.016.282-.019.369,0,.043,0,.077,0,.1s0,.021,0,.027v.01h.939v0s0-.011,0-.02,0-.047,0-.085c0-.076.007-.19.017-.335.02-.291.059-.711.139-1.215A13.748,13.748,0,0,1,37.291,59.9a9.134,9.134,0,0,1,2.956-3.629,9.747,9.747,0,0,1,5.784-1.647ZM35.618,65.712a12.986,12.986,0,0,0,8.551-4.58l-.685-.642A12.058,12.058,0,0,1,35.5,64.781Zm7.739-4.9v3.881H44.3V60.81ZM53.071,35.7V33.827h-.939V35.7Zm0-1.878a1.408,1.408,0,0,1,1.408-1.408V31.48a2.347,2.347,0,0,0-2.347,2.347Zm1.408-1.408H82.643V31.48H54.48Zm28.163,0a1.408,1.408,0,0,1,1.408,1.408h.939a2.347,2.347,0,0,0-2.347-2.347Zm1.408,1.408V35.7h.939V33.827Zm0,1.878a1.408,1.408,0,0,1-1.408,1.408v.939A2.347,2.347,0,0,0,84.99,35.7Zm-1.408,1.408H54.48v.939H82.643Zm-28.163,0A1.408,1.408,0,0,1,53.071,35.7h-.939a2.347,2.347,0,0,0,2.347,2.347Zm29.1,5.633H53.541v.939H83.582Zm-30.041,0a.469.469,0,0,1-.469-.469h-.939a1.408,1.408,0,0,0,1.408,1.408Zm-.469-.469a.469.469,0,0,1,.469-.469v-.939a1.408,1.408,0,0,0-1.408,1.408Zm.469-.469H83.582v-.939H53.541Zm30.041,0a.469.469,0,0,1,.469.469h.939a1.408,1.408,0,0,0-1.408-1.408Zm.469.469a.469.469,0,0,1-.469.469v.939a1.408,1.408,0,0,0,1.408-1.408ZM83.582,46.5H53.541v.939H83.582Zm-30.041,0a.469.469,0,0,1-.469-.469h-.939a1.408,1.408,0,0,0,1.408,1.408Zm-.469-.469a.469.469,0,0,1,.469-.469v-.939a1.408,1.408,0,0,0-1.408,1.408Zm.469-.469H83.582v-.939H53.541Zm30.041,0a.469.469,0,0,1,.469.469h.939a1.408,1.408,0,0,0-1.408-1.408Zm.469.469a.469.469,0,0,1-.469.469v.939a1.408,1.408,0,0,0,1.408-1.408Zm-.469,4.224H53.541v.939H83.582Zm-30.041,0a.469.469,0,0,1-.469-.469h-.939a1.408,1.408,0,0,0,1.408,1.408Zm-.469-.469a.469.469,0,0,1,.469-.469v-.939a1.408,1.408,0,0,0-1.408,1.408Zm.469-.469H83.582v-.939H53.541Zm30.041,0a.469.469,0,0,1,.469.469h.939a1.408,1.408,0,0,0-1.408-1.408Zm.469.469a.469.469,0,0,1-.469.469v.939a1.408,1.408,0,0,0,1.408-1.408Zm-.469,4.224H53.541v.939H83.582Zm-30.041,0a.469.469,0,0,1-.469-.469h-.939a1.408,1.408,0,0,0,1.408,1.408Zm-.469-.469a.469.469,0,0,1,.469-.469v-.939a1.408,1.408,0,0,0-1.408,1.408Zm.469-.469H83.582v-.939H53.541Zm30.041,0a.469.469,0,0,1,.469.469h.939a1.408,1.408,0,0,0-1.408-1.408Zm.469.469a.469.469,0,0,1-.469.469v.939a1.408,1.408,0,0,0,1.408-1.408ZM46.031,38.99h-33.8v.939h33.8Zm0,9.857H19.745v.939H46.031Zm-.469-9.388v9.857H46.5V39.459ZM74.194,87.337V60.112h-.939V87.337Zm7.041,0V60.112H80.3V87.337Zm-7.51-26.755h7.041v-.939H73.724ZM45.561,54.157v4.078H46.5V54.157Zm0,4.078a2.508,2.508,0,0,0,1.729,2.323l.3-.891A1.57,1.57,0,0,1,46.5,58.235Zm-1.608,6.909A16.109,16.109,0,0,0,48.8,63.075a7.909,7.909,0,0,0,2.457-2.731l-.816-.464A6.972,6.972,0,0,1,48.262,62.3,15.21,15.21,0,0,1,43.7,64.24Zm3.485-4.562h3.407v-.939H47.439Zm4.685-.371a9.173,9.173,0,0,0,1.306,3.454,3.566,3.566,0,0,0,3.073,1.5v-.939a2.632,2.632,0,0,1-2.315-1.111,8.3,8.3,0,0,1-1.147-3.1Zm4.38,4.481h.469v-.009c0-.005,0-.013,0-.022s0-.046,0-.081c0-.07-.006-.17-.014-.3-.016-.254-.049-.616-.113-1.053a13.909,13.909,0,0,0-.9-3.3l-.866.361a12.97,12.97,0,0,1,.84,3.072c.06.409.09.745.1.977.007.116.011.206.013.265,0,.03,0,.052,0,.066s0,.012,0,.015v0H56.5Zm-3.921-4.11h2.925v-.939H52.583Z" transform="translate(-0.5 -0.5)" fill="#6e99ac"/><circle cx="1.232" cy="1.232" r="1.232" transform="translate(39.37 66.594)" fill="#6e99ac"/><path d="M1.232,0A1.232,1.232,0,1,1,0,1.232,1.232,1.232,0,0,1,1.232,0Z" transform="translate(49.227 66.594)" fill="#6e99ac"/><path d="M7.6,93.043H90.162a.469.469,0,0,1,.469.469v.9a1.878,1.878,0,0,1-1.878,1.878H3.326a1.878,1.878,0,0,1-1.878-1.878v-.9a.469.469,0,0,1,.469-.469Z" transform="translate(-0.558 -6.166)" fill="#fff" stroke="#000577" stroke-width="1"/><path d="M84.481,89.06H7.6m76.882,0h5.681a.469.469,0,0,1,.469.469v.9a1.878,1.878,0,0,1-1.878,1.878H3.326a1.878,1.878,0,0,1-1.878-1.878v-.9a.469.469,0,0,1,.469-.469H7.6m76.882,0V61.8M7.6,89.06V39.735a1.878,1.878,0,0,1,1.878-1.878H46.04m.049-5.633V59.918A1.878,1.878,0,0,0,47.966,61.8H88.8a1.878,1.878,0,0,0,1.878-1.878V29.878A1.878,1.878,0,0,0,88.8,28H53.129" transform="translate(-0.558 -2.184)" fill="none" stroke="#6e99ac" stroke-width="1"/><path d="M1,7H52.633M5.694,27.653H19.775a1.878,1.878,0,0,0,1.878-1.878V11.694a1.878,1.878,0,0,0-1.878-1.878H5.694a1.878,1.878,0,0,0-1.878,1.878V25.776A1.878,1.878,0,0,0,5.694,27.653ZM27.755,14.51H48.408a1.408,1.408,0,0,0,0-2.816H27.755a1.408,1.408,0,1,0,0,2.816Zm0,5.633H48.408a1.408,1.408,0,1,0,0-2.816H27.755a1.408,1.408,0,1,0,0,2.816Zm0,5.633H48.408a1.408,1.408,0,0,0,0-2.816H27.755a1.408,1.408,0,1,0,0,2.816Z" transform="translate(-0.531 -0.898)" fill="none" stroke="#fff" stroke-width="1"/></g></g></svg>