<svg xmlns="http://www.w3.org/2000/svg" width="96.09" height="96" viewBox="0 0 96.09 96"><g transform="translate(-1320.41 -1883)"><path d="M202.11,1000.75h36.47a2.086,2.086,0,0,0,2.084-2.086V952.55l-7.088-7.088H202.11a2.084,2.084,0,0,0-2.084,2.084v51.118A2.086,2.086,0,0,0,202.11,1000.75Z" transform="translate(1166.5 959)" fill="#fff" stroke="#6e99ac" stroke-width="1"/><path d="M240.664,952.55h-5a2.084,2.084,0,0,1-2.084-2.084v-5m7.088,7.088v46.114a2.086,2.086,0,0,1-2.084,2.086H202.11a2.086,2.086,0,0,1-2.084-2.086V947.546a2.084,2.084,0,0,1,2.084-2.084h31.466m7.088,7.088-7.088-7.088" transform="translate(1166.5 959)" fill="none" stroke="#6e99ac" stroke-width="1"/><path d="M235.975,963.673v30.242m-3.126-30.242v30.242m-3.126-30.242v30.242M226.6,963.673v30.242m-3.126-30.242v30.242m-3.126-30.242v30.242m-3.126-30.242v30.242m-3.126-30.242v30.242m-3.126-30.242v30.242m-3.126-18.235v18.235m-3.126-30.242v30.242" transform="translate(1166.5 959)" fill="none" stroke="#6e99ac" stroke-linecap="round" stroke-linejoin="round" stroke-width="2"/><path d="M238.58,994.436H202.11" transform="translate(1166.5 959)" fill="none" stroke="#6e99ac" stroke-linecap="round" stroke-linejoin="round" stroke-width="1"/><path d="M210.946,989.286h36.47A2.084,2.084,0,0,0,249.5,987.2V941.088L242.412,934H210.946a2.084,2.084,0,0,0-2.084,2.084V987.2A2.084,2.084,0,0,0,210.946,989.286Z" transform="translate(1166.5 959)" fill="#fff" stroke="#6e99ac" stroke-width="1"/><path d="M249.5,941.088h-5A2.084,2.084,0,0,1,242.412,939v-5m7.088,7.088V987.2a2.084,2.084,0,0,1-2.084,2.084h-36.47a2.084,2.084,0,0,1-2.084-2.084V936.084A2.084,2.084,0,0,1,210.946,934h31.466m7.088,7.088L242.412,934" transform="translate(1166.5 959)" fill="none" stroke="#6e99ac" stroke-width="1"/><path d="M243.33,945.462H213.088" transform="translate(1166.5 959)" fill="none" stroke="#6e99ac" stroke-linecap="round" stroke-linejoin="round" stroke-width="2"/><path d="M222.95,980.89h-9.378" transform="translate(1166.5 959)" fill="none" stroke="#6e99ac" stroke-linecap="round" stroke-linejoin="round" stroke-width="2.084"/><path d="M227.118,976.722H213.572" transform="translate(1166.5 959)" fill="none" stroke="#6e99ac" stroke-linecap="round" stroke-linejoin="round" stroke-width="2.084"/><path d="M247.437,979.327l-3.126-8.336-1.042,5.21-3.126-14.588-2.084,7.294-2.084-7.294-2.084,10.42-2.084-13.546-2.084,6.252-4.168-14.588-2.084,18.756-3.126-9.378-2.084,5.21-5.21-10.42-2.084,6.252" transform="translate(1166.5 959)" fill="none" stroke="#6e99ac" stroke-linecap="round" stroke-linejoin="round" stroke-width="1"/><path d="M168.5,936c0,6.351-3.134,11.5-7,11.5s-7-5.149-7-11.5m14,0c0-6.351-3.134-11.5-7-11.5s-7,5.149-7,11.5m14,0h6m-20,0H180a11.5,11.5,0,0,1,11.5,11.5m-3-11.5c0,6.351-3.134,11.5-7,11.5s-7-5.149-7-11.5m14,0c0-6.351-3.134-11.5-7-11.5s-7,5.149-7,11.5m14,0H214a11.5,11.5,0,0,1,11.5,11.5" transform="translate(1166.5 959)" fill="none" stroke="#6e99ac" stroke-linecap="round" stroke-linejoin="round" stroke-width="1"/><path d="M220.272,971.719v1.77l-57.86,42.471c-2.667-15.14-8-45.657-8-46.6s1.231-1.574,1.847-1.77h16.114l1.736,2.949h44.934Z" transform="translate(1166.5 959)" fill="#6e99ac" stroke="#6e99ac" stroke-width="1"/><path d="M172.967,968.229A2.584,2.584,0,0,0,170.745,967H157.057a2.5,2.5,0,0,0-2.536,2.83l7.631,46.92a2.083,2.083,0,0,0,1.837,1.74l7.151.76m49.633-46.1a2.514,2.514,0,0,0-2.566-2.459H181.648" transform="translate(1166.5 959)" fill="none" stroke="#6e99ac" stroke-linecap="round" stroke-linejoin="round" stroke-width="1"/><path d="M229,1017.04V975.859a2.514,2.514,0,0,0-2.566-2.458H184.1a2.514,2.514,0,0,1-2.565-2.459,2.514,2.514,0,0,0-2.566-2.459h-14.11a2.514,2.514,0,0,0-2.566,2.459v46.478a2.082,2.082,0,0,0,2.084,2.08h62.054A2.514,2.514,0,0,0,229,1017.04Z" transform="translate(1166.5 959)" fill="#fff" stroke="#6e99ac" stroke-linecap="round" stroke-linejoin="round" stroke-width="1"/><rect width="17.959" height="9.835" rx="1.042" transform="translate(1391.015 1974.765) rotate(180)" fill="#6e99ac" stroke="#6e99ac" stroke-width="1"/></g></svg>