<svg xmlns="http://www.w3.org/2000/svg" width="76.135" height="88.067" viewBox="0 0 76.135 88.067"><g transform="translate(-3021 -2700)"><g transform="translate(3021 2700)"><path d="M50.775,83.012l-.024.461Zm-15.55-9.726.328-.324h0Zm-5.262-6.471.383-.257h0Zm-2.624-7.367.359.29h0Zm3.063-.382-.126.444h0Zm2.752,2.364.413-.206-.005-.01Zm13.5,12.347-.122.445.009,0ZM58.793,69.81l.293.356Zm.383-.264-.224-.4Zm5.161-1.272-.015.461h0Zm6.889,3.71a.461.461,0,1,0,.681-.623Zm-21.33-4.354.271.373ZM41.733,66.45l-.072.456h0Zm-7.159-2.475-.409.214h0Zm1.238-4.213-.065-.457Zm27.274,2.843.144-.438h0Zm24.45,16.453.343-.309Zm.639,1.812.459.044h0Zm-1.553,4.578.389.249h0Zm-6,4.374-.134-.442ZM77.671,88.3l.411-.21ZM73.73,83.484l.279-.368h0ZM47.242,82.59l.085-.453h0ZM20.063,62.176l-.411-.209v0Zm.64-.559.207.413h0ZM53.074,65.2a.461.461,0,0,0-.761-.523ZM46.65,69.09l-.042-.46ZM38.5,68.632a.461.461,0,1,0-.1.917Zm-4.7,9.174a.461.461,0,1,0,.435-.814ZM16.043,66.815l-.289.359h0Zm-1.631-2.522.456.074v0Zm1.631-1.558.152.436h0Zm3.872,1.611a.461.461,0,0,0,.634-.67Zm-3.6-1.89a.461.461,0,1,0,.905.181Zm1.7-1.662.21.411h0Zm2.7,1a.461.461,0,1,0,.685-.618ZM43.652,39.951a.461.461,0,0,0-.923,0Zm11.663,0a.461.461,0,0,0-.923,0ZM29.59,41.434a.461.461,0,0,0-.367-.847ZM13.319,47.48a.461.461,0,1,0,.367.847ZM25.584,34.037a.461.461,0,0,0,.224-.9Zm-12.5-4.076a.461.461,0,0,0-.224.9ZM67.761,40.588a.461.461,0,1,0-.367.847ZM83.3,48.326a.461.461,0,1,0,.367-.847ZM71.176,33.141a.461.461,0,0,0,.224.9Zm12.947-2.286a.461.461,0,0,0-.224-.9ZM50.956,82.588c-9.632-4.119-12.509-6.7-15.4-9.626l-.656.649c2.986,3.022,5.965,5.664,15.7,9.826Zm-15.4-9.626a45.44,45.44,0,0,1-5.207-6.4l-.767.513A46.357,46.357,0,0,0,34.9,73.611Zm-5.207-6.4a23.537,23.537,0,0,1-2.408-4.392,5.862,5.862,0,0,1-.408-1.593,1.179,1.179,0,0,1,.167-.835l-.717-.58a2.07,2.07,0,0,0-.37,1.483,6.752,6.752,0,0,0,.466,1.855,24.422,24.422,0,0,0,2.5,4.576ZM27.7,59.738a1.521,1.521,0,0,1,1.07-.387,4.687,4.687,0,0,1,1.508.159l.252-.888A5.609,5.609,0,0,0,28.7,58.43a2.39,2.39,0,0,0-1.725.727Zm2.578-.228a4.271,4.271,0,0,1,2.47,2.135l.816-.431a5.189,5.189,0,0,0-3.034-2.592Zm2.465,2.126a28.575,28.575,0,0,0,5.47,7.794l.644-.661a27.664,27.664,0,0,1-5.288-7.545Zm5.47,7.794a18.848,18.848,0,0,0,8.317,4.792l.243-.89a17.927,17.927,0,0,1-7.917-4.563Zm8.327,4.795c4.839,1.212,9.043-1.168,12.548-4.058l-.587-.712c-3.455,2.849-7.347,4.975-11.737,3.875ZM59.4,69.949a9.56,9.56,0,0,1,4.922-1.215l.03-.922a10.483,10.483,0,0,0-5.4,1.33Zm4.923-1.215a10.049,10.049,0,0,1,6.9,3.249l.681-.623a10.971,10.971,0,0,0-7.556-3.548ZM49.95,67.171c-3.282-.4-5.95-.829-8.146-1.176l-.144.912c2.194.347,4.877.78,8.179,1.181ZM41.8,65.995a36.173,36.173,0,0,1-5.136-1.039,2.548,2.548,0,0,1-1.686-1.2l-.817.429a3.448,3.448,0,0,0,2.211,1.642,36.842,36.842,0,0,0,5.284,1.075Zm-6.822-2.234a3.767,3.767,0,0,1-.38-2.228,1.724,1.724,0,0,1,.389-.876,1.406,1.406,0,0,1,.886-.438l-.131-.914a2.325,2.325,0,0,0-1.44.733,2.64,2.64,0,0,0-.613,1.337,4.685,4.685,0,0,0,.472,2.813Zm.895-3.542a70.176,70.176,0,0,1,27.064,2.824l.288-.877a71.055,71.055,0,0,0-27.483-2.861Zm27.064,2.824c11.795,3.872,19.985,11.591,24.251,16.323l.685-.618C83.562,73.961,75.242,66.11,63.23,62.167ZM87.715,80.827A9.831,9.831,0,0,1,86.233,85.2l.777.5a10.755,10.755,0,0,0,1.623-4.782ZM86.233,85.2a10.212,10.212,0,0,1-5.746,4.181l.267.883A11.133,11.133,0,0,0,87.01,85.7ZM78.081,88.09a14.425,14.425,0,0,0-4.072-4.973l-.558.735a13.5,13.5,0,0,1,3.809,4.659Zm-4.073-4.974c-3.342-2.532-6.8-2.5-10.559-1.946-3.782.559-7.836,1.633-12.651,1.381l-.048.922c4.938.258,9.171-.849,12.834-1.39,3.686-.545,6.828-.533,9.867,1.769ZM50.8,82.551a26.092,26.092,0,0,1-3.471-.414l-.171.907a27.009,27.009,0,0,0,3.594.429Zm-3.472-.414a42.756,42.756,0,0,1-17.647-8.3,43.171,43.171,0,0,1-5.968-5.505,16.883,16.883,0,0,1-3.056-4.5l-.86.336a17.734,17.734,0,0,0,3.224,4.775,44.082,44.082,0,0,0,6.1,5.626,43.672,43.672,0,0,0,18.041,8.471Zm-26.672-18.3a1.976,1.976,0,0,1-.18-1.454l-.826-.412a2.8,2.8,0,0,0,.146,2.2Zm-.182-1.451a.892.892,0,0,1,.435-.355L20.5,61.2a1.783,1.783,0,0,0-.844.762Zm.435-.355a1.63,1.63,0,0,1,.267-.105l-.264-.884a2.566,2.566,0,0,0-.416.165Zm.267-.105a3.577,3.577,0,0,1,2.417.408,14.659,14.659,0,0,1,2.823,1.82A29.881,29.881,0,0,1,28.7,66.177c.289.283.522.522.682.688.08.083.141.149.183.193l.047.05.012.012,0,0h0l.341-.311L30.3,66.5h0l0,0-.013-.014-.05-.054c-.044-.047-.108-.116-.191-.2-.166-.173-.405-.419-.7-.71a30.825,30.825,0,0,0-2.353-2.088,15.56,15.56,0,0,0-3.01-1.935,4.457,4.457,0,0,0-3.067-.454Zm31.138,2.753a12.983,12.983,0,0,1-2.69,2.578l.542.747a13.823,13.823,0,0,0,2.908-2.8Zm-2.69,2.578a6.65,6.65,0,0,1-3.015,1.375l.083.919A7.523,7.523,0,0,0,50.166,68Zm-3.015,1.375a43.874,43.874,0,0,1-8.026.009l-.1.918a44.785,44.785,0,0,0,8.208-.008Zm-8.026.009-.079-.008-.1.917.082.009Zm-4.348,8.352c-1-.535-4.592-2.461-8.382-4.611a92.754,92.754,0,0,1-9.52-5.925l-.577.721A93.208,93.208,0,0,0,25.4,73.183c3.8,2.156,7.4,4.087,8.4,4.623Zm-17.9-10.536a5.963,5.963,0,0,1-1.186-1.195,1.248,1.248,0,0,1-.279-.895l-.911-.147a2.153,2.153,0,0,0,.428,1.562,6.842,6.842,0,0,0,1.37,1.394Zm-1.465-2.092a1.35,1.35,0,0,1,.631-.833,3.218,3.218,0,0,1,.7-.361l-.3-.871a4.122,4.122,0,0,0-.918.474,2.253,2.253,0,0,0-1.017,1.448ZM16.2,63.169a3.089,3.089,0,0,1,2.42.285,5.893,5.893,0,0,1,1.292.886l.631-.674a6.809,6.809,0,0,0-1.51-1.038,4,4,0,0,0-3.143-.329Zm3.712,1.172.005,0,.634-.67-.009-.008Zm-2.693-1.7a2.1,2.1,0,0,1,1-1.431l-.419-.822a3.021,3.021,0,0,0-1.487,2.073Zm1-1.432a2.116,2.116,0,0,1,2.482.588l.684-.62a3.036,3.036,0,0,0-3.587-.789Zm2.482.588,0,0,.685-.618-.006-.006ZM87.193,79.367a1.923,1.923,0,0,1,.522,1.46l.919.087a2.845,2.845,0,0,0-.756-2.165ZM80.486,89.381a2.124,2.124,0,0,1-2.405-1.291l-.821.421a3.039,3.039,0,0,0,3.494,1.754Zm-21.4-19.215a2.08,2.08,0,0,1,.313-.217l-.447-.807a3,3,0,0,0-.452.312ZM42.729,39.951v4.771h.923V39.951Zm0,4.771V47.9h.923V44.722Zm4.7,7.884h3.181v-.923H47.432Zm7.883-4.7V44.722h-.923V47.9Zm0-3.181V39.951h-.923v4.771ZM43.191,48.364H54.854v-.923H43.191Zm0-3.181H54.854v-.923H43.191Zm7.422,7.422a4.7,4.7,0,0,0,4.7-4.7h-.923a3.78,3.78,0,0,1-3.78,3.78Zm-7.884-4.7a4.7,4.7,0,0,0,4.7,4.7v-.923a3.78,3.78,0,0,1-3.78-3.78ZM29.223,40.588l-15.9,6.892.367.847,15.9-6.892Zm-3.416-7.446L13.084,29.961l-.224.9,12.723,3.181Zm41.586,8.293,15.9,6.892.367-.847-15.9-6.892Zm4.006-7.4,12.723-3.181-.224-.9L71.176,33.141Z" transform="translate(-12.511 -2.31)" fill="#6e99ac"/><path d="M50.567,0A18.025,18.025,0,0,0,38.5,31.413a15.022,15.022,0,0,1,1.7,1.746L43,36.666a5.5,5.5,0,0,1,1.1,2.378A1.242,1.242,0,0,0,45.266,40.1h10.6a1.242,1.242,0,0,0,1.162-1.054,5.5,5.5,0,0,1,1.1-2.378l2.8-3.507a15.028,15.028,0,0,1,1.7-1.746A18.025,18.025,0,0,0,50.567,0Z" transform="translate(-14.056)" fill="#6e99ac"/><path d="M48.007,34.906,40.585,19.532M54.369,34.906l7.422-15.374" transform="translate(-14.677 -1.507)" fill="none" stroke="#fff" stroke-linecap="round" stroke-linejoin="round" stroke-width="1"/><path d="M41.734,15.819l3.181-3.181L48.1,15.819l3.181-3.181,3.181,3.181,3.181-3.181,3.181,3.181" transform="translate(-14.765 -0.975)" fill="none" stroke="#fff" stroke-linecap="round" stroke-linejoin="round" stroke-width="1"/></g></g></svg>