<svg xmlns="http://www.w3.org/2000/svg" width="88.755" height="88.754" viewBox="0 0 88.755 88.754"><path d="M71,11.889A2.889,2.889,0,0,1,73.889,9H91.224a2.889,2.889,0,0,1,2.889,2.889V29.224a2.889,2.889,0,0,1-2.889,2.889H73.889A2.889,2.889,0,0,1,71,29.224Z" transform="translate(-5.359 -0.679)" fill="#6e99ac"/><g transform="translate(12.943 13.868)"><path d="M46.358,31.179A16.179,16.179,0,1,1,30.179,15,16.179,16.179,0,0,1,46.358,31.179Z" transform="translate(-14 -15)" fill="#6e99ac"/></g><path d="M15.41,84.951a.852.852,0,0,1-.877-.923,4.137,4.137,0,0,1,.231-1.017,3.95,3.95,0,0,1,1.018-1.418,5.553,5.553,0,0,0,.993-1.139,1.89,1.89,0,0,0,.246-.931q0-1.47-1.281-1.47a1.267,1.267,0,0,0-.977.4,1.249,1.249,0,0,0-.162.22,1.438,1.438,0,0,1-1.118.867H12.94a.8.8,0,0,1-.837-.927,3.14,3.14,0,0,1,.913-1.674A3.824,3.824,0,0,1,15.742,76a3.809,3.809,0,0,1,2.7.9,3.6,3.6,0,0,1,.649,3.914A5.759,5.759,0,0,1,18,82.263l-.665.67a2.438,2.438,0,0,0-.714,1.487.566.566,0,0,1-.565.531Zm-1.163,2.67a1.287,1.287,0,0,1,1.33-1.34,1.265,1.265,0,0,1,.952.383,1.4,1.4,0,0,1,.008,1.9,1.273,1.273,0,0,1-.96.374,1.261,1.261,0,0,1-1.33-1.322Z" transform="translate(-0.912 -5.736)" fill="#6e99ac"/><path d="M37.443,31.472A6.472,6.472,0,1,1,30.972,25,6.472,6.472,0,0,1,37.443,31.472Z" transform="translate(-1.849 -1.887)" fill="#fff" stroke="#6e99ab" stroke-width="1"/><path d="M68.753,19.877l-.333-.32-.308.32.308.32Zm17.113,0,.333.32.308-.32-.308-.32Zm-85.4,45.3h0Zm0,21.264h0Zm1.849,1.849V87.83h0Zm27.736,0v0ZM25.055,68.4h0Zm0-5.066L25.383,63l-.136-.137h-.193Zm-22.743,0v-.462h0ZM31.9,86.443h0Zm0-16.2h.462v-.19l-.134-.135Zm-4.993,0v0ZM3.7,27.387l-.376-.268Zm52.226,0-.376.268ZM3.7,32.234l.376-.268Zm52.226,0-.376-.268ZM73.975,13.779l-5.556,5.778.666.641,5.556-5.778ZM68.419,20.2l5.556,5.778.666-.641-5.556-5.778Zm11.557-5.778L85.532,20.2l.666-.641-5.556-5.778Zm5.556,5.137-5.556,5.778.666.641L86.2,20.2ZM58.707,29.585A28.8,28.8,0,0,1,29.8,58.245v.925A29.722,29.722,0,0,0,59.632,29.585ZM29.8,58.245A28.768,28.768,0,0,1,.925,29.585H0A29.692,29.692,0,0,0,29.8,59.17ZM.925,29.585A28.768,28.768,0,0,1,29.8.925V0A29.692,29.692,0,0,0,0,29.585ZM29.8.925a28.8,28.8,0,0,1,28.909,28.66h.925A29.722,29.722,0,0,0,29.8,0Zm27.06,28.66c0,14.8-12.456,26.811-27.274,26.811v.925c15.308,0,28.2-12.408,28.2-27.736ZM29.585,56.4A26.811,26.811,0,0,1,2.774,29.585H1.849A27.736,27.736,0,0,0,29.585,57.321ZM2.774,29.585A26.811,26.811,0,0,1,29.585,2.774V1.849A27.736,27.736,0,0,0,1.849,29.585ZM29.585,2.774c14.818,0,27.274,12.014,27.274,26.811h.925c0-15.328-12.89-27.736-28.2-27.736ZM0,65.179V86.443H.925V65.179ZM2.311,88.755H30.047V87.83H2.311ZM25.517,68.4V63.33h-.925V68.4Zm-.462-5.528H2.311v.925H25.055Zm7.3,23.575v-16.2h-.925v16.2ZM31.9,69.783H26.9v.925H31.9Zm-7.17-6.128,6.842,6.915.657-.65L25.383,63ZM0,86.443a2.311,2.311,0,0,0,2.311,2.311V87.83A1.387,1.387,0,0,1,.925,86.443ZM.925,65.179a1.387,1.387,0,0,1,1.387-1.387v-.925A2.311,2.311,0,0,0,0,65.179ZM24.592,68.4A2.311,2.311,0,0,0,26.9,70.707v-.925A1.387,1.387,0,0,1,25.517,68.4Zm5.455,20.359a2.311,2.311,0,0,0,2.311-2.311h-.925a1.387,1.387,0,0,1-1.387,1.387ZM4.074,27.656A31.6,31.6,0,0,1,15.1,17.6,31.067,31.067,0,0,1,29.811,14.33v-.925a31.987,31.987,0,0,0-15.139,3.373,32.516,32.516,0,0,0-11.35,10.34ZM56.3,27.119a32.516,32.516,0,0,0-11.35-10.34,31.987,31.987,0,0,0-15.139-3.373v.925A31.068,31.068,0,0,1,44.522,17.6,31.6,31.6,0,0,1,55.547,27.656ZM3.322,32.5a32.516,32.516,0,0,0,11.35,10.34,31.987,31.987,0,0,0,15.139,3.373v-.925A31.066,31.066,0,0,1,15.1,42.023,31.6,31.6,0,0,1,4.074,31.966Zm52.226-.537A31.6,31.6,0,0,1,44.522,42.023a31.067,31.067,0,0,1-14.711,3.268v.925A31.987,31.987,0,0,0,44.95,42.843,32.516,32.516,0,0,0,56.3,32.5Zm0-4.31a3.713,3.713,0,0,1,0,4.31l.753.537a4.637,4.637,0,0,0,0-5.383ZM3.322,27.119a4.637,4.637,0,0,0,0,5.383l.753-.537a3.713,3.713,0,0,1,0-4.31Zm47.2,23.132,8.321,8.321.654-.654L51.176,49.6Z" transform="translate(0)" fill="#6e99ac"/><path d="M62.956,63.063a1.858,1.858,0,0,0,0,2.627L89.67,91.957a1.858,1.858,0,0,0,2.627,0l.624-.624a1.858,1.858,0,0,0,0-2.628L66.207,62.439a1.858,1.858,0,0,0-2.627,0Z" transform="translate(-4.71 -4.671)" fill="#6e99ac"/></svg>