<svg xmlns="http://www.w3.org/2000/svg" width="95" height="95.5" viewBox="0 0 95 95.5"><g transform="translate(-1322 -1267)"><path d="M168,333a2,2,0,0,0-2,2v3a2,2,0,0,0,2,2h30.5l4.5-4h33c1.6,0,2,2,2,3a4.49,4.49,0,0,1,3,1h4a2,2,0,0,0,2-2v-3a2,2,0,0,0-2-2Z" transform="translate(1166.5 959)" fill="#6e99ac" stroke="#6e99ac" stroke-width="1"/><path d="M168,356a2,2,0,0,0-2,2v3a2,2,0,0,0,2,2h27v-7Z" transform="translate(1166.5 959)" fill="#6e99ac" stroke="#6e99ac" stroke-width="1"/><path d="M247,358a2,2,0,0,0-2-2h-4v7h4a2,2,0,0,0,2-2Z" transform="translate(1166.5 959)" fill="#6e99ac" stroke="#6e99ac" stroke-width="1"/><path d="M201,355h32m-32,8h32m-32,8h32m-32-12h32m-32,8h32m-32,8h32" transform="translate(1166.5 959)" fill="none" stroke="#6e99ac" stroke-linecap="round" stroke-linejoin="round" stroke-width="2"/><path d="M191.5,314.5l2.485-2.485a12,12,0,0,1,8.486-3.515h9.058a12,12,0,0,1,8.486,3.515L222.5,314.5m-27.5,2,.985-.985A12,12,0,0,1,204.471,312h5.058a12,12,0,0,1,8.486,3.515l.985.985m-49,75c0,6.351-3.134,11.5-7,11.5s-7-5.149-7-11.5m14,0c0-6.351-3.134-11.5-7-11.5s-7,5.149-7,11.5m14,0h6m-20,0h25.5A11.5,11.5,0,0,1,193,403m-3-11.5c0,6.351-3.134,11.5-7,11.5s-7-5.149-7-11.5m14,0c0-6.351-3.134-11.5-7-11.5s-7,5.149-7,11.5m14,0h25.5A11.5,11.5,0,0,1,227,403a11.455,11.455,0,0,0-1.4-5.5M195,378H165a2,2,0,0,1-2-2V320a2,2,0,0,1,2-2h83a2,2,0,0,1,2,2v56a2,2,0,0,1-2,2h-6v2a1.5,1.5,0,0,1-1,1.415M198,394.5h38a2,2,0,0,0,2-2V339m-40,55.5h-1a2,2,0,0,1-2-2V344.328a2,2,0,0,1,.586-1.414l6.328-6.328a2,2,0,0,1,1.414-.586H236a2,2,0,0,1,2,2v1m-40,55.5v1a2,2,0,0,0,2,2h39a2,2,0,0,0,2-2V341a2,2,0,0,0-2-2h-1m-51-21,3.312-3.27a1.039,1.039,0,0,1,1.688.811,1.039,1.039,0,0,0,1.039,1.039H196.2c.442,0,.8.978.8,1.42Zm40,0-3.312-3.27a1.039,1.039,0,0,0-1.688.811,1.039,1.039,0,0,1-1.039,1.039H217.8c-.442,0-.8.978-.8,1.42Zm-53.5-1.5h4A1.5,1.5,0,0,1,179,318h-7A1.5,1.5,0,0,1,173.5,316.5Zm63,0h4A1.5,1.5,0,0,1,242,318h-7A1.5,1.5,0,0,1,236.5,316.5Zm-4.5,63a6.5,6.5,0,1,1-6.5-6.5A6.5,6.5,0,0,1,232,379.5Zm-2,0a4.5,4.5,0,1,1-4.5-4.5A4.5,4.5,0,0,1,230,379.5Z" transform="translate(1166.5 959)" fill="none" stroke="#6e99ac" stroke-width="1"/><path d="M201,384.16l.826,2.477a.1.1,0,0,0,.169.035l4.016-4.477a.1.1,0,0,1,.174.066v5.448a.1.1,0,0,0,.179.061l2.861-3.678a.1.1,0,0,1,.151-.007l2.017,2.143a.1.1,0,0,0,.157-.014l2.13-3.254m0,3.12H215" transform="translate(1166.5 959)" fill="none" stroke="#6e99ac" stroke-linecap="round" stroke-linejoin="round" stroke-width="1"/></g></svg>