<svg xmlns="http://www.w3.org/2000/svg" width="95.992" height="95.024" viewBox="0 0 95.992 95.024"><g transform="translate(-0.007)"><path d="M43,60.586V43.5h8V60.586a1,1,0,0,1-1.707.707l-1.586-1.586a1,1,0,0,0-1.414,0l-1.586,1.586A1,1,0,0,1,43,60.586Z" fill="#6e99ac"/><path d="M49,14.169V0h6V14.169a.743.743,0,0,1-1.28.586L52.53,13.44a.7.7,0,0,0-1.061,0L50.28,14.755A.743.743,0,0,1,49,14.169Z" fill="#6e99ac"/><path d="M43.5,32H35a2,2,0,0,0-2,2v2a2,2,0,0,0,2,2h8.5a2,2,0,0,0,2-2V34A2,2,0,0,0,43.5,32Z" fill="#6e99ac"/><path d="M73.5,48H65a2,2,0,0,0-2,2v2a2,2,0,0,0,2,2h8.5a2,2,0,0,0,2-2V50A2,2,0,0,0,73.5,48Z" fill="#6e99ac"/><path d="M43,29H35a1,1,0,0,0,0,2h8a1,1,0,0,0,0-2Z" fill="#6e99ac"/><path d="M83.354,31.646a.5.5,0,0,0-.707.707Zm2.939,3.646.354-.354h0Zm0,1.414-.354-.354h0Zm-3.646,2.939a.5.5,0,0,0,.707.707Zm4.707-8a.5.5,0,0,0-.707.707Zm2.939,3.646.354-.354h0Zm0,1.414-.354-.354h0Zm-3.646,2.939a.5.5,0,0,0,.707.707Zm-4-7.293,3.293,3.293.707-.707-3.293-3.293Zm3.293,4-3.293,3.293.707.707,3.293-3.293Zm0-.707a.5.5,0,0,1,0,.707l.707.707a1.5,1.5,0,0,0,0-2.121Zm.707-3.293,3.293,3.293.707-.707-3.293-3.293Zm3.293,4-3.293,3.293.707.707,3.293-3.293Zm0-.707a.5.5,0,0,1,0,.707l.707.707a1.5,1.5,0,0,0,0-2.121Z" fill="#6e99ac"/><path d="M2,8l3.293,3.293a1,1,0,0,1,0,1.414L2,16M6,8l3.293,3.293a1,1,0,0,1,0,1.414L6,16m4-8,3.293,3.293a1,1,0,0,1,0,1.414L10,16m4-8,3.293,3.293a1,1,0,0,1,0,1.414L14,16m4-8,3.293,3.293a1,1,0,0,1,0,1.414L18,16M16.937,77.037c2.509-.7,4.827-1.939,7.34-2.623,3.668-1,7.572-.765,11.369-.376a6.218,6.218,0,0,1,2.393.581,2,2,0,0,1,1.136,1.956c-.232,1.3-2.01,1.675-3.378,1.521a25.2,25.2,0,0,0-3.944-.436,3.536,3.536,0,0,0-3.209,1.871c-.521,1.333.33,2.8,1.337,3.849a12.815,12.815,0,0,0,6.649,3.6m-19.694-9.94V68.5m0,8.537C13.8,77.9,8.525,76.711,5.5,75.869M36.631,86.977c.343,1.572.29,3.332-1.261,3.938a4.006,4.006,0,0,1-2.884-.12m4.145-3.819H58.546M32.486,90.8a11.546,11.546,0,0,1-2.5-1.5m2.5,1.5c-1.038,1.7-3.044,2.858-6.1.509m-2.741,2.229a3.256,3.256,0,0,1-2.9.884,6.634,6.634,0,0,1-2.576-1.585c-1.925-1.739-5.192-3.221-7.514-4.434-2.381-1.247-5.168-1.279-7.916-1.028A2.023,2.023,0,0,1,.507,85.362a18.333,18.333,0,0,1,1.9-8.72,1.99,1.99,0,0,1,2.366-.98c.224.066.467.135.727.208M22.492,92.78c.6.5,2.263,1.537,3.695,1.081a5.29,5.29,0,0,0,1.918-1.578m33.417-5.209H64.5m0,0c2.787-.749,7.285-4,7.285-4a31.222,31.222,0,0,1-11.608,4.238,1.531,1.531,0,0,1-1.129-.128,1.122,1.122,0,0,1-.159-1.47,3.183,3.183,0,0,1,1.255-.994q4.628-2.523,9.252-5.049a42.471,42.471,0,0,1-10.055.858c-.978-.033-2.25-.385-2.283-1.379a1.409,1.409,0,0,1,.929-1.247,4.588,4.588,0,0,1,1.61-.236,21.64,21.64,0,0,0,13.96-5.87,17.834,17.834,0,0,1-7.716,1.446c-.652-.025-1.435-.182-1.655-.8-.306-.853.705-1.549,1.537-1.881q3.583-1.435,7.17-2.866l.015-.006a10.748,10.748,0,0,1,3.143-.893,6.767,6.767,0,0,1,1.843.146M64.5,87.073c-.065.65.727,1.291,1.342,1.485a9.893,9.893,0,0,0,4.634-.395,10.589,10.589,0,0,0,5.27-3.947m-4.3,3.567c2.481,1.27,3.885.409,5.287-.692,3.11-2.448,4.757-6.669,8.3-8.4,2.56-1.25,5.5-.9,8.323-.251a1.642,1.642,0,0,0,2.133-1.454,53.518,53.518,0,0,0-.463-7.245,2.008,2.008,0,0,0-2.24-1.728C92,68.1,91.042,68.2,90,68.277M77.895,66.932c1.185.244,2.347.717,3.516,1.059,2.065.608,5.652.513,8.589.286M77.895,66.932V61M16.937,68.5v-23a2,2,0,0,1,2-2H30.547m-13.611,25A52.384,52.384,0,0,1,8,65.934a1.988,1.988,0,0,0-2.725,1.154c-.784,2.726-1.318,6.526.222,8.781M77.895,61V45.5a2,2,0,0,0-2-2H73.5M77.895,61a78.414,78.414,0,0,0,8.458-1.106,2,2,0,0,1,2.307,1.165c.791,2.065,1.647,5.057,1.34,7.218M30.547,43.5H73.5m-42.953,0V2.5a2,2,0,0,1,2-2H71.5a2,2,0,0,1,2,2v41" fill="none" stroke="#6e99ac" stroke-linecap="round" stroke-linejoin="round" stroke-miterlimit="10" stroke-width="1"/></g></svg>