<svg xmlns="http://www.w3.org/2000/svg" width="96.5" height="96" viewBox="0 0 96.5 96"><g transform="translate(-1422 -2554)"><path d="M10.794,79.181l.478-.147a.5.5,0,0,0-.478-.353Zm-.508-3.705v.5a.5.5,0,0,0,.495-.572Zm10.921,3.705v-.5a.5.5,0,0,0-.478.353Zm.508-3.705-.495-.072a.5.5,0,0,0,.495.572ZM4.81,87.795l-.239-.439-.019.01-.018.012Zm22.38,0,.275-.418-.018-.012-.019-.01ZM10.684,74.17a.5.5,0,0,0-1,.035Zm11.631.035a.5.5,0,1,0-1-.035ZM85.266,25.681v-.5a.5.5,0,0,0-.478.353Zm.508-3.705-.495-.072a.5.5,0,0,0,.495.572ZM74.854,25.681l.478-.147a.5.5,0,0,0-.478-.353Zm-.508-3.705v.5a.5.5,0,0,0,.495-.572Zm16.9,12.319.275-.417-.018-.012-.019-.01Zm-22.38,0-.239-.439-.019.01-.018.012Zm17.5-13.59a.5.5,0,1,0-1-.035ZM74.744,20.67a.5.5,0,0,0-1,.035ZM47.823,68.142a.5.5,0,1,0,0,1Zm39.19,1a.5.5,0,0,0,0-1Zm-39.19,5.038a.5.5,0,1,0,0,1Zm33,1a.5.5,0,0,0,0-1Zm-33,5.038a.5.5,0,1,0,0,1Zm36.529,1a.5.5,0,0,0,0-1ZM47.823,86.255a.5.5,0,1,0,0,1Zm28.972,1a.5.5,0,0,0,0-1Zm-39.32,3.528.237.44ZM94,62v0ZM40,62v0ZM32.548,93.436,32.311,93ZM56.06.5v0ZM2.5.5v0ZM48.311,28.416a.5.5,0,0,0,0-1Zm-38.893-1a.5.5,0,0,0,0,1ZM41.5,33.4a.5.5,0,0,0,0-1Zm-32.082-1a.5.5,0,0,0,0,1ZM34,38.384a.5.5,0,0,0,0-1Zm-24.582-1a.5.5,0,0,0,0,1ZM44.5,43.368a.5.5,0,0,0,0-1Zm-35.082-1a.5.5,0,0,0,0,1ZM31,80A15,15,0,0,1,16,95v1A16,16,0,0,0,32,80ZM16,95A15,15,0,0,1,1,80H0A16,16,0,0,0,16,96ZM1,80A15,15,0,0,1,16,65V64A16,16,0,0,0,0,80ZM16,65A15,15,0,0,1,31,80h1A16,16,0,0,0,16,64ZM10.316,79.328a7.123,7.123,0,0,0,1.7,2.779A5.515,5.515,0,0,0,16,83.8v-1a4.517,4.517,0,0,1-3.271-1.4,6.127,6.127,0,0,1-1.457-2.368Zm.478-.647a.829.829,0,0,1-.695-.376,2.05,2.05,0,0,1-.347-1.02,1.98,1.98,0,0,1,.15-1.008c.116-.234.249-.3.384-.3v-1a1.419,1.419,0,0,0-1.279.856,2.966,2.966,0,0,0-.251,1.539A3.042,3.042,0,0,0,9.294,78.9a1.827,1.827,0,0,0,1.5.782Zm9.935.353a6.093,6.093,0,0,1-1.812,2.693l.642.767a7.088,7.088,0,0,0,2.125-3.165Zm-1.812,2.693A4.443,4.443,0,0,1,16,82.8v1a5.441,5.441,0,0,0,3.559-1.305Zm2.289-2.045a1.827,1.827,0,0,0,1.5-.782,3.043,3.043,0,0,0,.538-1.528,2.966,2.966,0,0,0-.251-1.539,1.419,1.419,0,0,0-1.279-.856v1c.135,0,.267.067.383.3a1.978,1.978,0,0,1,.15,1.008,2.05,2.05,0,0,1-.347,1.02.829.829,0,0,1-.695.376ZM11.3,83.7,4.571,87.355l.478.879,6.731-3.658Zm-6.767,3.68a2.281,2.281,0,0,0-.791,1.059,3.46,3.46,0,0,0-.256,1.251h1a2.465,2.465,0,0,1,.183-.876,1.321,1.321,0,0,1,.414-.6Zm8.227-5.267-.48-.14h0s0,0,0,0v0l0,.01-.013.042c-.012.038-.031.094-.055.163-.05.139-.123.329-.219.532a2.536,2.536,0,0,1-.725,1l.55.835a3.463,3.463,0,0,0,1.08-1.411c.112-.239.2-.46.255-.621.029-.081.051-.147.066-.194l.017-.055,0-.016v-.006h0Zm7.458,2.466,6.731,3.658.477-.879L20.7,83.7Zm6.695,3.637a1.32,1.32,0,0,1,.414.6,2.465,2.465,0,0,1,.183.876h1a3.458,3.458,0,0,0-.256-1.251,2.281,2.281,0,0,0-.791-1.059Zm-7.677-6.1-.48.14h0v.006l0,.016.017.055c.015.047.037.113.066.194.057.161.143.381.255.621a3.463,3.463,0,0,0,1.08,1.411l.55-.835a2.536,2.536,0,0,1-.725-1c-.1-.2-.169-.393-.219-.532-.025-.069-.043-.125-.055-.163l-.013-.042,0-.01v0s0,0,0,0h0Zm-8.952-6.634.495-.072h0v0l0-.015c0-.014,0-.035-.008-.062-.007-.056-.016-.139-.027-.247-.021-.216-.045-.527-.059-.906l-1,.035c.014.4.04.735.063.968.011.117.022.209.03.272,0,.032.007.057.009.074l0,.02v.007h0Zm11.429,0,.495.072h0v-.007l0-.02c0-.017.006-.042.01-.074.008-.064.018-.156.03-.272.023-.233.049-.566.063-.968l-1-.035c-.013.379-.038.69-.059.906-.01.108-.02.191-.027.247,0,.028-.006.049-.008.063l0,.015v0h0ZM11.226,84.525c1.678,1.36,3.107,2.149,4.642,2.162s3.046-.747,4.893-2.152l-.605-.8c-1.807,1.375-3.094,1.959-4.279,1.948s-2.383-.611-4.022-1.939ZM64.06,26.5a16,16,0,0,0,16,16v-1a15,15,0,0,1-15-15Zm16,16a16,16,0,0,0,16-16h-1a15,15,0,0,1-15,15Zm16-16a16,16,0,0,0-16-16v1a15,15,0,0,1,15,15Zm-16-16a16,16,0,0,0-16,16h1a15,15,0,0,1,15-15Zm4.729,15.034A6.128,6.128,0,0,1,83.331,27.9a4.516,4.516,0,0,1-3.271,1.4v1a5.515,5.515,0,0,0,3.979-1.691,7.122,7.122,0,0,0,1.7-2.779Zm.478.647a1.827,1.827,0,0,0,1.5-.782,3.043,3.043,0,0,0,.538-1.528,2.966,2.966,0,0,0-.251-1.539,1.419,1.419,0,0,0-1.279-.857v1c.135,0,.267.067.384.3a1.98,1.98,0,0,1,.15,1.009,2.049,2.049,0,0,1-.347,1.02.829.829,0,0,1-.695.376Zm-10.89-.353A7.089,7.089,0,0,0,76.5,28.993l.642-.767a6.094,6.094,0,0,1-1.812-2.693ZM76.5,28.993A5.441,5.441,0,0,0,80.06,30.3v-1a4.443,4.443,0,0,1-2.917-1.072Zm-1.647-3.812a.829.829,0,0,1-.695-.376,2.051,2.051,0,0,1-.347-1.02,1.98,1.98,0,0,1,.15-1.009c.116-.234.249-.3.384-.3v-1a1.419,1.419,0,0,0-1.279.857,2.965,2.965,0,0,0-.251,1.539,3.041,3.041,0,0,0,.538,1.528,1.827,1.827,0,0,0,1.5.782Zm9.426,5.895,6.731,3.658.478-.879L84.757,30.2Zm6.695,3.637a1.32,1.32,0,0,1,.414.6,2.465,2.465,0,0,1,.183.876h1a3.46,3.46,0,0,0-.256-1.251,2.281,2.281,0,0,0-.791-1.059ZM83.3,28.61l-.48.14h0v.006l0,.016.017.056c.015.047.037.113.066.194.058.161.143.381.255.621a3.463,3.463,0,0,0,1.08,1.411l.55-.835a2.535,2.535,0,0,1-.725-1c-.1-.2-.169-.393-.219-.532-.025-.069-.043-.125-.055-.163l-.013-.042,0-.01v0h0ZM75.362,30.2l-6.731,3.658.478.879,6.731-3.658Zm-6.767,3.68a2.281,2.281,0,0,0-.791,1.059,3.46,3.46,0,0,0-.256,1.251h1a2.465,2.465,0,0,1,.183-.876,1.321,1.321,0,0,1,.414-.6Zm8.227-5.267-.48-.14h0v0l0,.01-.013.042c-.012.038-.031.094-.055.163-.05.139-.123.329-.219.532a2.537,2.537,0,0,1-.725,1l.55.835a3.462,3.462,0,0,0,1.08-1.411c.112-.239.2-.46.255-.621.029-.081.051-.147.066-.194l.018-.056,0-.016v-.006h0Zm8.952-6.634.495.072h0v-.007l0-.02c0-.017.005-.042.009-.074.008-.064.018-.156.03-.272.023-.233.049-.566.063-.968l-1-.035c-.013.379-.038.69-.059.906-.011.108-.02.191-.027.247l-.008.063,0,.015v0h0Zm-11.429,0,.495-.072h0v0l0-.015c0-.014,0-.035-.008-.062-.007-.056-.017-.139-.027-.247-.021-.216-.046-.527-.059-.906l-1,.035c.014.4.04.735.063.968.011.117.022.209.03.272,0,.032.007.056.009.074l0,.02v.007h0ZM84.2,30.248c-1.638,1.328-2.841,1.929-4.022,1.939s-2.471-.573-4.279-1.948l-.606.8c1.847,1.405,3.361,2.166,4.893,2.153s2.965-.8,4.643-2.162ZM47.823,69.142h39.19v-1H47.823Zm0,6.038h33v-1h-33Zm0,6.038H84.352v-1H47.823Zm0,6.038H76.795v-1H47.823ZM40,62.5H94v-1H40ZM95.5,64V92h1V64ZM94,93.5H32.69v1H94Zm-61.215.376,4.926-2.653-.474-.88L32.311,93ZM38.5,89.9V64h-1V89.9Zm-.789,1.321A1.5,1.5,0,0,0,38.5,89.9h-1a.5.5,0,0,1-.263.44ZM95.5,92A1.5,1.5,0,0,1,94,93.5v1A2.5,2.5,0,0,0,96.5,92ZM94,62.5A1.5,1.5,0,0,1,95.5,64h1A2.5,2.5,0,0,0,94,61.5Zm-54-1A2.5,2.5,0,0,0,37.5,64h1A1.5,1.5,0,0,1,40,62.5Zm-7.31,32a.207.207,0,0,1,.129.049.191.191,0,0,1,.056.222.207.207,0,0,1-.09.1L32.311,93a.8.8,0,0,0,.379,1.5ZM58.56,48.916V2.5h-1V48.916ZM56.06,0H2.5V1H56.06ZM0,2.5V48.916H1V2.5ZM2.5,51.416H56.06v-1H2.5Zm45.811-24H9.418v1H48.311ZM41.5,32.4H9.418v1H41.5ZM34,37.384H9.418v1H34Zm10.5,4.984H9.418v1H44.5ZM0,48.916a2.5,2.5,0,0,0,2.5,2.5v-1a1.5,1.5,0,0,1-1.5-1.5ZM2.5,0A2.5,2.5,0,0,0,0,2.5H1A1.5,1.5,0,0,1,2.5,1ZM58.56,2.5A2.5,2.5,0,0,0,56.06,0V1a1.5,1.5,0,0,1,1.5,1.5Zm-1,46.415a1.5,1.5,0,0,1-1.5,1.5v1a2.5,2.5,0,0,0,2.5-2.5Z" transform="translate(1422 2554)" fill="#6e99ac"/><path d="M14.5,74c4.216-1.182,4.723-2.593,5.813-5.037.484,2.686.775,5.037,3.1,5.037,0,0,0-7.362-7.362-7.362s-7.363,7.75-7.363,7.75a8.818,8.818,0,0,0,5.813-3.1Z" transform="translate(1422 2554)" fill="#6e99ac"/><path d="M81.56,20.363c-4.215-1.182-4.723-2.594-5.812-5.038-.484,2.686-.775,5.038-3.1,5.038,0,0,0-7.363,7.363-7.363s7.362,7.75,7.362,7.75a8.817,8.817,0,0,1-5.813-3.1Z" transform="translate(1422 2554)" fill="#6e99ac"/><path d="M14.5,74c4.216-1.182,4.723-2.593,5.813-5.037.484,2.686.775,5.037,3.1,5.037,0,0,0-7.362-7.362-7.362s-7.363,7.75-7.363,7.75a8.818,8.818,0,0,0,5.813-3.1Z" transform="translate(1422 2554)" fill="none" stroke="#6e99ac" stroke-linecap="round" stroke-linejoin="round" stroke-width="1"/><path d="M81.56,20.363c-4.215-1.182-4.723-2.594-5.812-5.038-.484,2.686-.775,5.038-3.1,5.038,0,0,0-7.363,7.363-7.363s7.362,7.75,7.362,7.75a8.817,8.817,0,0,1-5.813-3.1Z" transform="translate(1422 2554)" fill="none" stroke="#6e99ac" stroke-linecap="round" stroke-linejoin="round" stroke-width="1"/><path d="M9,74.85v-.775c0-3.852,2.325-6.975,6.975-6.975s6.975,3.123,6.975,6.975v1.55M8.5,77.025C8.5,80.877,10.582,84,13.15,84" transform="translate(1422 2554)" fill="none" stroke="#6a93a5" stroke-width="1"/><path d="M14.05,75.625a.275.275,0,1,1-.275-.275A.275.275,0,0,1,14.05,75.625Zm4.65,0a.275.275,0,1,1-.275-.275A.275.275,0,0,1,18.7,75.625ZM82.225,22.55a.275.275,0,1,1,.275-.275A.275.275,0,0,1,82.225,22.55Zm-4.65,0a.275.275,0,1,1,.275-.275A.275.275,0,0,1,77.575,22.55Z" transform="translate(1422 2554)" fill="#6e99ac" stroke="#6e99ac" stroke-width="1"/><path d="M24.5,76.345a1.55,1.55,0,0,0-1.347-1.729l-.043-.005a1.55,1.55,0,0,0-1.729,1.347l-.286,2.307a1.55,1.55,0,0,0,1.347,1.729l.043.005a1.55,1.55,0,0,0,1.729-1.347Z" transform="translate(1422 2554)" fill="#6e99ac"/><path d="M7.443,76.345A1.55,1.55,0,0,1,8.79,74.616l.043-.005a1.55,1.55,0,0,1,1.729,1.347l.286,2.307A1.55,1.55,0,0,1,9.5,79.995L9.458,80a1.55,1.55,0,0,1-1.729-1.347Z" transform="translate(1422 2554)" fill="#6e99ac"/><path d="M14.5,84a.775.775,0,1,1-.775-.775A.775.775,0,0,1,14.5,84Z" transform="translate(1422 2554)" fill="#6e99ac"/><path d="M9,8a2,2,0,0,1,2-2H49a2,2,0,0,1,2,2V21a2,2,0,0,1-2,2H11a2,2,0,0,1-2-2Z" transform="translate(1422 2554)" fill="#6e99ac"/><path d="M47.284,41.958a.261.261,0,0,1-.267-.278,1.641,1.641,0,0,1,.1-.471,1.529,1.529,0,0,1,.413-.548,2.177,2.177,0,0,0,.4-.44.7.7,0,0,0,.1-.36q0-.568-.519-.568a.527.527,0,0,0-.4.155.488.488,0,0,0-.074.1.525.525,0,0,1-.412.321c-.348,0-.651-.3-.508-.615a1.168,1.168,0,0,1,.285-.389,1.886,1.886,0,0,1,2.2-.017,1.225,1.225,0,0,1,.39.971,1.2,1.2,0,0,1-.126.541,2.234,2.234,0,0,1-.443.561l-.27.259a.925.925,0,0,0-.29.575.219.219,0,0,1-.219.2Zm-.375,1.032a.491.491,0,0,1,.15-.37.538.538,0,0,1,.39-.148.526.526,0,0,1,.386.148.522.522,0,0,1,0,.736.531.531,0,0,1-.389.145.542.542,0,0,1-.393-.145A.493.493,0,0,1,46.909,42.989Z" transform="translate(1422 2554)" fill="#6e99ac"/></g></svg>