<svg xmlns="http://www.w3.org/2000/svg" width="96.5" height="96.07" viewBox="0 0 96.5 96.07"><path d="M78.432,62.584A7.986,7.986,0,0,1,80,78.4V73c0-.5-.5-1.5-1-1.5A14.57,14.57,0,0,0,76,73H70.823a7.992,7.992,0,0,1,7.609-10.416Z" fill="#6e99ac"/><path d="M29,3.5v3a.5.5,0,0,0,1,0v-3A25.87,25.87,0,0,1,42.062,6.733l-1.5,2.6a.5.5,0,1,0,.866.5l1.5-2.6a26.133,26.133,0,0,1,8.833,8.833l-2.6,1.5a.5.5,0,0,0,.5.866l2.6-1.5-.477-.826A25.868,25.868,0,0,1,55.491,29h-3a.5.5,0,0,0,0,1h3a25.868,25.868,0,0,1-3.707,12.9l.478-.828-2.6-1.5a.5.5,0,1,0-.5.866l2.6,1.5a26.132,26.132,0,0,1-8.833,8.833l-1.5-2.6a.5.5,0,1,0-.866.5l1.5,2.6.827-.477A25.869,25.869,0,0,1,30,55.5v-3a.5.5,0,1,0-1,0v3a25.87,25.87,0,0,1-12.067-3.229l1.5-2.6a.5.5,0,1,0-.866-.5l-1.5,2.6a26.133,26.133,0,0,1-8.833-8.833l2.6-1.5a.5.5,0,1,0-.5-.866l-2.6,1.5A25.87,25.87,0,0,1,3.5,30h3a.5.5,0,0,0,0-1h-3A25.87,25.87,0,0,1,6.729,16.933l2.6,1.5a.5.5,0,0,0,.5-.866l-2.6-1.5a26.133,26.133,0,0,1,8.833-8.833l1.5,2.6a.5.5,0,1,0,.866-.5l-1.5-2.6A25.87,25.87,0,0,1,29,3.5Z" fill="none" stroke="#6e99ac" stroke-width="1"/><path d="M16.109,7.207q.4-.243.815-.471Z" fill="#a8abff"/><path d="M6.732,16.927q.227-.411.469-.812Z" fill="#a8abff"/><path d="M7.2,42.887q-.243-.4-.471-.816Z" fill="#a8abff"/><path d="M16.927,52.266q-.415-.23-.822-.474Z" fill="#a8abff"/><path d="M29.46,55.5h0Z" fill="#a8abff"/><path d="M55.5,29.553c0-.018,0-.035,0-.053s0-.035,0-.053Z" fill="#a8abff"/><path d="M42.062,6.733q.416.23.824.476Z" fill="#a8abff"/><path d="M96,24a4,4,0,1,1-4-4A4,4,0,0,1,96,24Z" fill="#6e99ac"/><path d="M78.031,71.941l.277.416Zm-1.209.806-.277-.416ZM29.5,29.5l-.379.326a.5.5,0,0,0,.687.067ZM17.379,14.674a.5.5,0,1,0-.757.653Zm23.93,6.22a.5.5,0,0,0-.616-.788ZM72.543,48.2l.389.314Zm-7.3-6.489.39-.313h0ZM70.458,48.2l-.39.313ZM51,48.962l-.371-.336ZM89.592,57l-.318.386ZM77.459,96.07A3.068,3.068,0,0,0,80.527,93h-1a2.068,2.068,0,0,1-2.068,2.068Zm3.068-23.061a1.784,1.784,0,0,0-2.773-1.484l.555.832a.784.784,0,0,1,1.219.652Zm-2.773-1.484-1.209.806.555.832,1.209-.806Zm-1.209.806a2.068,2.068,0,0,1-1.147.347v1a3.068,3.068,0,0,0,1.7-.515Zm-73.477.347A3.068,3.068,0,0,0,0,75.745H1a2.068,2.068,0,0,1,2.068-2.067ZM0,75.745V93H1V75.745ZM0,93A3.068,3.068,0,0,0,3.068,96.07v-1A2.068,2.068,0,0,1,1,93ZM3.068,96.07H77.459v-1H3.068ZM29.5,58A28.5,28.5,0,0,1,1,29.5H0A29.5,29.5,0,0,0,29.5,59ZM1,29.5A28.5,28.5,0,0,1,29.5,1V0A29.5,29.5,0,0,0,0,29.5Zm28.879-.326-12.5-14.5-.757.653,12.5,14.5Zm-.07.72,11.5-9-.616-.788-11.5,9ZM91.5,26V55h1V26Zm1,0a2.846,2.846,0,0,0-.549-1.72l-.8.606A1.85,1.85,0,0,1,91.5,26Zm-.549-1.72a1.857,1.857,0,0,0-1.469-.78v1a.863.863,0,0,1,.674.386ZM52.519,56.5a.864.864,0,0,1-.676-.388A1.851,1.851,0,0,1,51.5,55h-1a2.848,2.848,0,0,0,.547,1.717,1.859,1.859,0,0,0,1.472.783Zm37.963,1a1.859,1.859,0,0,0,1.472-.783A2.848,2.848,0,0,0,92.5,55h-1a1.851,1.851,0,0,1-.343,1.112.864.864,0,0,1-.675.388ZM72.932,48.518l5.219-6.485-.779-.627-5.219,6.485Zm5.219-6.485L91.943,24.9l-.779-.627L77.372,41.406ZM91.943,24.9l.067-.083-.779-.627-.067.083ZM64.883,41.368,51.021,55.652l.718.7L65.6,42.064Zm5.964,6.523L65.632,41.4l-.779.627,5.216,6.488ZM77.4,42.064l0,0,.718-.7,0,0Zm0,0,13.859,14.28.718-.7L78.12,41.371Zm-5.25,5.823a.773.773,0,0,1-1.305,0l-.779.626a1.766,1.766,0,0,0,2.864,0ZM75.4,72.678H61.056v1H75.4Zm-14.342,0H3.068v1H61.056Zm-.692-2.109a18.209,18.209,0,0,0,.2,2.683l.989-.147a17.2,17.2,0,0,1-.187-2.536ZM80.527,93V88.065h-1V93Zm0-4.937V73.009h-1V88.065Zm-.455.5A18.07,18.07,0,0,0,96.5,70.568h-1a17.07,17.07,0,0,1-15.518,17ZM57.979,24.5h32.5v-1h-32.5ZM29.5,1A28.509,28.509,0,0,1,57.488,24.094l.982-.189A29.509,29.509,0,0,0,29.5,0ZM57.488,24.094A28.654,28.654,0,0,1,58,29.5h1a29.653,29.653,0,0,0-.53-5.594ZM51.5,55V48.962h-1V55ZM58,29.5a28.394,28.394,0,0,1-7.371,19.126l.741.671A29.394,29.394,0,0,0,59,29.5ZM50.629,48.626A28.426,28.426,0,0,1,29.5,58v1a29.426,29.426,0,0,0,21.871-9.7Zm15-7.224-6.9-8.566-.779.627,6.9,8.566Zm1.639,15.1H52.519v1H67.271Zm11.161-4a18,18,0,0,0-11.479,4.114l.636.772A17,17,0,0,1,78.432,53.5ZM66.953,56.614a18.033,18.033,0,0,0-6.59,13.954h1a17.033,17.033,0,0,1,6.225-13.182ZM90.481,56.5h-.889v1h.889ZM96.5,70.568a18.033,18.033,0,0,0-6.59-13.954l-.636.772A17.033,17.033,0,0,1,95.5,70.568ZM89.91,56.614A18,18,0,0,0,78.432,52.5v1a17,17,0,0,1,10.843,3.886Z" fill="#6e99ac"/></svg>