<svg xmlns="http://www.w3.org/2000/svg" width="96" height="96" viewBox="0 0 96 96"><g transform="translate(-2184 -2325)"><g transform="translate(2183.052 2325)"><path d="M12,43V92H86V49H64.5A3.759,3.759,0,0,1,62,46.5V41H37.5c-.132.713-.422,1.136-2,2Zm6,5a2,2,0,0,0-2,2V83a2,2,0,0,0,2,2H51a2,2,0,0,0,2-2V50a2,2,0,0,0-2-2Zm42,9a2,2,0,0,0-2,2V74a2,2,0,0,0,2,2H81a2,2,0,0,0,2-2V59a2,2,0,0,0-2-2Z" fill="#6e99ac" fill-rule="evenodd"/><path d="M8,92.043H95.948a.5.5,0,0,1,.5.5V93.5a2,2,0,0,1-2,2h-91a2,2,0,0,1-2-2v-.958a.5.5,0,0,1,.5-.5Z" fill="#fff" stroke="#000577" stroke-width="1"/><path d="M75.733,42.111a.5.5,0,0,0-.916.4Zm6.825.4a.5.5,0,0,0-.916-.4ZM5,6A.5.5,0,0,0,6,6ZM6,.5a.5.5,0,0,0-1,0ZM12,6a.5.5,0,0,0,1,0ZM13,.5a.5.5,0,0,0-1,0ZM19,6a.5.5,0,0,0,1,0ZM20,.5a.5.5,0,0,0-1,0ZM26,6a.5.5,0,1,0,1,0ZM27,.5a.5.5,0,0,0-1,0ZM33,6a.5.5,0,0,0,1,0ZM34,.5a.5.5,0,0,0-1,0ZM61.5,63a.5.5,0,0,0,0,1Zm18,1a.5.5,0,0,0,0-1Zm-18-4a.5.5,0,0,0,0,1Zm18,1a.5.5,0,0,0,0-1Zm-18,5a.5.5,0,0,0,0,1Zm18,1a.5.5,0,0,0,0-1Zm-18,2a.5.5,0,0,0,0,1Zm18,1a.5.5,0,0,0,0-1Zm-18,2a.5.5,0,0,0,0,1Zm18,1a.5.5,0,0,0,0-1Zm-.813-28.956a3.223,3.223,0,0,1-2.954-1.934l-.916.4a4.223,4.223,0,0,0,3.871,2.533Zm2.954-1.934a3.223,3.223,0,0,1-2.954,1.934v1a4.223,4.223,0,0,0,3.871-2.533ZM64.978,17.5H92.522v-1H64.978ZM95,19.978V46.033h1V19.978ZM64.978,48.511A2.478,2.478,0,0,1,62.5,46.033h-1a3.478,3.478,0,0,0,3.478,3.478ZM95,46.033a2.478,2.478,0,0,1-2.478,2.478v1A3.478,3.478,0,0,0,96,46.033ZM92.522,17.5A2.478,2.478,0,0,1,95,19.978h1A3.478,3.478,0,0,0,92.522,16.5Zm-27.544-1A3.478,3.478,0,0,0,61.5,19.978h1A2.478,2.478,0,0,1,64.978,17.5ZM3.5,4h32V3H3.5ZM2,41V5.5H1V41Zm1.5,1.5A1.5,1.5,0,0,1,2,41H1a2.5,2.5,0,0,0,2.5,2.5ZM37,41a1.5,1.5,0,0,1-1.5,1.5v1A2.5,2.5,0,0,0,38,41ZM35.5,4A1.5,1.5,0,0,1,37,5.5h1A2.5,2.5,0,0,0,35.5,3ZM3.5,3A2.5,2.5,0,0,0,1,5.5H2A1.5,1.5,0,0,1,3.5,4ZM6,6V.5H5V6Zm7,0V.5H12V6Zm7,0V.5H19V6Zm7,0V.5H26V6Zm7,0V.5H33V6ZM6.5,11.5h2v-1h-2ZM9,12v2h1V12Zm-.5,2.5h-2v1h2ZM6,14V12H5v2Zm.5.5A.5.5,0,0,1,6,14H5a1.5,1.5,0,0,0,1.5,1.5ZM9,14a.5.5,0,0,1-.5.5v1A1.5,1.5,0,0,0,10,14Zm-.5-2.5A.5.5,0,0,1,9,12h1a1.5,1.5,0,0,0-1.5-1.5Zm-2-1A1.5,1.5,0,0,0,5,12H6a.5.5,0,0,1,.5-.5Zm6,1h2v-1h-2ZM15,12v2h1V12Zm-.5,2.5h-2v1h2ZM12,14V12H11v2Zm.5.5A.5.5,0,0,1,12,14H11a1.5,1.5,0,0,0,1.5,1.5ZM15,14a.5.5,0,0,1-.5.5v1A1.5,1.5,0,0,0,16,14Zm-.5-2.5a.5.5,0,0,1,.5.5h1a1.5,1.5,0,0,0-1.5-1.5Zm-2-1A1.5,1.5,0,0,0,11,12h1a.5.5,0,0,1,.5-.5Zm6,1h2v-1h-2ZM21,12v2h1V12Zm-.5,2.5h-2v1h2ZM18,14V12H17v2Zm.5.5A.5.5,0,0,1,18,14H17a1.5,1.5,0,0,0,1.5,1.5ZM21,14a.5.5,0,0,1-.5.5v1A1.5,1.5,0,0,0,22,14Zm-.5-2.5a.5.5,0,0,1,.5.5h1a1.5,1.5,0,0,0-1.5-1.5Zm-2-1A1.5,1.5,0,0,0,17,12h1a.5.5,0,0,1,.5-.5Zm6,1h2v-1h-2ZM27,12v2h1V12Zm-.5,2.5h-2v1h2ZM24,14V12H23v2Zm.5.5A.5.5,0,0,1,24,14H23a1.5,1.5,0,0,0,1.5,1.5ZM27,14a.5.5,0,0,1-.5.5v1A1.5,1.5,0,0,0,28,14Zm-.5-2.5a.5.5,0,0,1,.5.5h1a1.5,1.5,0,0,0-1.5-1.5Zm-2-1A1.5,1.5,0,0,0,23,12h1a.5.5,0,0,1,.5-.5Zm6,1h2v-1h-2ZM33,12v2h1V12Zm-.5,2.5h-2v1h2ZM30,14V12H29v2Zm.5.5A.5.5,0,0,1,30,14H29a1.5,1.5,0,0,0,1.5,1.5ZM33,14a.5.5,0,0,1-.5.5v1A1.5,1.5,0,0,0,34,14Zm-.5-2.5a.5.5,0,0,1,.5.5h1a1.5,1.5,0,0,0-1.5-1.5Zm-2-1A1.5,1.5,0,0,0,29,12h1a.5.5,0,0,1,.5-.5Zm-24,7h2v-1h-2ZM9,18v2h1V18Zm-.5,2.5h-2v1h2ZM6,20V18H5v2Zm.5.5A.5.5,0,0,1,6,20H5a1.5,1.5,0,0,0,1.5,1.5ZM9,20a.5.5,0,0,1-.5.5v1A1.5,1.5,0,0,0,10,20Zm-.5-2.5A.5.5,0,0,1,9,18h1a1.5,1.5,0,0,0-1.5-1.5Zm-2-1A1.5,1.5,0,0,0,5,18H6a.5.5,0,0,1,.5-.5Zm6,1h2v-1h-2ZM15,18v2h1V18Zm-.5,2.5h-2v1h2ZM12,20V18H11v2Zm.5.5A.5.5,0,0,1,12,20H11a1.5,1.5,0,0,0,1.5,1.5ZM15,20a.5.5,0,0,1-.5.5v1A1.5,1.5,0,0,0,16,20Zm-.5-2.5a.5.5,0,0,1,.5.5h1a1.5,1.5,0,0,0-1.5-1.5Zm-2-1A1.5,1.5,0,0,0,11,18h1a.5.5,0,0,1,.5-.5Zm6,1h2v-1h-2ZM21,18v2h1V18Zm-.5,2.5h-2v1h2ZM18,20V18H17v2Zm.5.5A.5.5,0,0,1,18,20H17a1.5,1.5,0,0,0,1.5,1.5ZM21,20a.5.5,0,0,1-.5.5v1A1.5,1.5,0,0,0,22,20Zm-.5-2.5a.5.5,0,0,1,.5.5h1a1.5,1.5,0,0,0-1.5-1.5Zm-2-1A1.5,1.5,0,0,0,17,18h1a.5.5,0,0,1,.5-.5Zm6,1h2v-1h-2ZM27,18v2h1V18Zm-.5,2.5h-2v1h2ZM24,20V18H23v2Zm.5.5A.5.5,0,0,1,24,20H23a1.5,1.5,0,0,0,1.5,1.5ZM27,20a.5.5,0,0,1-.5.5v1A1.5,1.5,0,0,0,28,20Zm-.5-2.5a.5.5,0,0,1,.5.5h1a1.5,1.5,0,0,0-1.5-1.5Zm-2-1A1.5,1.5,0,0,0,23,18h1a.5.5,0,0,1,.5-.5Zm6,1h2v-1h-2ZM33,18v2h1V18Zm-.5,2.5h-2v1h2ZM30,20V18H29v2Zm.5.5A.5.5,0,0,1,30,20H29a1.5,1.5,0,0,0,1.5,1.5ZM33,20a.5.5,0,0,1-.5.5v1A1.5,1.5,0,0,0,34,20Zm-.5-2.5a.5.5,0,0,1,.5.5h1a1.5,1.5,0,0,0-1.5-1.5Zm-2-1A1.5,1.5,0,0,0,29,18h1a.5.5,0,0,1,.5-.5Zm-24,7h2v-1h-2ZM9,24v2h1V24Zm-.5,2.5h-2v1h2ZM6,26V24H5v2Zm.5.5A.5.5,0,0,1,6,26H5a1.5,1.5,0,0,0,1.5,1.5ZM9,26a.5.5,0,0,1-.5.5v1A1.5,1.5,0,0,0,10,26Zm-.5-2.5A.5.5,0,0,1,9,24h1a1.5,1.5,0,0,0-1.5-1.5Zm-2-1A1.5,1.5,0,0,0,5,24H6a.5.5,0,0,1,.5-.5Zm6,1h2v-1h-2ZM15,24v2h1V24Zm-.5,2.5h-2v1h2ZM12,26V24H11v2Zm.5.5A.5.5,0,0,1,12,26H11a1.5,1.5,0,0,0,1.5,1.5ZM15,26a.5.5,0,0,1-.5.5v1A1.5,1.5,0,0,0,16,26Zm-.5-2.5a.5.5,0,0,1,.5.5h1a1.5,1.5,0,0,0-1.5-1.5Zm-2-1A1.5,1.5,0,0,0,11,24h1a.5.5,0,0,1,.5-.5Zm6,1h2v-1h-2ZM21,24v2h1V24Zm-.5,2.5h-2v1h2ZM18,26V24H17v2Zm.5.5A.5.5,0,0,1,18,26H17a1.5,1.5,0,0,0,1.5,1.5ZM21,26a.5.5,0,0,1-.5.5v1A1.5,1.5,0,0,0,22,26Zm-.5-2.5a.5.5,0,0,1,.5.5h1a1.5,1.5,0,0,0-1.5-1.5Zm-2-1A1.5,1.5,0,0,0,17,24h1a.5.5,0,0,1,.5-.5Zm6,1h2v-1h-2ZM27,24v2h1V24Zm-.5,2.5h-2v1h2ZM24,26V24H23v2Zm.5.5A.5.5,0,0,1,24,26H23a1.5,1.5,0,0,0,1.5,1.5ZM27,26a.5.5,0,0,1-.5.5v1A1.5,1.5,0,0,0,28,26Zm-.5-2.5a.5.5,0,0,1,.5.5h1a1.5,1.5,0,0,0-1.5-1.5Zm-2-1A1.5,1.5,0,0,0,23,24h1a.5.5,0,0,1,.5-.5Zm6,1h2v-1h-2ZM33,24v2h1V24Zm-.5,2.5h-2v1h2ZM30,26V24H29v2Zm.5.5A.5.5,0,0,1,30,26H29a1.5,1.5,0,0,0,1.5,1.5ZM33,26a.5.5,0,0,1-.5.5v1A1.5,1.5,0,0,0,34,26Zm-.5-2.5a.5.5,0,0,1,.5.5h1a1.5,1.5,0,0,0-1.5-1.5Zm-2-1A1.5,1.5,0,0,0,29,24h1a.5.5,0,0,1,.5-.5Zm-24,7h2v-1h-2ZM9,30v2h1V30Zm-.5,2.5h-2v1h2ZM6,32V30H5v2Zm.5.5A.5.5,0,0,1,6,32H5a1.5,1.5,0,0,0,1.5,1.5ZM9,32a.5.5,0,0,1-.5.5v1A1.5,1.5,0,0,0,10,32Zm-.5-2.5A.5.5,0,0,1,9,30h1a1.5,1.5,0,0,0-1.5-1.5Zm-2-1A1.5,1.5,0,0,0,5,30H6a.5.5,0,0,1,.5-.5Zm6,1h2v-1h-2ZM15,30v2h1V30Zm-.5,2.5h-2v1h2ZM12,32V30H11v2Zm.5.5A.5.5,0,0,1,12,32H11a1.5,1.5,0,0,0,1.5,1.5ZM15,32a.5.5,0,0,1-.5.5v1A1.5,1.5,0,0,0,16,32Zm-.5-2.5a.5.5,0,0,1,.5.5h1a1.5,1.5,0,0,0-1.5-1.5Zm-2-1A1.5,1.5,0,0,0,11,30h1a.5.5,0,0,1,.5-.5Zm6,1h2v-1h-2ZM21,30v2h1V30Zm-.5,2.5h-2v1h2ZM18,32V30H17v2Zm.5.5A.5.5,0,0,1,18,32H17a1.5,1.5,0,0,0,1.5,1.5ZM21,32a.5.5,0,0,1-.5.5v1A1.5,1.5,0,0,0,22,32Zm-.5-2.5a.5.5,0,0,1,.5.5h1a1.5,1.5,0,0,0-1.5-1.5Zm-2-1A1.5,1.5,0,0,0,17,30h1a.5.5,0,0,1,.5-.5Zm6,1h2v-1h-2ZM27,30v2h1V30Zm-.5,2.5h-2v1h2ZM24,32V30H23v2Zm.5.5A.5.5,0,0,1,24,32H23a1.5,1.5,0,0,0,1.5,1.5ZM27,32a.5.5,0,0,1-.5.5v1A1.5,1.5,0,0,0,28,32Zm-.5-2.5a.5.5,0,0,1,.5.5h1a1.5,1.5,0,0,0-1.5-1.5Zm-2-1A1.5,1.5,0,0,0,23,30h1a.5.5,0,0,1,.5-.5Zm6,1h2v-1h-2ZM33,30v2h1V30Zm-.5,2.5h-2v1h2ZM30,32V30H29v2Zm.5.5A.5.5,0,0,1,30,32H29a1.5,1.5,0,0,0,1.5,1.5ZM33,32a.5.5,0,0,1-.5.5v1A1.5,1.5,0,0,0,34,32Zm-.5-2.5a.5.5,0,0,1,.5.5h1a1.5,1.5,0,0,0-1.5-1.5Zm-2-1A1.5,1.5,0,0,0,29,30h1a.5.5,0,0,1,.5-.5ZM89.9,91.542H8v1H89.9Zm0,1h6.052v-1H89.9Zm6.052,0V93.5h1v-.958ZM94.448,95h-91v1h91Zm-92.5-1.5v-.958h-1V93.5Zm0-.958H8v-1H1.948Zm0,0v-1a1,1,0,0,0-1,1Zm94,0h1a1,1,0,0,0-1-1Zm0,.958a1.5,1.5,0,0,1-1.5,1.5v1a2.5,2.5,0,0,0,2.5-2.5ZM3.448,95a1.5,1.5,0,0,1-1.5-1.5h-1a2.5,2.5,0,0,0,2.5,2.5ZM61.5,64h18V63h-18Zm0-3h18V60h-18Zm0,6h18V66h-18Zm0,3h18V69h-18Zm0,3h18V72h-18ZM8.5,92.042V43h-1V92.042ZM35.5,42.5H8v1H35.5ZM8,42.5H3.5v1H8Zm29-37v32h1V5.5Zm0,32V41h1V37.5Zm.5.5H62V37H37.5Zm25,8.033V37.5h-1v8.533Zm0-8.533V19.978h-1V37.5ZM89.4,49.011V92.042h1V49.011Zm3.126-.5H89.9v1h2.626Zm-2.626,0H64.978v1H89.9Z" fill="#6e99ac"/><path d="M70.393,28.166v.512a8.7,8.7,0,0,1-.655,3.313l-2.863,6.952a2.978,2.978,0,0,0,2.754,4.112H87.536a2.978,2.978,0,0,0,2.753-4.112l-2.863-6.952a8.7,8.7,0,0,1-.655-3.313v-.512a8.189,8.189,0,1,0-16.378,0Z" fill="#6e99ac"/></g></g></svg>