<svg width="24" height="23" viewBox="0 0 24 23" fill="none" xmlns="http://www.w3.org/2000/svg">
<path d="M13.9239 21.0176C13.7328 21.0652 13.5381 21.1075 13.3447 21.1431C12.8393 21.2371 12.5052 21.7231 12.5987 22.229C12.6449 22.4778 12.7862 22.6851 12.9781 22.8204C13.1758 22.9596 13.4275 23.0225 13.684 22.9748C13.9143 22.932 14.1463 22.8818 14.374 22.825C14.8731 22.7007 15.1771 22.1952 15.0526 21.6963C14.9284 21.1971 14.4232 20.8933 13.9239 21.0176Z" fill="#F5A243"/>
<path d="M20.8123 8.53379C20.8775 8.73041 21.0021 8.89092 21.1594 9.00183C21.3927 9.16613 21.6979 9.22141 21.9892 9.12509C22.4776 8.96293 22.7422 8.43632 22.5806 7.94821C22.507 7.72569 22.4253 7.50248 22.3383 7.28514C22.1473 6.80754 21.6055 6.57501 21.1277 6.76605C20.6503 6.95699 20.4177 7.49889 20.6089 7.97665C20.682 8.15932 20.7505 8.34683 20.8123 8.53379Z" fill="#F5A243"/>
<path d="M16.9508 19.6882C16.7865 19.7966 16.6169 19.9016 16.4461 20C16.0004 20.2571 15.8478 20.8267 16.1048 21.2722C16.1745 21.3934 16.2675 21.4925 16.3745 21.5682C16.6618 21.7703 17.052 21.8006 17.3769 21.6134C17.58 21.4963 17.7819 21.3717 17.9776 21.2423C18.4066 20.9589 18.5247 20.381 18.2411 19.9518C17.9576 19.5225 17.3799 19.4045 16.9508 19.6882Z" fill="#F5A243"/>
<path d="M23.1598 11.1355C23.1396 10.6215 22.7066 10.2214 22.1924 10.2414C21.6788 10.2617 21.2784 10.6948 21.2986 11.2087C21.3063 11.4052 21.3083 11.6046 21.3038 11.8009C21.2965 12.1232 21.4542 12.4106 21.6992 12.5833C21.8452 12.6861 22.0224 12.7483 22.2144 12.7527C22.7285 12.7641 23.1545 12.3564 23.1659 11.842C23.1711 11.6075 23.1691 11.3699 23.1598 11.1355Z" fill="#F5A243"/>
<path d="M20.6596 17.2379C20.2474 16.9286 19.6642 17.0126 19.3555 17.4241C19.2373 17.5816 19.1127 17.7373 18.9853 17.8871C18.6521 18.2786 18.6991 18.8665 19.0906 19.2C19.1129 19.2189 19.1355 19.2363 19.1589 19.2526C19.548 19.527 20.0889 19.4639 20.4035 19.0947C20.5558 18.9159 20.7042 18.73 20.8455 18.5418C21.1542 18.1303 21.0707 17.5467 20.6596 17.2379Z" fill="#F5A243"/>
<path d="M22.029 13.8715C21.5382 13.7176 21.0155 13.9908 20.8617 14.4816C20.8028 14.6691 20.7376 14.8576 20.6672 15.0421C20.5125 15.4483 20.6607 15.8952 21.0004 16.1347C21.0627 16.1785 21.1313 16.2156 21.2058 16.2438C21.6864 16.4271 22.2245 16.186 22.4077 15.7053C22.4913 15.4859 22.5689 15.2617 22.6391 15.0388C22.7927 14.5479 22.5197 14.0254 22.029 13.8715Z" fill="#F5A243"/>
<path d="M9.8608 21.1518C9.02811 21.0023 8.22933 20.7477 7.47188 20.3926C7.46292 20.3879 7.4549 20.3826 7.44549 20.3783C7.267 20.2943 7.0888 20.2043 6.91609 20.1103C6.91549 20.1096 6.9144 20.1091 6.91345 20.1087C6.59656 19.9342 6.28728 19.7411 5.98683 19.5296C1.60561 16.4434 0.55219 10.3681 3.63864 5.98691C4.30978 5.03459 5.12196 4.24009 6.02742 3.61039C6.03857 3.60262 6.04973 3.5949 6.06078 3.58708C9.25147 1.38861 13.5839 1.24045 16.9719 3.49958L16.2443 4.55096C16.042 4.8436 16.1664 5.05685 16.5206 5.02498L19.6814 4.742C20.036 4.71013 20.248 4.4034 20.1527 4.06095L19.3039 1.00279C19.2089 0.659948 18.9656 0.618911 18.7631 0.9115L18.0337 1.96537C15.5474 0.296341 12.5653 -0.340084 9.60537 0.17318C9.30725 0.224775 9.01332 0.287925 8.72342 0.361433C8.72118 0.361831 8.71938 0.36208 8.71759 0.362479C8.70639 0.365218 8.69503 0.368853 8.68412 0.371891C6.13175 1.02734 3.90484 2.51598 2.31579 4.63996C2.3024 4.65584 2.2886 4.67138 2.27595 4.68866C2.22311 4.75983 2.17067 4.83264 2.11932 4.90545C2.03536 5.02478 1.95258 5.14709 1.8734 5.26941C1.86349 5.28415 1.85592 5.29914 1.84725 5.31403C0.535954 7.34602 -0.0965359 9.6952 0.0119337 12.0868C0.0121827 12.0947 0.0117345 12.1026 0.0119337 12.1107C0.022442 12.3443 0.0409685 12.5811 0.0661187 12.8143C0.0674634 12.8294 0.0708001 12.8436 0.07334 12.8586C0.0993369 13.0931 0.131957 13.3281 0.172845 13.5631C0.588396 15.9605 1.71931 18.1178 3.41394 19.7964C3.41787 19.8003 3.42195 19.8046 3.42594 19.8087C3.42733 19.8102 3.42888 19.811 3.43022 19.8125C3.88551 20.2615 4.38075 20.6769 4.91398 21.0524C6.30945 22.0357 7.86333 22.6857 9.53211 22.9852C10.0385 23.0762 10.5221 22.7391 10.613 22.233C10.7038 21.7266 10.367 21.2425 9.8608 21.1518Z" fill="#F5A243"/>
<path d="M11.0126 4.05957C10.5962 4.05957 10.2588 4.39723 10.2588 4.81313V12.3207L17.125 15.8702C17.2356 15.9274 17.3539 15.9543 17.4703 15.9543C17.743 15.9543 18.0064 15.8058 18.1404 15.5467C18.3314 15.1769 18.1868 14.7225 17.817 14.5315L11.7657 11.403V4.81313C11.7656 4.39723 11.4286 4.05957 11.0126 4.05957Z" fill="#F5A243"/>
</svg>
