<svg width="48" height="32" viewBox="0 0 48 32" fill="none" xmlns="http://www.w3.org/2000/svg">
<path d="M48 16C48 24.8366 32.1746 32 20.7273 32C9.27992 32 0 24.8366 0 16C0 7.16344 9.27992 0 20.7273 0C32.1746 0 48 7.16344 48 16Z" fill="#F5A243"/>
<path d="M13 16.2C18.5 15.7333 30.6 15.08 35 16.2M35 16.2L29.5 12M35 16.2L29.5 19" stroke="white" stroke-width="2" stroke-linecap="round"/>
<path d="M40.0003 15.4985C40.0003 16.8792 34.5 20.5 33 19C31.3348 19.3256 35.4989 16.9986 35.4996 15.9982C35.5002 14.9978 31.8821 12.8535 33.4996 13.0001C34.8803 13.0001 40.0003 14.1178 40.0003 15.4985Z" fill="#F5A243"/>
</svg>
