<svg width="20" height="29" viewBox="0 0 20 29" fill="none" xmlns="http://www.w3.org/2000/svg">
<path d="M9.75059 28.36C9.13155 28.36 8.5772 28.039 8.26779 27.5012C8.26452 27.4955 8.26136 27.4898 8.2582 27.4841L1.22571 14.6121C-0.452961 11.5395 -0.404827 7.89258 1.35449 4.85651C3.07564 1.88624 6.13276 0.0715923 9.5323 0.00224332C9.67753 -0.000747773 9.82354 -0.000747773 9.96866 0.00224332C13.3683 0.0715923 16.4254 1.88624 18.1466 4.85651C19.9059 7.89258 19.954 11.5395 18.2754 14.6121L11.2429 27.4841C11.2397 27.4898 11.2366 27.4955 11.2333 27.5012C10.9239 28.0389 10.3696 28.36 9.75059 28.36ZM9.75054 1.77253C9.68966 1.77253 9.62895 1.77314 9.56836 1.77435C6.79334 1.83096 4.296 3.31538 2.88803 5.74519C1.44195 8.24082 1.40196 11.2378 2.78113 13.7622L9.75054 26.5187L16.7199 13.7623C18.0991 11.2378 18.0591 8.24082 16.6129 5.74519C15.205 3.31543 12.7076 1.83096 9.9326 1.77435C9.87217 1.77314 9.81141 1.77253 9.75054 1.77253Z" fill="#F5A243"/>
<path d="M9.75081 12.8508C7.55175 12.8508 5.7627 11.0617 5.7627 8.86263C5.7627 6.66357 7.55175 4.87451 9.75081 4.87451C11.9499 4.87451 13.7389 6.66357 13.7389 8.86263C13.7389 11.0617 11.9499 12.8508 9.75081 12.8508ZM9.75081 6.64701C8.52912 6.64701 7.53519 7.64094 7.53519 8.86263C7.53519 10.0843 8.52912 11.0783 9.75081 11.0783C10.9725 11.0783 11.9664 10.0843 11.9664 8.86263C11.9664 7.64094 10.9725 6.64701 9.75081 6.64701Z" fill="#F5A243"/>
</svg>
