<svg width="37" height="50" viewBox="0 0 37 50" fill="none" xmlns="http://www.w3.org/2000/svg">
<g filter="url(#filter0_d)">
<path d="M16.4402 43C15.5234 43 14.7025 42.5245 14.2443 41.7281C14.2394 41.7197 14.2347 41.7113 14.2301 41.7028L3.81522 22.6399C1.32918 18.0896 1.40047 12.6886 4.00594 8.19229C6.5549 3.79345 11.0824 1.10603 16.1169 1.00332C16.332 0.998893 16.5483 0.998893 16.7632 1.00332C21.7978 1.10603 26.3253 3.79345 28.8743 8.19229C31.4798 12.6886 31.5511 18.0895 29.0651 22.6399L18.6502 41.7028C18.6456 41.7113 18.6409 41.7197 18.636 41.7281C18.1779 42.5245 17.357 43 16.4402 43ZM16.4401 3.62504C16.35 3.62504 16.2601 3.62594 16.1703 3.62775C12.0607 3.71158 8.36221 5.90994 6.27706 9.5084C4.13547 13.2043 4.07624 17.6428 6.11874 21.3813L16.4401 40.273L26.7615 21.3813C28.804 17.6428 28.7448 13.2043 26.6031 9.5084C24.5179 5.91002 20.8195 3.71158 16.7098 3.62775C16.6203 3.62594 16.5303 3.62504 16.4401 3.62504Z" fill="#F5A243"/>
<path d="M16.4404 20.0317C13.1837 20.0317 10.5342 17.3822 10.5342 14.1255C10.5342 10.8688 13.1837 8.21924 16.4404 8.21924C19.6971 8.21924 22.3467 10.8688 22.3467 14.1255C22.3467 17.3822 19.6972 20.0317 16.4404 20.0317ZM16.4404 10.8442C14.6311 10.8442 13.1592 12.3162 13.1592 14.1255C13.1592 15.9348 14.6311 17.4067 16.4404 17.4067C18.2497 17.4067 19.7217 15.9348 19.7217 14.1255C19.7217 12.3162 18.2497 10.8442 16.4404 10.8442Z" fill="#F5A243"/>
</g>
<defs>
<filter id="filter0_d" x="0" y="0" width="36.8803" height="50" filterUnits="userSpaceOnUse" color-interpolation-filters="sRGB">
<feFlood flood-opacity="0" result="BackgroundImageFix"/>
<feColorMatrix in="SourceAlpha" type="matrix" values="0 0 0 0 0 0 0 0 0 0 0 0 0 0 0 0 0 0 127 0"/>
<feOffset dx="2" dy="3"/>
<feGaussianBlur stdDeviation="2"/>
<feColorMatrix type="matrix" values="0 0 0 0 0.960784 0 0 0 0 0.635294 0 0 0 0 0.262745 0 0 0 0.3 0"/>
<feBlend mode="normal" in2="BackgroundImageFix" result="effect1_dropShadow"/>
<feBlend mode="normal" in="SourceGraphic" in2="effect1_dropShadow" result="shape"/>
</filter>
</defs>
</svg>
