<svg width="60" height="60" viewBox="0 0 60 60" fill="none" xmlns="http://www.w3.org/2000/svg">
<path d="M51.4729 42.8937C51.4142 42.8318 51.3473 42.7779 51.274 42.7334C49.6229 41.4113 47.7679 40.3344 45.7639 39.5582C45.712 39.5328 45.6577 39.5119 45.601 39.4962C43.5412 38.7182 41.3276 38.2573 39.0194 38.1725C38.8455 37.9312 38.5628 37.7736 38.2428 37.7736C37.9228 37.7736 37.64 37.9312 37.4663 38.1725C35.1579 38.2574 32.9443 38.7182 30.8846 39.4962C30.8278 39.512 30.7733 39.533 30.7214 39.5584C28.7175 40.3347 26.8625 41.4115 25.2114 42.7334C25.138 42.7779 25.0711 42.8318 25.0123 42.8939C20.3417 46.7274 17.3569 52.5428 17.3569 59.0425C17.3569 59.5714 17.7855 60 18.3144 60C18.8433 60 19.2718 59.5714 19.2718 59.0425C19.2718 53.856 21.3648 49.1496 24.7494 45.7215V58.8356C24.7494 58.9067 24.7577 58.9759 24.7724 59.0425C24.867 59.4717 25.2491 59.7931 25.7069 59.7931C26.1647 59.7931 26.5466 59.4717 26.6414 59.0425C26.656 58.9759 26.6643 58.9067 26.6643 58.8356V44.0256C27.7506 43.1862 28.9298 42.4619 30.1839 41.8709V49.9247C30.1839 50.4536 30.6125 50.8822 31.1414 50.8822H45.3441C45.873 50.8822 46.3016 50.4536 46.3016 49.9247V41.8709C47.5557 42.4619 48.735 43.1861 49.8212 44.0256V58.8356C49.8212 58.9067 49.8294 58.9759 49.8441 59.0425C49.9387 59.4717 50.3208 59.7931 50.7786 59.7931C51.2364 59.7931 51.6183 59.4717 51.7131 59.0425C51.7277 58.9759 51.736 58.9067 51.736 58.8356V45.7214C55.1208 49.1494 57.2137 53.8559 57.2137 59.0425C57.2137 59.5714 57.6422 60 58.1711 60C58.7 60 59.1286 59.5714 59.1286 59.0425C59.1284 52.5428 56.1435 46.7273 51.4729 42.8937ZM32.0986 48.9673V41.0932C33.7383 40.5304 35.4787 40.1858 37.2851 40.0956V42.561C37.2851 43.0899 37.7137 43.5185 38.2426 43.5185C38.7714 43.5185 39.2 43.0899 39.2 42.561V40.0956C41.0063 40.1858 42.7466 40.5304 44.3864 41.0931V48.9673H32.0986Z" fill="#F5A243"/>
<path d="M20.129 18.2941V0.957447C20.129 0.428553 19.7005 0 19.1716 0C18.6427 0 18.2141 0.428553 18.2141 0.957447V17.3367H14.3482V0.957447C14.3482 0.428553 13.9197 0 13.3908 0C12.8619 0 12.4333 0.428553 12.4333 0.957447V17.3367H8.56728V0.957447C8.56728 0.428553 8.13873 0 7.60984 0C7.08094 0 6.65239 0.428553 6.65239 0.957447V17.3367H2.78648V0.957447C2.78648 0.428553 2.35792 0 1.82903 0C1.30014 0 0.871582 0.428553 0.871582 0.957447V18.2941C0.871582 21.024 3.09235 23.2448 5.82222 23.2448H9.54286V59.0426C9.54286 59.5714 9.97141 60 10.5003 60C11.0292 60 11.4578 59.5714 11.4578 59.0426V23.2448H15.1784C17.9081 23.2448 20.129 21.024 20.129 18.2941ZM2.94209 19.2516H18.0585C17.6565 20.4576 16.5177 21.3299 15.1784 21.3299H5.82222C4.48294 21.3299 3.34409 20.4576 2.94209 19.2516Z" fill="#F5A243"/>
<path d="M23.0928 23.2448H27.3728C27.339 23.5961 27.3209 23.9496 27.3209 24.3032C27.3209 30.3255 32.2203 35.225 38.2427 35.225C44.2649 35.225 49.1643 30.3255 49.1643 24.3032C49.1643 23.9496 49.1461 23.5961 49.1122 23.2448H53.3567C53.8856 23.2448 54.3141 22.8162 54.3141 22.2873C54.3141 21.7584 53.8856 21.3299 53.3567 21.3299H48.7574L46.5349 12.0944C46.3154 11.1821 45.7531 10.4258 44.9519 9.96499C44.1505 9.50427 43.2145 9.39857 42.3151 9.6678L38.344 10.8567L34.3731 9.6678C33.4768 9.3992 32.5386 9.50261 31.7317 9.95861C30.9246 10.4145 30.3519 11.1645 30.1192 12.0707L27.7406 21.3298H23.0932C22.5643 21.3298 22.1357 21.7583 22.1357 22.2872C22.1357 22.8161 22.5639 23.2448 23.0928 23.2448ZM32.673 11.6258C33.022 11.4286 33.4305 11.3846 33.8234 11.5021L38.0691 12.7734C38.2483 12.827 38.439 12.827 38.6184 12.7734L42.8642 11.5021C43.2542 11.3855 43.6566 11.4291 43.9971 11.6249C44.3378 11.8209 44.5778 12.1467 44.673 12.5424L46.7877 21.3299H29.7172L31.9733 12.5473C32.0753 12.1504 32.3237 11.8232 32.673 11.6258ZM47.2493 24.3032C47.2493 29.2695 43.209 33.3101 38.2425 33.3101C33.2761 33.3101 29.2357 29.2697 29.2357 24.3032C29.2357 23.9488 29.2588 23.5953 29.2997 23.2448H47.1852C47.2262 23.5955 47.2493 23.9491 47.2493 24.3032Z" fill="#F5A243"/>
<path d="M45.3435 52.7975H37.5243C36.9954 52.7975 36.5669 53.226 36.5669 53.7549C36.5669 54.2838 36.9954 54.7124 37.5243 54.7124H45.3435C45.8724 54.7124 46.3009 54.2838 46.3009 53.7549C46.3009 53.226 45.8724 52.7975 45.3435 52.7975Z" fill="#F5A243"/>
<path d="M33.6947 52.7975H31.1415C30.6126 52.7975 30.1841 53.226 30.1841 53.7549C30.1841 54.2838 30.6126 54.7124 31.1415 54.7124H33.6947C34.2236 54.7124 34.6522 54.2838 34.6522 53.7549C34.6522 53.226 34.2236 52.7975 33.6947 52.7975Z" fill="#F5A243"/>
</svg>
