<svg width="68" height="62" viewBox="0 0 68 62" fill="none" xmlns="http://www.w3.org/2000/svg">
<g filter="url(#filter0_d)">
<path d="M13.9228 41.8015C20.3954 41.1007 27.1414 40.7451 33.9731 40.7451C41.0897 40.7451 48.1049 41.1304 54.8238 41.89C55.6135 41.9792 56.1811 42.6918 56.0919 43.4813C56.0088 44.2157 55.3862 44.7585 54.6641 44.7585C54.6102 44.7585 54.5555 44.7555 54.5008 44.7492C47.8887 44.0016 40.9823 43.6226 33.9733 43.6226C27.2446 43.6226 20.6028 43.9724 14.2327 44.6623C13.4407 44.7488 12.7328 44.1767 12.6476 43.3868C12.5618 42.597 13.133 41.8871 13.9228 41.8015ZM31.2583 26.8702C31.5319 27.1113 31.8713 27.2299 32.2095 27.2299C32.6081 27.2299 33.0046 27.0651 33.289 26.7429C33.8146 26.147 33.7576 25.2377 33.1618 24.7121C30.3872 22.2646 30.9738 17.298 33.3521 14.4928C34.9852 12.5663 35.9435 9.9485 35.9809 7.31074C36.0215 4.46795 35.0201 1.99941 33.162 0.359956C32.566 -0.165727 31.6569 -0.109077 31.1312 0.487105C30.6055 1.08293 30.6625 1.99204 31.2582 2.5179C33.7499 4.71631 33.7008 9.63162 31.1569 12.6321C27.9113 16.4612 27.1545 23.2501 31.2583 26.8702ZM40.298 14.0184C39.5083 13.9196 38.7902 14.4782 38.6909 15.2663C38.5918 16.0547 39.1506 16.7741 39.9389 16.8734C44.2263 17.4124 47.8101 18.6118 50.7363 20.267L46.2294 24.7739C45.6676 25.3358 45.6676 26.2467 46.2294 26.8085C46.7915 27.3703 47.7022 27.3703 48.2642 26.8085L53.1964 21.8763C54.062 22.5284 54.8531 23.2271 55.5709 23.9632L46.5855 32.9491C46.0237 33.5111 46.0237 34.4218 46.5857 34.9838C47.1475 35.5458 48.0584 35.5455 48.6203 34.9838L57.4315 26.1718C58.1364 27.1453 58.7365 28.1638 59.2347 29.2117L55.1265 33.3197C54.5647 33.8816 54.5647 34.7925 55.1265 35.3543C55.6885 35.9163 56.5992 35.9163 57.1612 35.3543L60.3527 32.1628C60.9872 34.3634 61.2214 36.6323 61.0827 38.849C60.731 44.4675 57.7218 50.1553 52.6508 50.1553H15.2949C10.2884 50.1553 7.77723 45.4662 7.0967 41.078C5.85236 33.0545 9.84309 23.2694 19.7579 19.1342C19.4949 21.993 20.2888 24.9004 22.5215 26.87C23.117 27.3953 24.0265 27.3387 24.5522 26.7429C25.0778 26.147 25.0208 25.2377 24.425 24.7121C21.6507 22.2649 22.2374 17.2984 24.6151 14.4928C26.2483 12.5663 27.2066 9.9485 27.2442 7.31074C27.2847 4.46795 26.2835 1.99941 24.4252 0.359956C23.8292 -0.165907 22.9201 -0.108897 22.3944 0.487105C21.8687 1.08293 21.9257 1.99222 22.5214 2.5179C25.0131 4.71631 24.964 9.63162 22.4201 12.6323C21.6524 13.538 21.024 14.6097 20.5661 15.7652C7.88046 19.9424 2.75311 31.8461 4.25337 41.5192C5.33801 48.5135 9.67224 53.033 15.2951 53.033H52.6513C58.6931 53.033 63.447 47.1434 63.9552 39.0289C64.6364 28.1458 57.5858 16.1916 40.298 14.0184Z" fill="#F5A243"/>
</g>
<defs>
<filter id="filter0_d" x="0" y="0" width="68" height="61.033" filterUnits="userSpaceOnUse" color-interpolation-filters="sRGB">
<feFlood flood-opacity="0" result="BackgroundImageFix"/>
<feColorMatrix in="SourceAlpha" type="matrix" values="0 0 0 0 0 0 0 0 0 0 0 0 0 0 0 0 0 0 127 0"/>
<feOffset dy="4"/>
<feGaussianBlur stdDeviation="2"/>
<feColorMatrix type="matrix" values="0 0 0 0 0 0 0 0 0 0 0 0 0 0 0 0 0 0 0.25 0"/>
<feBlend mode="normal" in2="BackgroundImageFix" result="effect1_dropShadow"/>
<feBlend mode="normal" in="SourceGraphic" in2="effect1_dropShadow" result="shape"/>
</filter>
</defs>
</svg>
