<svg width="60" height="68" viewBox="0 0 60 68" fill="none" xmlns="http://www.w3.org/2000/svg">
<g filter="url(#filter0_d)">
<path d="M12.2619 42.0502L9.56538 44.7468C9.19305 45.1192 9.19305 45.7228 9.56538 46.0951C9.75148 46.2812 9.99555 46.3743 10.2395 46.3743C10.4834 46.3743 10.7275 46.2812 10.9136 46.0951L13.6102 43.3986C13.9825 43.0261 13.9825 42.4225 13.6102 42.0502C13.238 41.6781 12.6343 41.6779 12.2619 42.0502Z" fill="#F5A243"/>
<path d="M37.3903 26.8627C37.2116 26.684 36.9691 26.5836 36.7162 26.5836C36.5104 26.5836 36.312 26.6511 36.1487 26.7722L33.1926 23.8161L34.1266 22.8821L36.0421 24.7977C36.2209 24.9764 36.4634 25.0768 36.7162 25.0768C36.9691 25.0768 37.2116 24.9764 37.3903 24.7977L55.3812 6.80695C55.7535 6.43449 55.7535 5.83093 55.3812 5.4586L50.202 0.279153C50.0233 0.100424 49.7807 0 49.5279 0C49.275 0 49.0325 0.100424 48.8538 0.279153L30.8628 18.2701C30.4905 18.6426 30.4905 19.2461 30.8628 19.6185L32.7782 21.5339L31.8443 22.4678L30.5042 21.1278C30.3255 20.949 30.0829 20.8486 29.8301 20.8486C29.5773 20.8486 29.3347 20.949 29.156 21.1278L27.816 22.4677L26.8822 21.5339L28.7976 19.6185C29.17 19.246 29.17 18.6425 28.7976 18.2701L10.8068 0.279153C10.6279 0.100424 10.3855 0 10.1326 0C9.87959 0 9.63717 0.100424 9.45844 0.279153L4.27925 5.45847C3.90692 5.83093 3.90692 6.43449 4.27925 6.80682L22.2701 24.7977C22.4488 24.9764 22.6914 25.0768 22.9442 25.0768C23.197 25.0768 23.4396 24.9764 23.6183 24.7977L25.5339 22.8821L26.4677 23.8159L23.5117 26.7721C23.3483 26.6509 23.15 26.5834 22.9443 26.5834C22.6915 26.5834 22.4489 26.6839 22.2702 26.8626L4.27925 44.8537C3.90692 45.2261 3.90692 45.8297 4.27925 46.202L9.45844 51.3814C9.63717 51.5601 9.87971 51.6605 10.1326 51.6605C10.3854 51.6605 10.6279 51.5601 10.8067 51.3814L20.4473 41.7407L19.8419 58.0932H16.9471C16.4206 58.0932 15.9937 58.52 15.9937 59.0466C15.9937 59.5733 16.4206 60 16.9471 60H42.7133C43.2398 60 43.6667 59.5733 43.6667 59.0466C43.6667 58.52 43.2398 58.0932 42.7133 58.0932H39.8186L39.2128 41.7404L48.8538 51.3814C49.0325 51.5601 49.275 51.6605 49.5279 51.6605C49.7807 51.6605 50.0233 51.5601 50.202 51.3814L55.3813 46.202C55.7537 45.8296 55.7537 45.226 55.3813 44.8537L37.3903 26.8627ZM50.0951 5.56538C49.7229 5.19318 49.1192 5.19318 48.7469 5.56538L34.1266 20.1856L32.8853 18.9442L49.5279 2.30161L53.3589 6.13271L36.7162 22.7753L35.4749 21.5339L50.0951 6.91386C50.4674 6.5414 50.4674 5.93784 50.0951 5.56538ZM9.56535 6.91386L24.1855 21.534L22.9442 22.7753L6.30158 6.13271L10.1326 2.30161L26.7752 18.9442L25.5339 20.1856L10.9137 5.56538C10.5414 5.19318 9.93768 5.19318 9.56548 5.56538C9.19302 5.93784 9.19302 6.5414 9.56535 6.91386ZM49.5279 49.3589L32.8853 32.7163L34.1266 31.475L48.7467 46.0951C48.9328 46.2812 49.1769 46.3743 49.4209 46.3743C49.6648 46.3743 49.9089 46.2812 50.095 46.0951C50.4673 45.7227 50.4673 45.1191 50.095 44.7468L35.4749 30.1266L36.7162 28.8853L53.3589 45.5279L49.5279 49.3589ZM30.7835 58.0932V53.2476C30.7835 52.7209 30.3566 52.2942 29.8301 52.2942C29.3036 52.2942 28.8767 52.7209 28.8767 53.2476V58.0932H21.7501L22.429 39.7592L28.7976 33.3905C29.17 33.0181 29.17 32.4145 28.7976 32.0422L26.8822 30.1267L29.8302 27.1786L32.7782 30.1266L30.8628 32.042C30.4905 32.4145 30.4905 33.0181 30.8628 33.3904L37.2313 39.7589L37.9104 58.0932H30.7835ZM6.30158 45.5278L22.9442 28.8852L24.1855 30.1265L14.9586 39.3534C14.5863 39.7258 14.5863 40.3294 14.9586 40.7017C15.1447 40.8878 15.3888 40.9809 15.6327 40.9809C15.8767 40.9809 16.1207 40.8878 16.3068 40.7017L25.5339 31.4747L26.7752 32.716L10.1326 49.3589L6.30158 45.5278ZM34.1266 28.7783L31.1786 25.8303L31.8443 25.1645L34.7923 28.1125L34.1266 28.7783ZM29.8302 24.4819L29.1644 23.8161L29.8302 23.1502L30.4961 23.8161L29.8302 24.4819ZM28.4819 25.8303L25.5339 28.7783L24.868 28.1124L27.816 25.1644L28.4819 25.8303Z" fill="#F5A243"/>
</g>
<defs>
<filter id="filter0_d" x="0" y="0" width="59.6606" height="68" filterUnits="userSpaceOnUse" color-interpolation-filters="sRGB">
<feFlood flood-opacity="0" result="BackgroundImageFix"/>
<feColorMatrix in="SourceAlpha" type="matrix" values="0 0 0 0 0 0 0 0 0 0 0 0 0 0 0 0 0 0 127 0"/>
<feOffset dy="4"/>
<feGaussianBlur stdDeviation="2"/>
<feColorMatrix type="matrix" values="0 0 0 0 0 0 0 0 0 0 0 0 0 0 0 0 0 0 0.25 0"/>
<feBlend mode="normal" in2="BackgroundImageFix" result="effect1_dropShadow"/>
<feBlend mode="normal" in="SourceGraphic" in2="effect1_dropShadow" result="shape"/>
</filter>
</defs>
</svg>
