<svg width="68" height="60" viewBox="0 0 68 60" fill="none" xmlns="http://www.w3.org/2000/svg">
<g filter="url(#filter0_d)">
<path d="M59.7998 27.1128L58.246 20.8977C58.6708 20.8075 58.9895 20.4306 58.9895 19.9791V18.977C58.9895 16.8013 57.2194 15.0313 55.0438 15.0313H47.9666V12.9644C47.9666 11.8938 47.0957 11.0228 46.0251 11.0228H9.94984C8.87922 11.0228 8.00828 11.8938 8.00828 12.9644V29.9999C8.00828 30.5187 8.42887 30.9394 8.94777 30.9394C9.46656 30.9394 9.88727 30.5188 9.88727 29.9999V12.9644C9.88727 12.9298 9.91527 12.9018 9.94984 12.9018H46.025C46.0595 12.9018 46.0875 12.9298 46.0875 12.9644V30.0002C46.0875 30.519 46.5081 30.9397 47.027 30.9397C47.5458 30.9397 47.9665 30.5191 47.9665 30.0002V28.9352H59.0488C59.0498 28.9352 59.0505 28.9354 59.0513 28.9354C59.0522 28.9354 59.053 28.9353 59.0539 28.9353C60.4176 28.9362 61.5755 29.8313 61.9732 31.0647H59.052C58.5332 31.0647 58.1125 31.4853 58.1125 32.0042V34.0083C58.1125 35.6315 59.433 36.952 61.0561 36.952H62.1209V41.0855H59.6644C58.8575 38.7555 56.6425 37.0771 54.0415 37.0771C51.4405 37.0771 49.2255 38.7555 48.4186 41.0855H47.9663V34.0082C47.9663 33.4894 47.5457 33.0687 47.0268 33.0687C46.508 33.0687 46.0873 33.4893 46.0873 34.0082V41.0853H26.5957C25.7888 38.7553 23.5738 37.0769 20.9729 37.0769C18.3719 37.0769 16.1568 38.7553 15.35 41.0853H9.94984C9.91527 41.0853 9.88727 41.0573 9.88727 41.0227V38.9559H13.9582C14.477 38.9559 14.8977 38.5353 14.8977 38.0164C14.8977 37.4975 14.4771 37.0769 13.9582 37.0769H4.93949C4.4207 37.0769 4 37.4975 4 38.0164C4 38.5353 4.42059 38.9559 4.93949 38.9559H8.0084V41.0227C8.0084 42.0933 8.87934 42.9643 9.94996 42.9643H15.0246C15.0244 42.9851 15.023 43.0059 15.023 43.0269C15.023 46.3076 17.6922 48.9767 20.9729 48.9767C24.2535 48.9767 26.9227 46.3076 26.9227 43.0269C26.9227 43.0058 26.9213 42.9851 26.9211 42.9643H48.0933C48.0931 42.9851 48.0917 43.0059 48.0917 43.0269C48.0917 46.3076 50.7609 48.9767 54.0415 48.9767C57.3222 48.9767 59.9914 46.3076 59.9914 43.0269C59.9914 43.0058 59.99 42.9851 59.9897 42.9643H63.0604C63.5792 42.9643 63.9999 42.5437 63.9999 42.0248V32.004C64 29.5299 62.1746 27.4743 59.7998 27.1128ZM47.9666 16.9102H55.0438C56.1835 16.9102 57.1107 17.8374 57.1107 18.977V19.0396H47.9666V16.9102ZM47.9666 27.0563V20.9185H56.3145L57.8489 27.0563H47.9666ZM20.9729 47.0981C18.7281 47.0981 16.9019 45.2719 16.9019 43.0271C16.9019 40.7822 18.7281 38.9561 20.9729 38.9561C23.2176 38.9561 25.0438 40.7822 25.0438 43.0271C25.0438 45.2719 23.2176 47.0981 20.9729 47.0981ZM54.0418 47.0981C51.797 47.0981 49.9708 45.2719 49.9708 43.0271C49.9708 40.7822 51.797 38.9561 54.0418 38.9561C56.2865 38.9561 58.1127 40.7822 58.1127 43.0271C58.1127 45.2719 56.2865 47.0981 54.0418 47.0981ZM62.1211 35.073H61.0564C60.4693 35.073 59.9916 34.5953 59.9916 34.0082V32.9435H62.121V35.073H62.1211Z" fill="#F5A243"/>
<path d="M20.9728 41.0857C19.9022 41.0857 19.0312 41.9566 19.0312 43.0273C19.0312 44.0979 19.9022 44.9688 20.9728 44.9688C22.0434 44.9688 22.9144 44.0979 22.9144 43.0273C22.9144 41.9566 22.0434 41.0857 20.9728 41.0857Z" fill="#F5A243"/>
<path d="M54.0417 41.0857C52.971 41.0857 52.1001 41.9566 52.1001 43.0273C52.1001 44.0979 52.971 44.9688 54.0417 44.9688C55.1123 44.9688 55.9832 44.0979 55.9832 43.0273C55.9832 41.9566 55.1123 41.0857 54.0417 41.0857Z" fill="#F5A243"/>
<path d="M43.0185 37.0773H28.9893C28.4705 37.0773 28.0498 37.4979 28.0498 38.0168C28.0498 38.5357 28.4704 38.9563 28.9893 38.9563H43.0185C43.5373 38.9563 43.958 38.5357 43.958 38.0168C43.958 37.4979 43.5374 37.0773 43.0185 37.0773Z" fill="#F5A243"/>
<path d="M18.9685 33.0688H6.9434C6.42461 33.0688 6.00391 33.4894 6.00391 34.0083C6.00391 34.5272 6.42449 34.9478 6.9434 34.9478H18.9685C19.4873 34.9478 19.908 34.5272 19.908 34.0083C19.908 33.4894 19.4873 33.0688 18.9685 33.0688Z" fill="#F5A243"/>
<path d="M36.6686 20.3167C36.3018 19.9499 35.7069 19.9499 35.3401 20.3168L26.9855 28.6712L22.6394 24.3251C22.2725 23.9582 21.6776 23.9582 21.3108 24.3251C20.9439 24.692 20.9439 25.2867 21.3108 25.6537L26.3213 30.6641C26.5047 30.8476 26.7452 30.9393 26.9855 30.9393C27.2259 30.9393 27.4665 30.8476 27.6497 30.6641L36.6685 21.6454C37.0354 21.2783 37.0354 20.6836 36.6686 20.3167Z" fill="#F5A243"/>
</g>
<defs>
<filter id="filter0_d" x="0" y="0" width="68" height="68" filterUnits="userSpaceOnUse" color-interpolation-filters="sRGB">
<feFlood flood-opacity="0" result="BackgroundImageFix"/>
<feColorMatrix in="SourceAlpha" type="matrix" values="0 0 0 0 0 0 0 0 0 0 0 0 0 0 0 0 0 0 127 0"/>
<feOffset dy="4"/>
<feGaussianBlur stdDeviation="2"/>
<feColorMatrix type="matrix" values="0 0 0 0 0.960784 0 0 0 0 0.635294 0 0 0 0 0.262745 0 0 0 0.2 0"/>
<feBlend mode="normal" in2="BackgroundImageFix" result="effect1_dropShadow"/>
<feBlend mode="normal" in="SourceGraphic" in2="effect1_dropShadow" result="shape"/>
</filter>
</defs>
</svg>
