<svg width="35" height="40" viewBox="0 0 35 40" fill="none" xmlns="http://www.w3.org/2000/svg">
<path d="M34.8542 11.95C34.7084 11.8084 34.5625 11.6667 34.2709 11.6667H6.5625L5.83331 7.98339C5.83331 7.70004 5.39581 7.41675 5.10412 7.41675H0.729121C0.291689 7.41668 0 7.70004 0 8.12504C0 8.55004 0.291689 8.83339 0.729189 8.83339H4.52088L8.02088 26.1168C8.45838 28.3834 10.6459 30.0834 12.9792 30.0834H29.75C30.1875 30.0834 30.4792 29.8 30.4792 29.375C30.4792 28.95 30.1875 28.6667 29.75 28.6667H13.125C11.9583 28.6667 10.7917 28.1 10.2083 27.1083L31.5 24.275C31.7917 24.275 32.0833 23.9917 32.0833 23.7084L35 12.375C35 12.375 35 12.0917 34.8542 11.95ZM30.7708 23L9.47912 25.6917L6.85412 12.9417H33.25L30.7708 23Z" fill="black"/>
<path d="M12.3958 31.5C10.3542 31.5 8.75 33.0584 8.75 35.0416C8.75 37.025 10.3542 38.5833 12.3958 38.5833C14.4375 38.5833 16.0416 37.0249 16.0416 35.0416C16.0417 33.0584 14.4375 31.5 12.3958 31.5ZM12.3958 37.1666C11.2291 37.1666 10.2083 36.1749 10.2083 35.0416C10.2083 33.9084 11.2291 32.9166 12.3958 32.9166C13.5625 32.9166 14.5833 33.9084 14.5833 35.0416C14.5833 36.1749 13.5625 37.1666 12.3958 37.1666Z" fill="black"/>
<path d="M26.9793 31.5C24.9376 31.5 23.3335 33.0584 23.3335 35.0416C23.3335 37.025 24.9377 38.5833 26.9793 38.5833C29.021 38.5833 30.6251 37.0249 30.6251 35.0416C30.6251 33.0584 29.0209 31.5 26.9793 31.5ZM26.9793 37.1666C25.8126 37.1666 24.7918 36.1749 24.7918 35.0416C24.7918 33.9084 25.8126 32.9166 26.9793 32.9166C28.146 32.9166 29.1668 33.9084 29.1668 35.0416C29.1668 36.1749 28.1459 37.1666 26.9793 37.1666Z" fill="black"/>
<circle cx="25.5" cy="9.5" r="9.5" fill="#F5A243"/>
<rect x="24.6362" y="3.45459" width="1.72729" height="12.0908" rx="0.863647" fill="white"/>
<rect x="19.4546" y="10.3638" width="1.72737" height="12.0909" rx="0.863684" transform="rotate(-90 19.4546 10.3638)" fill="white"/>
</svg>
