<svg width="133" height="61" viewBox="0 0 133 61" fill="none" xmlns="http://www.w3.org/2000/svg">
<ellipse cx="66.2374" cy="30.5" rx="66.2374" ry="30.5" fill="#FDEDDA"/>
<path d="M124.225 35.4123C122.393 37.426 118.962 25.6261 114.179 21.2751C109.396 16.9242 103.605 13.67 105.437 11.6562C107.269 9.64248 112.631 11.5371 117.414 15.8881C122.196 20.239 126.057 33.3985 124.225 35.4123Z" fill="#F5A243"/>
<path d="M22.185 37.935C22.185 38.285 22.1733 38.5417 22.15 38.705C22.15 39.2183 22.22 39.58 22.36 39.79C22.5467 40.0233 22.8033 40.14 23.13 40.14C23.4567 40.14 23.6667 40 23.76 39.72C23.83 39.58 23.865 39.405 23.865 39.195C23.8883 38.9617 23.8883 38.7167 23.865 38.46C23.865 38.2033 23.865 38.0167 23.865 37.9C23.935 37.1533 23.97 36.4417 23.97 35.765C23.97 34.7617 24.005 32.9533 24.075 30.34C24.145 27.7033 24.1567 25.6617 24.11 24.215C24.0633 23.5617 24.04 23.0717 24.04 22.745C23.9467 21.5083 23.935 20.8783 24.005 20.855C24.0983 20.8083 24.5183 20.785 25.265 20.785C25.965 20.785 26.35 20.7383 26.42 20.645C26.56 20.4583 26.525 20.2833 26.315 20.12H25.405C24.8917 20.1433 24.1333 20.155 23.13 20.155H21.59C21.52 20.155 21.31 20.1433 20.96 20.12C20.61 20.0733 20.4117 20.0733 20.365 20.12C20.2017 20.1667 20.0967 20.2717 20.05 20.435C20.0033 20.5517 20.05 20.645 20.19 20.715C20.33 20.785 20.5517 20.8317 20.855 20.855C21.1817 20.8783 21.3917 20.89 21.485 20.89C21.5783 20.89 21.7417 20.89 21.975 20.89C22.2083 20.89 22.3483 20.925 22.395 20.995C22.465 21.065 22.4883 21.2167 22.465 21.45C22.465 21.5667 22.4533 21.7417 22.43 21.975C22.4067 22.185 22.395 22.3483 22.395 22.465C22.4183 23.0483 22.43 23.935 22.43 25.125C22.43 25.965 22.4183 26.595 22.395 27.015C22.3717 27.8317 22.3483 28.9867 22.325 30.48C22.325 31.95 22.3133 33.2917 22.29 34.505C22.2667 35.7183 22.2317 36.8617 22.185 37.935ZM27.6576 33.07C27.6109 32.8133 27.6576 32.3117 27.7976 31.565C27.9376 30.795 28.0076 30.2 28.0076 29.78C28.0076 29.5 28.1709 29.3367 28.4976 29.29H30.1776C30.5509 29.3367 30.7726 29.5583 30.8426 29.955V30.515C30.8426 31.005 30.8542 31.3667 30.8776 31.6C30.9709 32.79 31.0526 33.7117 31.1226 34.365L31.3326 36.43C31.4959 37.55 31.6126 38.3317 31.6826 38.775C31.7059 39.0083 31.7992 39.2417 31.9626 39.475C32.1726 39.755 32.4409 39.8717 32.7676 39.825C33.0242 39.8017 33.2342 39.6967 33.3976 39.51C33.5609 39.3 33.6426 39.0667 33.6426 38.81C33.6426 38.74 33.6309 38.635 33.6076 38.495C33.5842 38.3317 33.5726 38.2267 33.5726 38.18C33.3626 36.9667 33.2342 36.15 33.1876 35.73C32.9776 34.1433 32.8726 33.28 32.8726 33.14C32.7559 30.69 32.6976 29.2083 32.6976 28.695C32.6976 28.135 32.5692 27.0617 32.3126 25.475C32.0792 24.1683 31.8809 23.1883 31.7176 22.535C31.5309 21.8117 31.2859 21.1233 30.9826 20.47C30.8192 20.1433 30.5859 19.9683 30.2826 19.945C29.9792 19.8983 29.6992 20.0033 29.4426 20.26C29.1859 20.5633 29.0109 20.855 28.9176 21.135C28.7076 21.7183 28.5326 22.29 28.3926 22.85C28.1126 23.9467 27.8909 25.3583 27.7276 27.085C27.5642 29.3483 27.4242 30.8767 27.3076 31.67C27.2609 31.9733 27.2142 32.8717 27.1676 34.365V35.24L26.8876 38.32C26.8876 38.39 26.8759 38.5417 26.8526 38.775C26.8292 38.985 26.8176 39.125 26.8176 39.195C26.8176 39.6383 26.8642 39.8483 26.9576 39.825C27.0276 39.825 27.0976 39.755 27.1676 39.615C27.1909 39.5917 27.2142 39.4633 27.2376 39.23C27.2842 38.9733 27.3076 38.8333 27.3076 38.81C27.3076 38.67 27.3659 37.8767 27.4826 36.43C27.6226 34.9833 27.6809 33.8633 27.6576 33.07ZM30.7726 28.135C30.7959 28.3917 30.6909 28.5667 30.4576 28.66C29.8976 28.8467 29.2209 28.8583 28.4276 28.695C28.2642 28.6717 28.1826 28.555 28.1826 28.345C28.2992 26.1283 28.5909 24.18 29.0576 22.5C29.3609 21.59 29.5592 21.0767 29.6526 20.96C29.7692 20.8433 29.8509 20.7967 29.8976 20.82C29.9909 20.8667 30.0726 20.9483 30.1426 21.065C30.1892 21.135 30.2126 21.2517 30.2126 21.415C30.2592 21.8583 30.3059 22.5467 30.3526 23.48C30.3526 24.1567 30.4459 25.125 30.6326 26.385C30.6792 26.805 30.7259 27.3883 30.7726 28.135ZM40.5939 34.855C40.4539 33.9217 39.9289 32.3933 39.0189 30.27C38.1556 28.3333 37.5722 26.6883 37.2689 25.335C36.9889 24.215 36.8839 23.1767 36.9539 22.22C37.0006 21.7533 37.1289 21.38 37.3389 21.1C37.6656 20.7267 38.0272 20.5867 38.4239 20.68C38.6339 20.7033 38.8439 20.82 39.0539 21.03C39.1939 21.1467 39.3222 21.275 39.4389 21.415C39.5089 21.5317 39.5322 21.7183 39.5089 21.975C39.5089 22.2083 39.5322 22.3717 39.5789 22.465C39.7889 22.745 39.9756 22.675 40.1389 22.255C40.2089 22.0683 40.2322 21.9167 40.2089 21.8C40.0456 21.1 39.6839 20.575 39.1239 20.225C38.6572 19.9917 38.1789 19.945 37.6889 20.085C37.1989 20.225 36.7672 20.47 36.3939 20.82C36.0906 21.1233 35.8572 21.4967 35.6939 21.94C35.5539 22.36 35.4839 22.78 35.4839 23.2C35.4839 23.5967 35.4956 24.0283 35.5189 24.495C35.6589 25.8717 35.9856 27.3067 36.4989 28.8C36.6389 29.22 36.8606 29.8033 37.1639 30.55C37.4906 31.2967 37.6889 31.7517 37.7589 31.915C37.8522 32.1017 38.0389 32.5683 38.3189 33.315C38.5756 34.0383 38.8089 34.9367 39.0189 36.01C39.1589 36.92 39.1356 37.6317 38.9489 38.145C38.6922 38.8917 38.1089 39.3933 37.1989 39.65C36.5689 39.79 36.1139 39.7083 35.8339 39.405C35.6939 39.265 35.5889 39.0783 35.5189 38.845C35.4489 38.6117 35.3906 38.355 35.3439 38.075C35.3206 37.7717 35.2856 37.5617 35.2389 37.445C35.2389 37.305 35.2039 37.2 35.1339 37.13C35.0639 37.0133 35.0056 36.955 34.9589 36.955C34.7722 36.9783 34.6789 37.2467 34.6789 37.76C34.7256 38.1567 34.7839 38.4483 34.8539 38.635C34.9706 39.1483 35.2156 39.5567 35.5889 39.86C36.1256 40.28 36.7906 40.3617 37.5839 40.105C38.6106 39.8017 39.3922 39.2533 39.9289 38.46C40.4656 37.6667 40.7106 36.7333 40.6639 35.66C40.6639 35.5667 40.6522 35.4383 40.6289 35.275C40.6289 35.0883 40.6172 34.9483 40.5939 34.855ZM43.8549 37.935C43.8549 38.285 43.8433 38.5417 43.8199 38.705C43.8199 39.2183 43.8899 39.58 44.0299 39.79C44.2166 40.0233 44.4733 40.14 44.7999 40.14C45.1266 40.14 45.3366 40 45.4299 39.72C45.4999 39.58 45.5349 39.405 45.5349 39.195C45.5583 38.9617 45.5583 38.7167 45.5349 38.46C45.5349 38.2033 45.5349 38.0167 45.5349 37.9C45.6049 37.1533 45.6399 36.4417 45.6399 35.765C45.6399 34.7617 45.6749 32.9533 45.7449 30.34C45.8149 27.7033 45.8266 25.6617 45.7799 24.215C45.7333 23.5617 45.7099 23.0717 45.7099 22.745C45.6166 21.5083 45.6049 20.8783 45.6749 20.855C45.7683 20.8083 46.1883 20.785 46.9349 20.785C47.6349 20.785 48.0199 20.7383 48.0899 20.645C48.2299 20.4583 48.1949 20.2833 47.9849 20.12H47.0749C46.5616 20.1433 45.8033 20.155 44.7999 20.155H43.2599C43.1899 20.155 42.9799 20.1433 42.6299 20.12C42.2799 20.0733 42.0816 20.0733 42.0349 20.12C41.8716 20.1667 41.7666 20.2717 41.7199 20.435C41.6733 20.5517 41.7199 20.645 41.8599 20.715C41.9999 20.785 42.2216 20.8317 42.5249 20.855C42.8516 20.8783 43.0616 20.89 43.1549 20.89C43.2483 20.89 43.4116 20.89 43.6449 20.89C43.8783 20.89 44.0183 20.925 44.0649 20.995C44.1349 21.065 44.1583 21.2167 44.1349 21.45C44.1349 21.5667 44.1233 21.7417 44.0999 21.975C44.0766 22.185 44.0649 22.3483 44.0649 22.465C44.0883 23.0483 44.0999 23.935 44.0999 25.125C44.0999 25.965 44.0883 26.595 44.0649 27.015C44.0416 27.8317 44.0183 28.9867 43.9949 30.48C43.9949 31.95 43.9833 33.2917 43.9599 34.505C43.9366 35.7183 43.9016 36.8617 43.8549 37.935ZM55.3489 20.155C55.5122 20.435 55.3955 21.0883 54.9989 22.115L54.8239 22.64C54.5905 23.62 54.2755 25.195 53.8789 27.365L53.8439 27.47L53.6339 28.45C53.4939 29.0567 53.3889 29.64 53.3189 30.2C53.2255 31.2033 53.1789 32.72 53.1789 34.75V36.78C53.1789 37.7367 53.2255 38.5417 53.3189 39.195V39.51V39.615C53.3189 39.9183 53.2372 40.1517 53.0739 40.315C52.9572 40.4083 52.7705 40.455 52.5139 40.455C52.1405 40.455 51.9189 40.2567 51.8489 39.86C51.8255 39.72 51.8139 39.5333 51.8139 39.3C51.8139 38.9267 51.7905 38.3667 51.7439 37.62C51.6972 35.1467 51.6972 33.49 51.7439 32.65C51.7672 32.44 51.7789 32.125 51.7789 31.705C51.7789 31.0517 51.8022 30.5617 51.8489 30.235C51.9189 29.6517 51.8489 28.9517 51.6389 28.135L51.4289 27.26C51.4055 27.1433 51.3705 26.945 51.3239 26.665C51.3005 26.595 51.2655 26.5017 51.2189 26.385C51.1955 26.245 51.1722 26.14 51.1489 26.07C51.1022 25.8367 51.0555 25.65 51.0089 25.51C51.0089 25.44 50.9855 25.335 50.9389 25.195C50.9155 25.055 50.8922 24.9383 50.8689 24.845C50.8455 24.7517 50.8105 24.6233 50.7639 24.46C50.7405 24.2733 50.7172 24.145 50.6939 24.075C50.6939 24.005 50.6705 23.9117 50.6239 23.795C50.6005 23.6783 50.5772 23.5967 50.5539 23.55L50.4489 23.13C50.2155 22.2433 50.0405 21.5667 49.9239 21.1C49.9005 21.0067 49.8889 20.8433 49.8889 20.61C49.9355 20.3767 50.0405 20.2133 50.2039 20.12C50.2739 20.0733 50.3672 20.05 50.4839 20.05C50.7405 20.0967 50.9039 20.2017 50.9739 20.365L51.0439 20.47C51.0439 20.4933 51.1255 20.68 51.2889 21.03C51.4522 21.3567 51.5572 21.6133 51.6039 21.8C52.0705 23.34 52.4089 24.5183 52.6189 25.335C52.7122 25.6617 52.7822 26.035 52.8289 26.455L52.9339 27.015C53.2139 24.915 53.6689 22.675 54.2989 20.295C54.3455 20.2017 54.3689 20.1433 54.3689 20.12C54.4622 19.9567 54.6022 19.875 54.7889 19.875C55.0222 19.875 55.2089 19.9683 55.3489 20.155ZM62.7959 33.735C62.7726 33.525 62.3993 33.42 61.6759 33.42C59.9726 33.28 58.6309 33.315 57.6509 33.525C57.5576 33.525 57.5109 33.595 57.5109 33.735C57.5109 33.8517 57.5693 33.9333 57.6859 33.98C57.7093 34.0267 57.8376 34.0383 58.0709 34.015C58.3043 33.9683 58.4326 33.945 58.4559 33.945C58.5726 33.945 58.7476 33.9567 58.9809 33.98C59.2376 33.98 59.4243 33.98 59.5409 33.98C60.4743 34.0267 61.1859 34.05 61.6759 34.05C62.2826 34.12 62.6326 34.085 62.7259 33.945L62.7959 33.735ZM64.6838 29.71C64.6838 31.4367 64.7888 32.93 64.9987 34.19C65.0221 34.2833 65.1621 35.135 65.4188 36.745L65.7338 38.145C65.7338 38.1683 65.7571 38.2733 65.8038 38.46C65.8504 38.6467 65.8854 38.7867 65.9088 38.88C65.9321 38.95 65.9671 39.0783 66.0138 39.265C66.0838 39.4283 66.1421 39.5567 66.1888 39.65C66.2588 39.72 66.3404 39.8133 66.4338 39.93C66.5271 40.0233 66.6204 40.0817 66.7138 40.105C66.8304 40.1283 66.9588 40.1283 67.0988 40.105C67.3088 40.0583 67.4838 39.9533 67.6238 39.79C67.7871 39.6033 67.9154 39.37 68.0088 39.09C68.1021 38.7867 68.1721 38.53 68.2188 38.32C68.2654 38.0867 68.3121 37.8067 68.3588 37.48C68.4054 37.13 68.4288 36.92 68.4288 36.85C68.4754 36.6167 68.5221 36.2783 68.5688 35.835C68.6388 35.3917 68.6971 35.065 68.7438 34.855C68.7671 34.7617 68.8021 34.5867 68.8488 34.33C68.9188 34.0733 68.9771 33.84 69.0238 33.63C69.0704 33.3967 69.0821 33.2217 69.0588 33.105L70.1088 38.215C70.2488 38.7983 70.3771 39.1833 70.4938 39.37C70.7504 39.8133 71.0654 40.0467 71.4388 40.07C71.9521 40.14 72.3604 39.895 72.6638 39.335C72.8271 39.0317 72.9554 38.5417 73.0488 37.865L75.0088 20.995C75.0788 20.5283 74.9738 20.295 74.6938 20.295C74.4138 20.295 74.2738 20.4233 74.2738 20.68C73.5271 27.2133 72.9204 32.4167 72.4538 36.29C72.4538 36.36 72.4421 36.5467 72.4188 36.85C72.3954 37.1533 72.3721 37.3867 72.3488 37.55C72.3254 37.69 72.2788 37.865 72.2088 38.075C72.1621 38.285 72.0804 38.4483 71.9638 38.565C71.8704 38.6583 71.7771 38.6933 71.6838 38.67C71.5904 38.6467 71.5321 38.5767 71.5088 38.46C70.8321 34.5633 70.3071 31.9967 69.9338 30.76C69.8404 30.4333 69.7354 30.2117 69.6188 30.095C69.3621 29.8383 69.1288 29.8033 68.9188 29.99C68.8021 30.06 68.7204 30.2467 68.6738 30.55L67.4138 38.53C67.4138 38.5533 67.4138 38.5767 67.4138 38.6L67.3788 38.67C67.2854 38.6233 67.2388 38.5767 67.2388 38.53C67.2154 37.97 67.0988 37.1533 66.8888 36.08C66.7021 34.9833 66.5971 34.3767 66.5738 34.26C66.3404 32.51 66.1771 30.935 66.0838 29.535C66.0138 28.6483 65.9554 27.3533 65.9088 25.65C65.8854 23.9467 65.8504 22.6983 65.8038 21.905C65.7571 21.3917 65.7104 21.0067 65.6638 20.75C65.6404 20.7033 65.6054 20.6217 65.5588 20.505C65.5121 20.3883 65.4771 20.3067 65.4538 20.26C65.3138 20.0733 65.1271 20.0383 64.8938 20.155C64.6371 20.3183 64.5204 20.505 64.5438 20.715C64.5438 20.7383 64.5554 20.9133 64.5788 21.24C64.6254 21.5433 64.6488 21.7767 64.6488 21.94C64.6488 23.8067 64.6371 25.2067 64.6138 26.14C64.6138 26.2567 64.6021 26.4317 64.5788 26.665C64.5554 26.875 64.5438 27.0383 64.5438 27.155C64.5438 27.435 64.5671 27.8667 64.6138 28.45C64.6604 29.01 64.6838 29.43 64.6838 29.71ZM76.4123 31.04C76.4123 32.0433 76.424 32.8017 76.4473 33.315C76.5873 35.7417 77.054 37.5733 77.8473 38.81C78.034 39.1133 78.3023 39.405 78.6523 39.685C79.0256 39.9417 79.4106 40.1167 79.8073 40.21C80.2273 40.3033 80.589 40.175 80.8923 39.825C81.4523 39.195 81.8606 38.0983 82.1173 36.535C82.304 35.3217 82.4556 34.0033 82.5723 32.58C82.7823 29.78 82.759 27.1083 82.5023 24.565C82.4556 24.005 82.3156 23.2233 82.0823 22.22C81.8956 21.52 81.5573 20.9717 81.0673 20.575C80.344 20.015 79.644 20.0967 78.9673 20.82C78.2906 21.52 77.7656 22.3483 77.3923 23.305C77.089 24.1217 76.8556 25.2533 76.6923 26.7C76.5523 27.89 76.459 29.3367 76.4123 31.04ZM78.4423 29.36C78.489 27.5167 78.5706 25.86 78.6873 24.39C78.6873 24.32 78.699 24.18 78.7223 23.97C78.7456 23.7367 78.7573 23.585 78.7573 23.515C78.7806 23.4217 78.804 23.2817 78.8273 23.095C78.8506 22.885 78.874 22.7333 78.8973 22.64C78.944 22.5233 78.9906 22.3833 79.0373 22.22C79.084 22.0567 79.1423 21.9283 79.2123 21.835C79.2823 21.7183 79.364 21.6017 79.4573 21.485C79.574 21.3683 79.6906 21.2633 79.8073 21.17C79.9706 21.03 80.1806 20.9717 80.4373 20.995C80.7173 21.0183 80.9156 21.135 81.0323 21.345C81.2656 21.7183 81.429 22.0917 81.5223 22.465C81.6856 23.025 81.814 23.9 81.9073 25.09C81.954 26.6767 81.9773 27.7733 81.9773 28.38C81.9773 28.9867 81.9306 30.0833 81.8373 31.67C81.7673 33.2333 81.7206 34.33 81.6973 34.96C81.6973 35.4733 81.6156 36.08 81.4523 36.78C81.4056 36.92 81.359 37.1183 81.3123 37.375C81.2656 37.6083 81.2423 37.7367 81.2423 37.76C81.1256 38.1567 81.009 38.4833 80.8923 38.74C80.5423 39.2767 80.204 39.3933 79.8773 39.09C79.574 38.7633 79.364 38.32 79.2473 37.76C78.7106 35.1 78.4423 32.3 78.4423 29.36ZM91.5055 38.32C91.6222 38.6467 91.6922 38.9733 91.7155 39.3C91.7388 39.6033 91.6688 39.8367 91.5055 40C91.3422 40.1633 91.1322 40.2217 90.8755 40.175C90.7122 40.1517 90.5372 40.0583 90.3505 39.895C90.1638 39.7317 90.0472 39.5567 90.0005 39.37C89.6972 37.9233 89.1488 36.4183 88.3555 34.855C88.2622 34.645 88.0522 34.2017 87.7255 33.525C87.4222 32.825 87.1655 32.3 86.9555 31.95C86.8155 31.7167 86.6988 31.5533 86.6055 31.46C86.5822 31.32 86.5122 31.18 86.3955 31.04V31.6C86.3955 31.6933 86.3955 31.8217 86.3955 31.985C86.4188 32.1483 86.4422 32.2767 86.4655 32.37C86.4655 32.72 86.4888 33.245 86.5355 33.945L86.6405 36.99C86.6872 39.1133 86.6288 40.175 86.4655 40.175C85.6955 40.245 85.2522 40.1633 85.1355 39.93C85.1122 39.8833 85.1005 39.405 85.1005 38.495C85.1005 38.3783 85.0888 38.2033 85.0655 37.97C85.0422 37.7367 85.0305 37.5617 85.0305 37.445C84.8905 33.4317 84.8205 30.4217 84.8205 28.415C84.7972 28.415 84.7972 27.6567 84.8205 26.14V23.9C84.8205 22.8967 84.8322 22.1383 84.8555 21.625C84.8555 21.555 84.8438 21.4383 84.8205 21.275C84.8205 21.1117 84.8205 20.9833 84.8205 20.89C84.8205 20.7967 84.8322 20.6917 84.8555 20.575C84.8788 20.4583 84.9255 20.365 84.9955 20.295C85.0888 20.225 85.1938 20.19 85.3105 20.19H87.0605C87.6438 20.2833 88.2388 20.575 88.8455 21.065C89.5455 21.625 90.0355 22.43 90.3155 23.48C90.5955 24.5067 90.6772 25.5333 90.5605 26.56C90.3505 28.17 89.3472 29.4417 87.5505 30.375L87.7255 30.585C88.1922 31.1217 88.5305 31.6117 88.7405 32.055C88.8572 32.3117 89.0672 32.6967 89.3705 33.21C89.6738 33.7 89.8838 34.085 90.0005 34.365C90.1638 34.7383 90.3855 35.2867 90.6655 36.01C90.9455 36.7333 91.0972 37.1417 91.1205 37.235C91.3072 37.7017 91.4355 38.0633 91.5055 38.32ZM86.2905 21.03C86.2672 21.0767 86.2555 21.4733 86.2555 22.22V23.48V23.55C86.2555 25.4633 86.3138 27.1083 86.4305 28.485C86.4305 28.555 86.4188 28.7417 86.3955 29.045C86.3722 29.325 86.3838 29.5467 86.4305 29.71C86.4772 29.85 86.5822 29.92 86.7455 29.92C86.9788 29.92 87.3988 29.6867 88.0055 29.22C88.7288 28.6833 89.1255 27.9717 89.1955 27.085C89.2422 26.595 89.2072 25.9883 89.0905 25.265C88.9505 24.1217 88.7755 23.2817 88.5655 22.745C88.2855 22.0683 87.9122 21.5317 87.4455 21.135C86.8388 20.7383 86.4538 20.7033 86.2905 21.03ZM97.073 39.195H96.023C95.533 39.2183 95.2296 39.1833 95.113 39.09C95.0196 38.9733 94.9963 38.635 95.043 38.075C95.113 37.1417 95.1596 36.4767 95.183 36.08L95.253 35.065V33.91V32.895C95.2996 32.1483 95.323 31.6 95.323 31.25C95.2996 30.8767 95.2646 30.3167 95.218 29.57C95.1946 28.8233 95.183 28.275 95.183 27.925V26.665C95.1596 26.3617 95.1363 25.895 95.113 25.265C95.0896 24.6117 95.0663 24.1217 95.043 23.795C95.043 23.585 95.0313 23.305 95.008 22.955C95.008 22.5817 94.9963 22.2433 94.973 21.94C94.973 21.6133 94.9613 21.31 94.938 21.03C94.938 20.9367 94.8796 20.715 94.763 20.365C94.693 20.085 94.5296 19.945 94.273 19.945C94.0863 19.945 93.923 20.085 93.783 20.365C93.7363 20.4583 93.713 20.54 93.713 20.61L93.608 21.765C93.608 22.4417 93.5963 23.445 93.573 24.775C93.573 26.0817 93.573 27.0617 93.573 27.715C93.573 27.9017 93.573 28.2867 93.573 28.87C93.5963 29.43 93.6196 29.8617 93.643 30.165C93.713 31.0983 93.713 32.02 93.643 32.93C93.643 33.6067 93.6313 34.1083 93.608 34.435L93.503 37.27C93.503 37.4567 93.4913 37.7367 93.468 38.11C93.468 38.4833 93.468 38.7633 93.468 38.95C93.468 38.9967 93.503 39.3 93.573 39.86C93.5963 39.9533 93.6663 40.0233 93.783 40.07C93.8763 40.0933 94.028 40.105 94.238 40.105C96.0113 40.0583 97.3296 40.0117 98.193 39.965C98.4496 39.9417 98.8113 39.8833 99.278 39.79C99.3246 39.7667 99.348 39.7317 99.348 39.685C99.348 39.615 99.3363 39.5567 99.313 39.51C99.2896 39.4867 99.2313 39.4517 99.138 39.405C99.0446 39.3583 98.9746 39.3233 98.928 39.3C98.7646 39.2767 98.1463 39.2417 97.073 39.195ZM107.162 29.99C107.162 29.6867 107.139 29.2317 107.092 28.625C107.046 27.435 106.941 26.5483 106.777 25.965C106.591 25.2183 106.322 24.3783 105.972 23.445C105.459 21.9517 104.444 20.9133 102.927 20.33C102.717 20.2367 102.099 20.1667 101.072 20.12C100.862 20.0967 100.687 20.155 100.547 20.295C100.431 20.435 100.372 20.6217 100.372 20.855V21.345C100.419 21.9283 100.442 22.7567 100.442 23.83C100.466 24.9033 100.489 25.615 100.512 25.965C100.536 26.6883 100.547 27.4583 100.547 28.275C100.571 29.0683 100.582 29.9667 100.582 30.97C100.606 31.95 100.617 32.7083 100.617 33.245C100.664 35.8583 100.711 37.8417 100.757 39.195C100.781 39.6383 100.862 39.9183 101.002 40.035C101.142 40.1517 101.422 40.175 101.842 40.105C102.356 40.0583 102.951 39.86 103.627 39.51C103.954 39.37 104.176 39.2533 104.292 39.16C104.362 39.1133 104.432 39.055 104.502 38.985C104.572 38.915 104.642 38.8333 104.712 38.74C104.806 38.6467 104.876 38.5767 104.922 38.53C105.926 37.3867 106.591 36.08 106.917 34.61C107.104 33.7933 107.186 33.0583 107.162 32.405V29.99ZM102.297 34.995C102.321 34.785 102.332 34.4583 102.332 34.015C102.332 32.7317 102.309 30.83 102.262 28.31C102.262 27.3067 102.099 24.95 101.772 21.24C101.772 21.1 101.784 21.0183 101.807 20.995C101.854 20.8783 101.982 20.82 102.192 20.82C102.426 20.82 102.577 20.8433 102.647 20.89C102.904 20.9367 103.172 21.0883 103.452 21.345C103.989 21.905 104.432 22.8267 104.782 24.11C104.852 24.32 104.934 24.6467 105.027 25.09C105.121 25.51 105.179 25.755 105.202 25.825C105.506 26.8517 105.657 28.065 105.657 29.465L105.762 30.725C105.762 30.8883 105.762 31.145 105.762 31.495C105.786 31.8217 105.797 32.0783 105.797 32.265C105.844 33.7817 105.657 35.1467 105.237 36.36C104.934 37.2233 104.374 37.935 103.557 38.495C103.511 38.5183 103.184 38.635 102.577 38.845C102.531 38.8917 102.472 38.8567 102.402 38.74C102.379 38.67 102.367 38.5417 102.367 38.355C102.297 37.2583 102.274 36.5933 102.297 36.36V34.995Z" fill="#303030"/>
</svg>
