<svg width="57" height="60" viewBox="0 0 57 60" fill="none" xmlns="http://www.w3.org/2000/svg">
<path d="M56.5421 58.7196C54.7368 53.6764 49.924 50.288 44.5656 50.288C43.1727 50.288 41.8102 50.5106 40.5054 50.9506C37.7288 47.3422 33.4931 45.143 28.9474 44.9512C27.6687 41.6623 28.3736 39.9448 29.1846 37.9737C30.0235 35.9351 30.9669 33.6405 29.4888 29.7129C32.0192 28.0841 34.1272 26.025 35.614 23.7182C37.3079 21.0899 38.2033 18.1241 38.2033 15.1413C38.2033 13.8709 38.0394 12.6039 37.7221 11.3646C37.7121 11.2963 37.694 11.2289 37.6692 11.1635C37.237 9.56383 36.5475 8.01277 35.614 6.56435C33.9919 4.04743 31.6317 1.82386 28.7885 0.13417C28.785 0.132127 28.7812 0.130723 28.7778 0.128808C28.7104 0.0897443 28.638 0.0588508 28.5615 0.0371488C28.5522 0.0344679 28.5429 0.0322977 28.5336 0.0299999C28.5048 0.0227233 28.4756 0.016851 28.446 0.0122553C28.4355 0.0105957 28.425 0.00868081 28.4146 0.00740422C28.3781 0.00306382 28.341 0.000127659 28.3033 0C28.3006 0 28.298 0 28.2953 0C28.2577 0.000127659 28.2207 0.00293616 28.184 0.00740422C28.1734 0.00868081 28.1631 0.0105957 28.1526 0.0122553C28.1229 0.016851 28.0938 0.0227233 28.0649 0.0299999C28.0556 0.0322977 28.0463 0.0345956 28.037 0.0371488C27.9605 0.0588508 27.8881 0.089872 27.8207 0.128808C27.8173 0.130851 27.8134 0.132127 27.81 0.13417C24.9669 1.82386 22.6066 4.04743 20.9844 6.56435C20.052 8.01111 19.3632 9.56038 18.9308 11.1582C18.9044 11.2266 18.8855 11.2971 18.8754 11.3685C18.5588 12.6067 18.3951 13.8723 18.3951 15.1413C18.3951 18.124 19.2905 21.0899 20.9844 23.7182C22.554 26.1534 24.8159 28.3126 27.5363 29.9807C28.9705 33.4583 28.2481 35.2174 27.4137 37.245C26.6118 39.1939 25.7151 41.3775 26.9293 44.9975C22.6592 45.3796 18.7221 47.5338 16.0929 50.9506C14.7881 50.5106 13.4256 50.288 12.0327 50.288C6.67437 50.288 1.86137 53.6764 0.0562708 58.7196C-0.121941 59.2173 0.137207 59.7654 0.635077 59.9437C1.13244 60.1218 1.68086 59.8628 1.8592 59.3649C1.89814 59.2563 1.93975 59.1491 1.98188 59.0423C3.60136 54.9375 7.59645 52.203 12.0327 52.203C13.4314 52.203 14.7928 52.4667 16.0795 52.9872C16.4942 53.1548 16.9693 53.0132 17.2246 52.6461C19.7473 49.0172 23.8874 46.851 28.299 46.851C32.7107 46.851 36.8508 49.0174 39.3736 52.6461C39.6289 53.0132 40.1043 53.1548 40.5187 52.9872C41.8055 52.4668 43.167 52.203 44.5655 52.203C49.0018 52.203 52.9969 54.9375 54.6163 59.0423C54.6585 59.1491 54.7002 59.2563 54.739 59.3649C54.8791 59.7562 55.2475 60 55.6405 60C55.7476 60 55.8565 59.9819 55.9631 59.9438C56.461 59.7655 56.7202 59.2174 56.5421 58.7196ZM33.2452 14.7117C33.4341 14.9195 33.6935 15.0251 33.9538 15.0251C34.1836 15.0251 34.4142 14.9427 34.5976 14.7761L36.1672 13.3493C36.2465 13.9401 36.2882 14.5381 36.2882 15.1416C36.2882 19.9373 33.7473 24.388 29.2565 27.5639V19.6315L31.7638 17.3522C32.1551 16.9965 32.184 16.3909 31.8283 15.9996C31.4728 15.6085 30.8673 15.5798 30.4758 15.9352L29.2565 17.0436V2.71914C32.4819 5.00015 34.6997 7.93924 35.6943 11.1911L33.3095 13.3591C32.9183 13.7149 32.8894 14.3204 33.2452 14.7117ZM27.3416 2.71914V17.0436L20.9038 11.1911C21.8983 7.93924 24.1162 5.00015 27.3416 2.71914ZM20.431 13.3493L27.3416 19.6315V27.5636C22.8508 24.3877 20.3099 19.937 20.3099 15.1414C20.31 14.5379 20.3518 13.9401 20.431 13.3493Z" fill="black"/>
<path d="M11.034 54.1217C10.4709 54.1217 10.0127 54.5799 10.0127 55.143C10.0127 55.7061 10.4709 56.1642 11.034 56.1642C11.5971 56.1642 12.0552 55.7061 12.0552 55.143C12.0552 54.5799 11.5971 54.1217 11.034 54.1217Z" fill="black"/>
<path d="M37.0764 54.1217C36.5133 54.1217 36.0552 54.5799 36.0552 55.143C36.0552 55.7061 36.5133 56.1642 37.0764 56.1642C37.6396 56.1642 38.0977 55.7061 38.0977 55.143C38.0977 54.5799 37.6396 54.1217 37.0764 54.1217Z" fill="black"/>
<path d="M33.7571 50.9302C33.194 50.9302 32.7358 51.3884 32.7358 51.9515C32.7358 52.5146 33.194 52.9728 33.7571 52.9728C34.3202 52.9728 34.7784 52.5146 34.7784 51.9515C34.7784 51.3884 34.3202 50.9302 33.7571 50.9302Z" fill="black"/>
</svg>
