<svg width="57" height="60" viewBox="0 0 57 60" fill="none" xmlns="http://www.w3.org/2000/svg">
<path d="M23.8553 46.0949V49.0354C23.8553 49.724 23.2969 50.2824 22.6083 50.2824C21.9196 50.2824 21.3612 49.724 21.3612 49.0354V46.0949C21.3612 45.4062 21.9196 44.8479 22.6083 44.8479C23.2969 44.8479 23.8553 45.4062 23.8553 46.0949ZM12.5536 35.4112L15.181 31.6589C15.576 31.0947 15.439 30.3172 14.8747 29.9221C14.3107 29.5269 13.533 29.6641 13.1379 30.2282L10.5106 33.9805C10.1156 34.5446 10.2526 35.3221 10.8169 35.7175C11.0345 35.8699 11.284 35.943 11.5311 35.943C11.9242 35.943 12.3111 35.7577 12.5536 35.4112ZM21.8996 29.9221C21.3355 29.5269 20.558 29.6641 20.1628 30.2282L11.9418 41.9685C11.5468 42.5326 11.6838 43.3101 12.248 43.7053C12.4657 43.8579 12.7151 43.931 12.9622 43.931C13.3552 43.931 13.7422 43.7456 13.9848 43.3991L22.2058 31.6589C22.6009 31.0946 22.4638 30.3171 21.8996 29.9221ZM34.423 44.8479C33.7344 44.8479 33.176 45.4062 33.176 46.0949V49.0354C33.176 49.724 33.7344 50.2824 34.423 50.2824C35.1117 50.2824 35.6701 49.724 35.6701 49.0354V46.0949C35.6701 45.4062 35.1119 44.8479 34.423 44.8479ZM43.8926 30.2282C43.4975 29.6641 42.72 29.5269 42.1558 29.9221C41.5917 30.3171 41.4547 31.0946 41.8499 31.6589L44.4778 35.4112C44.7204 35.7577 45.1072 35.943 45.5004 35.943C45.7474 35.943 45.997 35.8698 46.2148 35.7173C46.7789 35.3223 46.9159 34.5448 46.5207 33.9805L43.8926 30.2282ZM51.4755 27.674V57.5056H55.738C56.4266 57.5056 56.985 58.064 56.985 58.7527C56.985 59.4413 56.4266 59.9997 55.738 59.9997H50.2559C50.2467 59.9998 50.2375 60 50.2285 60H6.75716C6.74797 60 6.73877 59.9998 6.72973 59.9997H1.24718C0.558511 59.9997 0.000155793 59.4413 0.000155793 58.7527C0.000155793 58.064 0.558511 57.5056 1.24718 57.5056H5.50998V27.674C5.23501 27.7253 4.95241 27.7521 4.66512 27.7521C2.48142 27.7521 0.581737 26.2064 0.112232 24.1042C0.0402166 23.9466 0 23.7713 0 23.5867V23.0874C0 22.9239 0.0322668 22.762 0.0946181 22.6108L5.56703 9.37997C5.75985 8.91374 6.21471 8.60962 6.71944 8.60962H20.0709V8.42147C20.0712 3.77771 23.8489 0 28.4923 0C33.1363 0 36.9144 3.77771 36.9144 8.42132V8.60946H50.2283C50.7318 8.60946 51.186 8.91218 51.3795 9.37716L56.8893 22.6079C56.9526 22.7599 56.9852 22.9228 56.9852 23.0873V23.5865C56.9852 23.7713 56.9451 23.9466 56.8729 24.1041C56.4034 26.2062 54.5039 27.7519 52.32 27.7519C52.0328 27.7521 51.7505 27.7253 51.4755 27.674ZM29.4971 10.5991C28.0643 12.3865 27.6274 15.4475 29.0152 17.196C32.04 16.9306 34.4204 14.3837 34.4204 11.2913V8.42132C34.4204 6.04714 33.017 3.99438 30.9962 3.04898C31.7557 5.59353 31.0639 8.64376 29.4971 10.5991ZM22.5652 11.2915C22.5652 13.6679 23.9706 15.722 25.9939 16.6662C25.7707 15.9206 25.6655 15.1077 25.6872 14.2507C25.7352 12.3568 26.4145 10.4572 27.551 9.03922C29.0717 7.1414 29.2226 4.13249 27.9697 2.51681C24.9453 2.78227 22.5652 5.32916 22.5652 8.42132V9.85649V11.2915ZM27.2732 27.2037C26.6171 27.5543 25.872 27.7522 25.0906 27.7522C23.7641 27.7522 22.5423 27.1817 21.6823 26.2627C20.8222 27.1817 19.6006 27.7522 18.2742 27.7522C16.9538 27.7522 15.7373 27.187 14.8779 26.2753C14.0184 27.187 12.8018 27.7522 11.4815 27.7522C10.155 27.7522 8.93322 27.1819 8.0734 26.2628C8.05064 26.2871 8.02757 26.3113 8.00419 26.3351V57.5058H27.2455V27.4668C27.2453 27.3766 27.255 27.2885 27.2732 27.2037ZM48.9816 26.3355C48.9581 26.3115 48.935 26.2871 48.9119 26.2625C48.0519 27.1816 46.8302 27.7521 45.5035 27.7521C44.1832 27.7521 42.9667 27.1869 42.1072 26.2753C41.2477 27.187 40.0312 27.7521 38.7109 27.7521C37.3844 27.7521 36.1626 27.1817 35.3027 26.2625C34.4427 27.1816 33.2211 27.7521 31.8947 27.7521C31.113 27.7521 30.3677 27.554 29.7113 27.2032C29.7297 27.2882 29.7392 27.3764 29.7392 27.4668V57.5056H48.9813V26.3506C48.9814 26.3456 48.9814 26.3405 48.9816 26.3355ZM52.32 25.258C53.3898 25.258 54.3129 24.462 54.4673 23.4062C54.4716 23.3766 54.4771 23.3471 54.4833 23.3183L49.3967 11.1037H36.9144V11.2915C36.9144 15.9351 33.1363 19.713 28.4923 19.713C23.8489 19.713 20.0712 15.9351 20.0712 11.2915V11.1037H7.55323L2.50153 23.3173C2.50808 23.3467 2.51354 23.3764 2.5179 23.4064C2.67222 24.462 3.59533 25.2582 4.66512 25.2582C5.73491 25.2582 6.65818 24.4621 6.81266 23.4062C6.90229 22.7938 7.4276 22.3397 8.04659 22.3397H8.10037C8.71936 22.3397 9.24482 22.7938 9.3343 23.4064C9.48862 24.462 10.4117 25.2582 11.4815 25.2582C12.5513 25.2582 13.4746 24.462 13.6294 23.4059C13.7192 22.7936 14.2443 22.3397 14.8633 22.3397H14.8929C15.5119 22.3397 16.0372 22.7938 16.1268 23.4062C16.2813 24.462 17.2046 25.2582 18.2744 25.2582C19.344 25.2582 20.2673 24.462 20.4219 23.4059C20.5117 22.7936 21.0369 22.3397 21.6558 22.3397H21.7096C22.3286 22.3397 22.8541 22.7938 22.9436 23.4064C23.0979 24.462 24.021 25.2582 25.0906 25.2582C26.1604 25.2582 27.0835 24.4621 27.2378 23.4064C27.3273 22.7938 27.8528 22.3397 28.4718 22.3397H28.5132C29.1322 22.3397 29.6574 22.7936 29.7472 23.406C29.9018 24.4618 30.8252 25.2582 31.895 25.2582C32.9646 25.2582 33.8878 24.4621 34.0422 23.4062C34.1319 22.7938 34.6572 22.3397 35.2762 22.3397H35.3299C35.9489 22.3397 36.4742 22.7938 36.5639 23.4062C36.7183 24.462 37.6416 25.2582 38.7114 25.2582C39.7812 25.2582 40.7045 24.462 40.8593 23.4059C40.949 22.7936 41.4742 22.3397 42.0932 22.3397H42.1225C42.7415 22.3397 43.2668 22.7938 43.3564 23.4062C43.5109 24.462 44.4342 25.2582 45.504 25.2582C46.5739 25.2582 47.4972 24.4621 47.6513 23.4064C47.7408 22.7938 48.2663 22.3397 48.8853 22.3397H48.9394C49.5583 22.3397 50.0838 22.7938 50.1733 23.4064C50.3273 24.462 51.2504 25.258 52.32 25.258ZM36.8686 30.2282C36.4736 29.6639 35.6959 29.5268 35.1318 29.9221C34.5675 30.3171 34.4305 31.0946 34.8255 31.6589L43.0462 43.3991C43.2888 43.7456 43.6757 43.931 44.0688 43.931C44.3158 43.931 44.5653 43.8577 44.783 43.7054C45.3471 43.3103 45.4843 42.5328 45.0892 41.9685L36.8686 30.2282Z" fill="black"/>
</svg>
