<svg width="44" height="60" viewBox="0 0 44 60" fill="none" xmlns="http://www.w3.org/2000/svg">
<path d="M42.7476 8.71826C42.2187 8.71826 41.7901 9.14681 41.7901 9.67571V17.347L38.1291 21.0697V9.67571C38.1291 9.14681 37.7006 8.71826 37.1717 8.71826C36.6428 8.71826 36.2142 9.14681 36.2142 9.67571V21.0697L32.5531 17.347V9.67571C32.5531 9.14681 32.1245 8.71826 31.5956 8.71826C31.0667 8.71826 30.6382 9.14681 30.6382 9.67571V43.4696C30.6382 43.7209 30.7369 43.9619 30.9129 44.141L36.2141 49.5314V59.0426C36.2141 59.5715 36.6426 60 37.1715 60C37.7004 60 38.129 59.5715 38.129 59.0426V49.5313L43.4301 44.141C43.6061 43.962 43.7048 43.7209 43.7048 43.4696V9.67571C43.705 9.14681 43.2765 8.71826 42.7476 8.71826ZM41.7901 34.5006L38.1291 38.2235V37.092C38.1291 36.5632 37.7007 36.1347 37.1719 36.1346C36.6428 36.1346 36.2142 36.5631 36.2142 37.092V38.2235L32.5531 34.5006V28.6549L36.2142 32.3775V33.2622C36.2142 33.7911 36.6428 34.2197 37.1717 34.2197C37.7007 34.2195 38.1291 33.791 38.1291 33.2622V32.3775L41.7901 28.6549V34.5006ZM41.7901 25.9238L38.1291 29.6465V23.8006L41.7901 20.0779V25.9238ZM36.2142 29.6465L32.5531 25.9238V20.0779L36.2142 23.8006V29.6465ZM32.5532 37.2317L36.2144 40.9543V46.8003L32.5532 43.0776V37.2317ZM38.1291 40.9543L41.7901 37.2317V43.0776L38.1291 46.8003V40.9543Z" fill="black"/>
<path d="M12.1093 8.71826C11.5805 8.71826 11.1518 9.14681 11.1518 9.67571V17.347L7.49081 21.0697V9.67571C7.49081 9.14681 7.06213 8.71826 6.53336 8.71826C6.0046 8.71826 5.57591 9.14681 5.57591 9.67571V21.0697L1.91489 17.3472V9.67571C1.91489 9.14681 1.48621 8.71826 0.957447 8.71826C0.428681 8.71826 0 9.14681 0 9.67571V43.4696C0 43.7209 0.0986808 43.9619 0.274851 44.141L5.57591 49.5313V59.0426C5.57591 59.5715 6.0046 60 6.53336 60C7.06213 60 7.49081 59.5715 7.49081 59.0426V49.5313L12.7919 44.141C12.968 43.962 13.0667 43.7209 13.0667 43.4696V9.67571C13.0667 9.14681 12.638 8.71826 12.1093 8.71826ZM6.53374 44.7114C6.00459 44.7114 5.57591 45.1399 5.57591 45.6688V46.8003L1.91489 43.0776V37.2317L5.57591 40.9543V41.839C5.57591 42.3679 6.0046 42.7965 6.53336 42.7965C7.06238 42.7962 7.49081 42.3678 7.49081 41.839V40.9543L11.1518 37.2317V43.0776L7.49081 46.8003V45.6688C7.49081 45.1402 7.06225 44.7116 6.53374 44.7114ZM11.1518 34.5006L7.49081 38.2235V32.3775L11.1518 28.6549V34.5006ZM1.91489 28.6549L5.57591 32.3775V38.2235L1.91489 34.5008V28.6549ZM11.1518 25.924L7.49081 29.6465V23.8006L11.1518 20.0779V25.924ZM5.57591 29.6465L1.91489 25.924V20.0779L5.57591 23.8006V29.6465Z" fill="black"/>
<path d="M27.4286 0C26.8997 0 26.4712 0.428553 26.4712 0.957447V8.62877L22.8101 12.3513V0.957447C22.8101 0.428553 22.3815 0 21.8527 0C21.3239 0 20.8952 0.428553 20.8952 0.957447V12.3514L17.2342 8.62889V0.957447C17.2342 0.428553 16.8055 0 16.2768 0C15.748 0 15.3193 0.428553 15.3193 0.957447V34.7514C15.3193 35.0026 15.418 35.2436 15.5942 35.4227L20.8952 40.813V59.0426C20.8952 59.5714 21.3239 60 21.8527 60C22.3815 60 22.8101 59.5714 22.8101 59.0426V40.8129L28.1112 35.4226C28.2872 35.2436 28.3859 35.0025 28.3859 34.7512V0.957447C28.3861 0.428553 27.9575 0 27.4286 0ZM21.8527 16.9245C22.3817 16.9242 22.8101 16.4958 22.8101 15.967V15.0822L26.4712 11.3597V17.2056L22.8101 20.9281V19.7967C22.8101 19.2679 22.3816 18.8395 21.853 18.8392C21.3238 18.8392 20.8951 19.2678 20.8951 19.7967V20.9281L17.2341 17.2056V11.3597L20.8951 15.0823V15.967C20.8952 16.4959 21.3239 16.9245 21.8527 16.9245ZM26.4712 25.7825L22.8101 29.5051V23.6591L26.4712 19.9366V25.7825ZM17.2342 19.9366L20.8952 23.6591V29.5051L17.2342 25.7825V19.9366ZM17.2342 28.5134L20.8952 32.2361V38.082L17.2342 34.3593V28.5134ZM22.8101 32.2361L26.4712 28.5135V34.3594L22.8101 38.082V32.2361Z" fill="black"/>
</svg>
