<svg width="48" height="32" viewBox="0 0 48 32" fill="none" xmlns="http://www.w3.org/2000/svg">
<path d="M0 16C0 24.8366 15.8254 32 27.2727 32C38.7201 32 48 24.8366 48 16C48 7.16344 38.7201 0 27.2727 0C15.8254 0 0 7.16344 0 16Z" fill="#F5A243"/>
<path d="M35 16.2C29.5 15.7333 17.4 15.08 13 16.2M13 16.2L18.5 12M13 16.2L18.5 19" stroke="white" stroke-width="2" stroke-linecap="round"/>
<path d="M7.99965 15.4985C7.99965 16.8792 13.5 20.5 15 19C16.6652 19.3256 12.5011 16.9986 12.5004 15.9982C12.4998 14.9978 16.1179 12.8535 14.5004 13.0001C13.1197 13.0001 7.99965 14.1178 7.99965 15.4985Z" fill="#F5A243"/>
</svg>
