<svg width="60" height="66" viewBox="0 0 60 66" fill="none" xmlns="http://www.w3.org/2000/svg">
<g filter="url(#filter0_d)">
<path d="M44.228 14.6855L46.5995 10.5605C46.7078 10.3719 46.7369 10.148 46.6802 9.93796C46.6235 9.72795 46.4857 9.54907 46.2971 9.44064L42.9441 7.51455C42.7555 7.40621 42.5315 7.37725 42.3215 7.43403C42.1115 7.49082 41.9326 7.62871 41.8243 7.81736L39.4566 11.9381C37.3218 11.0173 35.0634 10.4149 32.7535 10.1503V7.64298H34.4176C34.6351 7.64298 34.8438 7.55656 34.9976 7.40272C35.1515 7.24888 35.2379 7.04023 35.2379 6.82267V2.95642C35.238 2.84868 35.2168 2.74198 35.1756 2.64243C35.1344 2.54288 35.0739 2.45242 34.9978 2.37624C34.9216 2.30005 34.8311 2.23963 34.7316 2.19843C34.632 2.15722 34.5253 2.13605 34.4176 2.13611H25.5826C25.4748 2.13605 25.3681 2.15722 25.2686 2.19843C25.169 2.23963 25.0786 2.30005 25.0024 2.37624C24.9262 2.45242 24.8658 2.54288 24.8246 2.64243C24.7834 2.74198 24.7622 2.84868 24.7623 2.95642V6.82267C24.7623 7.04023 24.8487 7.24888 25.0025 7.40272C25.1564 7.55656 25.365 7.64298 25.5826 7.64298H27.2466V10.148C24.9368 10.4126 22.6783 11.015 20.5435 11.9358L18.1759 7.81501C18.1223 7.72156 18.0508 7.63958 17.9655 7.57378C17.8801 7.50797 17.7827 7.45963 17.6787 7.4315C17.5747 7.40338 17.4662 7.39603 17.3593 7.40988C17.2525 7.42373 17.1494 7.4585 17.056 7.5122L13.703 9.4383C13.5145 9.54672 13.3767 9.72561 13.32 9.93561C13.2633 10.1456 13.2923 10.3695 13.4007 10.5581L15.7721 14.6855C11.7197 17.6803 8.71557 21.8774 7.18764 26.6791C5.65971 31.4808 5.68588 36.6422 7.26243 41.4282C8.83897 46.2142 11.8855 50.3806 15.9681 53.3342C20.0507 56.2877 24.9611 57.8777 30.0001 57.8777C35.039 57.8777 39.9495 56.2877 44.0321 53.3342C48.1147 50.3806 51.1612 46.2142 52.7377 41.4282C54.3143 36.6422 54.3404 31.4808 52.8125 26.6791C51.2846 21.8774 48.2805 17.6803 44.228 14.6855ZM42.8382 9.34173L44.768 10.4531L42.8705 13.756C42.2455 13.3566 41.6029 12.986 40.9426 12.6441L42.8382 9.34173ZM26.4029 3.77673H33.5973V6.00236H26.4029V3.77673ZM28.8873 7.64298H31.1129V10.0135C30.744 9.99611 30.3751 9.98439 30.0001 9.98439C29.6251 9.98439 29.2562 9.99564 28.8873 10.013V7.64298ZM15.2321 10.4531L17.162 9.34454L19.0576 12.6441C18.3966 12.9853 17.754 13.356 17.1296 13.756L15.2321 10.4531ZM30.0001 56.2233C25.5898 56.2233 21.2785 54.9155 17.6114 52.4652C13.9444 50.015 11.0863 46.5323 9.39853 42.4577C7.71079 38.3831 7.26923 33.8995 8.12967 29.5739C8.99012 25.2483 11.1139 21.2751 14.2325 18.1565C17.3511 15.038 21.3245 12.9142 25.6501 12.0539C29.9757 11.1935 34.4592 11.6352 38.5338 13.323C42.6084 15.0108 46.091 17.869 48.5412 21.5361C50.9913 25.2032 52.2991 29.5145 52.299 33.9249C52.2922 39.8368 49.9406 45.5046 45.7602 49.6849C41.5798 53.8652 35.912 56.2166 30.0001 56.2233Z" fill="#F5A243"/>
<path d="M46.1287 43.1535C47.751 40.3303 48.6006 37.1294 48.5917 33.8732C48.5828 30.6171 47.7158 27.4208 46.0781 24.6065C46.0672 24.5784 46.0547 24.551 46.0406 24.5245C46.026 24.5026 46.0104 24.4815 45.9937 24.4612C44.3798 21.746 42.1051 19.4833 39.3815 17.8837C39.3592 17.8652 39.3357 17.8482 39.3112 17.8326C39.2846 17.8188 39.2572 17.8066 39.2292 17.796C36.4062 16.1736 33.2054 15.324 29.9494 15.3328C26.6934 15.3416 23.4973 16.2085 20.6831 17.8462C20.6546 17.8575 20.6267 17.8703 20.5997 17.8846C20.5781 17.8992 20.5573 17.9148 20.5373 17.9315C17.8218 19.5454 15.5586 21.82 13.9584 24.5437C13.9195 24.588 13.8899 24.6396 13.8712 24.6956C12.2489 27.5187 11.3994 30.7196 11.4083 33.9756C11.4172 37.2317 12.2841 40.4279 13.9218 43.2421C13.9328 43.2703 13.9453 43.2978 13.9593 43.3246C13.9697 43.3424 13.9851 43.3556 13.9964 43.3715C15.6105 46.0931 17.8882 48.3612 20.6165 49.964C20.6395 49.9827 20.6634 50 20.6883 50.016C20.7089 50.0277 20.7314 50.0324 20.7525 50.0427C23.5806 51.6717 26.7889 52.5246 30.0526 52.5153C33.3163 52.506 36.5196 51.6348 39.3384 49.9898C39.3586 49.9799 39.3801 49.9757 39.3998 49.964C39.4195 49.9523 39.4411 49.9335 39.4622 49.9171C42.1839 48.2997 44.4511 46.0186 46.0519 43.2871C46.0645 43.2688 46.0804 43.2552 46.0917 43.2356C46.1058 43.2091 46.1182 43.1817 46.1287 43.1535ZM39.2639 48.1092L38.2097 46.3124C38.0996 46.1247 37.9195 45.9884 37.709 45.9334C37.4985 45.8785 37.2747 45.9094 37.087 46.0195C36.8993 46.1295 36.763 46.3096 36.708 46.5201C36.6531 46.7307 36.684 46.9544 36.794 47.1421L37.8497 48.9431C35.6738 50.0868 33.2738 50.7399 30.8184 50.8565V48.7635C30.8184 48.546 30.732 48.3373 30.5781 48.1835C30.4243 48.0296 30.2157 47.9432 29.9981 47.9432C29.7805 47.9432 29.5719 48.0296 29.4181 48.1835C29.2642 48.3373 29.1778 48.546 29.1778 48.7635V50.8565C26.7552 50.7403 24.3864 50.1016 22.2337 48.9843L23.279 47.1782C23.3846 46.9901 23.4118 46.768 23.3548 46.56C23.2979 46.352 23.1612 46.1748 22.9746 46.0668C22.7879 45.9587 22.5662 45.9286 22.3574 45.9828C22.1487 46.037 21.9697 46.1713 21.8592 46.3565L20.8153 48.1607C18.8209 46.869 17.1179 45.1754 15.8151 43.1882L17.6137 42.1345C17.8004 42.024 17.9358 41.8441 17.9901 41.6341C18.0445 41.424 18.0135 41.2011 17.9038 41.0139C17.7942 40.8267 17.6148 40.6906 17.4051 40.6353C17.1953 40.58 16.9722 40.61 16.7845 40.7188L14.9836 41.7745C13.8397 39.5986 13.1864 37.1986 13.0697 34.7432H15.1626C15.3802 34.7432 15.5888 34.6568 15.7427 34.503C15.8965 34.3491 15.9829 34.1405 15.9829 33.9229C15.9829 33.7053 15.8965 33.4967 15.7427 33.3429C15.5888 33.189 15.3802 33.1026 15.1626 33.1026H13.0697C13.1853 30.6795 13.8235 28.3101 14.9404 26.1567L16.747 27.2015C16.935 27.3049 17.1559 27.3305 17.3626 27.273C17.5692 27.2154 17.7451 27.0792 17.8525 26.8935C17.9599 26.7078 17.9903 26.4874 17.9371 26.2796C17.884 26.0718 17.7516 25.893 17.5683 25.7817L15.7645 24.7377C17.0561 22.7441 18.7494 21.0417 20.7361 19.7395L21.7903 21.5381C21.9008 21.7248 22.0807 21.8601 22.2907 21.9145C22.5007 21.9688 22.7237 21.9378 22.9109 21.8281C23.0981 21.7185 23.2342 21.5392 23.2895 21.3294C23.3448 21.1196 23.3147 20.8965 23.2059 20.7088L22.1503 18.9079C24.3261 17.764 26.7261 17.1108 29.1815 16.9945V19.087C29.1815 19.3045 29.268 19.5132 29.4218 19.667C29.5756 19.8209 29.7843 19.9073 30.0019 19.9073C30.2194 19.9073 30.4281 19.8209 30.5819 19.667C30.7357 19.5132 30.8222 19.3045 30.8222 19.087V16.9945C33.2452 17.11 35.6147 17.748 37.7681 18.8648L36.7209 20.6718C36.6653 20.7651 36.6287 20.8685 36.6133 20.9761C36.598 21.0836 36.6041 21.1932 36.6314 21.2983C36.6587 21.4035 36.7067 21.5021 36.7724 21.5886C36.8382 21.6751 36.9205 21.7476 37.0145 21.8021C37.1085 21.8565 37.2124 21.8917 37.3202 21.9056C37.4279 21.9195 37.5373 21.9119 37.6421 21.8832C37.7469 21.8545 37.8449 21.8053 37.9305 21.7384C38.0161 21.6715 38.0876 21.5883 38.1408 21.4935L39.1847 19.6874C41.1792 20.9794 42.8822 22.6733 44.1848 24.6609L42.3862 25.7146C42.2928 25.7688 42.2109 25.8409 42.1454 25.9268C42.0799 26.0127 42.032 26.1107 42.0045 26.2152C41.977 26.3196 41.9703 26.4285 41.985 26.5355C41.9996 26.6426 42.0353 26.7457 42.0899 26.8389C42.1445 26.9321 42.217 27.0136 42.3032 27.0787C42.3893 27.1439 42.4876 27.1913 42.5921 27.2184C42.6967 27.2455 42.8056 27.2516 42.9126 27.2365C43.0195 27.2214 43.1225 27.1853 43.2154 27.1302L45.0169 26.0746C46.1603 28.2506 46.8134 30.6505 46.9303 33.1059H44.8373C44.6198 33.1059 44.4111 33.1923 44.2573 33.3461C44.1034 33.5 44.017 33.7086 44.017 33.9262C44.017 34.1437 44.1034 34.3524 44.2573 34.5062C44.4111 34.6601 44.6198 34.7465 44.8373 34.7465H46.9303C46.8144 37.1689 46.1762 39.5377 45.0595 41.6906L43.2534 40.6452C43.0651 40.5363 42.8412 40.5066 42.6309 40.5627C42.4207 40.6189 42.2414 40.7562 42.1324 40.9445C42.0234 41.1329 41.9937 41.3568 42.0499 41.567C42.106 41.7773 42.2434 41.9566 42.4317 42.0656L44.2354 43.1095C42.944 45.1037 41.2508 46.8065 39.2639 48.1092Z" fill="#F5A243"/>
<path d="M42.3726 33.9249C42.3726 33.7074 42.2862 33.4987 42.1324 33.3449C41.9785 33.191 41.7699 33.1046 41.5523 33.1046H33.6539C33.4973 32.413 33.1481 31.7799 32.6467 31.2785C32.1454 30.777 31.5123 30.4277 30.8207 30.271V22.373C30.8207 22.1555 30.7343 21.9468 30.5805 21.793C30.4266 21.6392 30.218 21.5527 30.0004 21.5527C29.7829 21.5527 29.5742 21.6392 29.4204 21.793C29.2665 21.9468 29.1801 22.1555 29.1801 22.373V30.271C28.5256 30.4176 27.9225 30.7372 27.4338 31.1964C26.945 31.6557 26.5885 32.2378 26.4015 32.8819C26.2145 33.5259 26.2038 34.2084 26.3707 34.858C26.5375 35.5076 26.8757 36.1005 27.3499 36.5748C27.8241 37.0491 28.417 37.3873 29.0666 37.5542C29.7162 37.7211 30.3986 37.7105 31.0427 37.5236C31.6869 37.3367 32.269 36.9802 32.7283 36.4915C33.1876 36.0028 33.5072 35.3997 33.6539 34.7452H41.5523C41.7698 34.7451 41.9784 34.6586 42.1322 34.5048C42.286 34.351 42.3725 34.1424 42.3726 33.9249ZM30.0004 36.031C29.5838 36.0311 29.1764 35.9076 28.8299 35.6762C28.4834 35.4448 28.2133 35.1158 28.0538 34.7308C27.8943 34.3459 27.8526 33.9223 27.9339 33.5136C28.0151 33.1049 28.2158 32.7295 28.5104 32.4349C28.805 32.1403 29.1804 31.9396 29.5891 31.8583C29.9978 31.7771 30.4214 31.8188 30.8063 31.9783C31.1913 32.1378 31.5203 32.4079 31.7517 32.7544C31.9831 33.1009 32.1066 33.5082 32.1065 33.9249C32.1057 34.4832 31.8835 35.0184 31.4887 35.4132C31.0939 35.808 30.5587 36.0301 30.0004 36.031Z" fill="#F5A243"/>
</g>
<defs>
<filter id="filter0_d" x="-4" y="0" width="68" height="68" filterUnits="userSpaceOnUse" color-interpolation-filters="sRGB">
<feFlood flood-opacity="0" result="BackgroundImageFix"/>
<feColorMatrix in="SourceAlpha" type="matrix" values="0 0 0 0 0 0 0 0 0 0 0 0 0 0 0 0 0 0 127 0"/>
<feOffset dy="4"/>
<feGaussianBlur stdDeviation="2"/>
<feColorMatrix type="matrix" values="0 0 0 0 0.960784 0 0 0 0 0.635294 0 0 0 0 0.262745 0 0 0 0.2 0"/>
<feBlend mode="normal" in2="BackgroundImageFix" result="effect1_dropShadow"/>
<feBlend mode="normal" in="SourceGraphic" in2="effect1_dropShadow" result="shape"/>
</filter>
</defs>
</svg>
