<svg width="68" height="67" viewBox="0 0 68 67" fill="none" xmlns="http://www.w3.org/2000/svg">
<g clip-path="url(#clip0)" filter="url(#filter0_d)">
<path d="M63.7864 25.3525C63.3019 22.9588 61.1781 21.1879 58.7376 21.1419C57.8485 21.1243 56.9605 21.1089 56.0715 21.0937C55.5861 21.0868 55.186 21.4721 55.1777 21.9575C55.1694 22.4429 55.5561 22.843 56.0415 22.8513C56.929 22.8664 57.8153 22.8817 58.7038 22.8994C60.3281 22.9301 61.7412 24.1084 62.0637 25.7019C62.3014 26.8719 62.3014 28.0586 62.0636 29.2296C61.7978 30.5448 60.7842 31.6035 59.4763 31.9282C59.2297 31.991 58.9691 32.0257 58.704 32.0312C58.0937 32.0426 57.4832 32.0533 56.8729 32.0636C56.1909 30.2542 55.4989 28.4515 54.7963 26.6608C54.1148 24.9243 52.2457 23.9322 50.4481 24.3535C49.7096 24.5266 48.9919 24.7878 48.3148 25.1299C46.6672 25.9625 45.8729 27.9239 46.467 29.6923C46.7476 30.5271 47.0312 31.3623 47.3177 32.1976C38.4733 32.2896 29.5271 32.2896 20.6827 32.1976C20.969 31.3627 21.2526 30.5278 21.533 29.6933C22.1282 27.9245 21.3339 25.9629 19.685 25.1301C19.0071 24.7879 18.2896 24.5267 17.5523 24.3535C15.7555 23.9328 13.8867 24.9247 13.2041 26.6613C12.5013 28.4528 11.8099 30.2554 11.1284 32.0635C10.5179 32.053 9.9072 32.0424 9.29816 32.031C9.03096 32.0254 8.77045 31.9907 8.5186 31.9266C7.21568 31.6033 6.20209 30.5444 5.93618 29.2285C5.69852 28.0583 5.69852 26.8718 5.9363 25.7012C6.25869 24.1083 7.67178 22.9298 9.29652 22.8991C23.6511 22.6237 38.1972 22.5887 52.5304 22.7948C52.5347 22.7948 52.5389 22.795 52.5433 22.795C53.0228 22.795 53.4149 22.4097 53.4218 21.9287C53.4289 21.4433 53.041 21.0442 52.5557 21.0372C38.203 20.8307 23.6372 20.8659 9.26312 21.1416C6.82168 21.1877 4.69806 22.9585 4.2136 25.3518C3.92882 26.754 3.92882 28.1761 4.21348 29.5776C4.56904 31.3368 5.81524 32.7885 7.46131 33.4293C7.55787 35.2175 7.72311 37.7603 7.99347 40.6502C7.46365 42.1506 6.94309 43.6505 6.43331 45.1471C6.27686 45.6066 6.52249 46.106 6.982 46.2626C7.44185 46.4192 7.94097 46.1734 8.09742 45.7139C10.1893 39.5717 12.4581 33.3774 14.8407 27.3038C15.2059 26.3744 16.1992 25.8418 17.1511 26.0648C17.753 26.2061 18.3391 26.4195 18.8929 26.6993C19.7666 27.1405 20.1854 28.1866 19.867 29.1329C17.6064 35.86 15.1483 42.6133 12.561 49.2055C12.1969 50.1343 11.2034 50.6666 10.2508 50.4437C9.64903 50.3024 9.06296 50.089 8.50993 49.8097C8.02347 49.5634 7.66897 49.1349 7.51182 48.6032C7.37435 48.1377 6.88567 47.8721 6.41983 48.0095C5.95435 48.1471 5.68856 48.636 5.82614 49.1015C6.1176 50.0877 6.80633 50.9174 7.71678 51.3784C8.34176 51.6939 9.00038 51.9396 9.67715 52.1118C10.3075 53.8992 11.4324 55.4412 12.9569 56.5936C14.6402 57.8662 16.646 58.539 18.7576 58.539H49.2435C51.3551 58.539 53.3608 57.8663 55.0442 56.5936C56.5689 55.4411 57.6939 53.8987 58.3243 52.111C59.0019 51.9387 59.6607 51.6931 60.2847 51.3777C61.9324 50.5451 62.7266 48.5836 62.1323 46.8152C61.4425 44.7626 60.7321 42.7071 60.007 40.6534C60.2777 37.7609 60.443 35.2171 60.5395 33.4286C62.1871 32.7861 63.4317 31.3351 63.7868 29.5782C64.0711 28.1762 64.0711 26.7541 63.7864 25.3525ZM9.24144 33.7876C9.2487 33.7878 9.25597 33.7885 9.26324 33.7886C9.66661 33.7961 10.07 33.8028 10.4733 33.8101C10.1207 34.758 9.7722 35.7073 9.42637 36.6571C9.34902 35.5853 9.28843 34.6182 9.24144 33.7876ZM49.2429 56.7814H18.757C15.6531 56.7814 12.8424 54.9183 11.5814 52.1389C12.7362 51.8506 13.7376 51.0193 14.197 49.8475C16.2493 44.6184 18.2189 39.2879 20.0755 33.9495C24.6974 33.9998 29.3482 34.0256 33.9999 34.0256C38.6517 34.0256 43.3025 33.9998 47.9245 33.9495C49.7797 39.2832 51.7489 44.6134 53.8026 49.8471C54.2624 51.0191 55.2638 51.8502 56.4186 52.1384C55.1579 54.918 52.3471 56.7814 49.2429 56.7814ZM59.4912 49.8091C58.9385 50.0885 58.3526 50.3018 57.7497 50.443C56.7971 50.666 55.8036 50.1341 55.4392 49.205C52.8496 42.6055 50.3915 35.852 48.1332 29.1323C47.8154 28.1863 48.2341 27.14 49.1076 26.6987C49.6602 26.4193 50.2461 26.206 50.8489 26.0648C51.8018 25.8417 52.795 26.3737 53.1596 27.3028C55.7494 33.9029 58.2074 40.6564 60.4654 47.3754C60.7833 48.3216 60.3645 49.3678 59.4912 49.8091ZM57.5267 33.8101C57.9305 33.8028 58.3339 33.7961 58.7386 33.7886C58.7452 33.7885 58.7518 33.7878 58.7585 33.7877C58.7115 34.6171 58.6511 35.5826 58.5738 36.6529C58.2283 35.7038 57.8787 34.7563 57.5267 33.8101Z" fill="#F5A243"/>
<path d="M22.3824 37.0344H22.3233C20.3103 37.0392 18.6859 38.628 18.6253 40.6514C18.5539 43.0345 18.5539 45.4513 18.6253 47.8343C18.6859 49.8577 20.3103 51.4465 22.3226 51.4513H22.3824C24.3954 51.4465 26.0198 49.8577 26.0804 47.8343C26.1518 45.4512 26.1518 43.0345 26.0804 40.6514C26.0198 38.628 24.3954 37.0392 22.3824 37.0344ZM24.3234 47.7817C24.2918 48.8333 23.4194 49.6909 22.3776 49.6934H22.3275C21.2865 49.6909 20.4139 48.8333 20.3823 47.7817C20.3119 45.4335 20.3119 43.0523 20.3823 40.704C20.4139 39.6524 21.2864 38.7947 22.3281 38.7923H22.3775H22.3781C23.4191 38.7947 24.2917 39.6524 24.3232 40.704C24.3938 43.0523 24.3938 45.4335 24.3234 47.7817Z" fill="#F5A243"/>
<path d="M34.0299 37.0344H33.9707C31.9577 37.0392 30.3334 38.628 30.2728 40.6514C30.2014 43.0345 30.2014 45.4513 30.2728 47.8343C30.3334 49.8577 31.9577 51.4465 33.97 51.4513H34.0299C36.0429 51.4465 37.6673 49.8577 37.7279 47.8343C37.7992 45.4512 37.7992 43.0345 37.7279 40.6514C37.6672 38.628 36.0428 37.0392 34.0299 37.0344ZM35.9707 47.7817C35.9392 48.8333 35.0667 49.6909 34.025 49.6934H33.9748C32.9338 49.6909 32.0612 48.8333 32.0297 47.7817C31.9593 45.4335 31.9593 43.0523 32.0297 40.704C32.0612 39.6524 32.9337 38.7947 33.9754 38.7923H34.0249H34.0255C35.0665 38.7947 35.9391 39.6524 35.9706 40.704C36.0411 43.0523 36.0411 45.4335 35.9707 47.7817Z" fill="#F5A243"/>
<path d="M45.677 37.0344H45.6177C43.6048 37.0392 41.9804 38.628 41.9197 40.6514C41.8484 43.0345 41.8484 45.4513 41.9197 47.8344C41.9804 49.8577 43.6047 51.4465 45.617 51.4513H45.6769C47.6899 51.4465 49.3142 49.8577 49.3748 47.8343C49.4462 45.4512 49.4462 43.0345 49.3748 40.6514C49.3142 38.628 47.69 37.0392 45.677 37.0344ZM47.6178 47.7817C47.5863 48.8333 46.7138 49.6909 45.6721 49.6934H45.6219C44.5809 49.6909 43.7083 48.8333 43.6768 47.7817C43.6063 45.4335 43.6063 43.0523 43.6768 40.704C43.7083 39.6524 44.5809 38.7947 45.6225 38.7923H45.6721H45.6727C46.7137 38.7947 47.5863 39.6524 47.6178 40.704C47.6882 43.0523 47.6882 45.4335 47.6178 47.7817Z" fill="#F5A243"/>
<path d="M16.9058 17.6309C17.3166 18.3422 18.0521 18.7669 18.8735 18.7669C19.6947 18.7669 20.4303 18.3422 20.841 17.6311L24.7369 10.8848C25.1476 10.1735 25.1477 9.3241 24.737 8.61263C24.3263 7.90128 23.5907 7.47647 22.7692 7.47647H21.9314V4.51892C21.9314 2.83277 20.5596 1.46094 18.8733 1.46094C17.1872 1.46094 15.8154 2.83277 15.8154 4.51892V7.47647H14.9779C14.1565 7.47647 13.4209 7.90117 13.0102 8.61251C12.5994 9.32386 12.5995 10.1733 13.0103 10.8846L16.9058 17.6309ZM14.5327 9.49145C14.5773 9.4141 14.7101 9.23433 14.978 9.23433H16.6944C17.1798 9.23433 17.5733 8.8408 17.5733 8.3554V4.51892C17.5733 3.80206 18.1566 3.2188 18.8735 3.2188C19.5904 3.2188 20.1737 3.80206 20.1737 4.51892V8.3554C20.1737 8.8408 20.5672 9.23433 21.0526 9.23433H22.7693C23.0374 9.23433 23.17 9.41422 23.2147 9.49145C23.2593 9.56868 23.3486 9.77364 23.2147 10.0057L19.3188 16.752C19.1848 16.984 18.9628 17.009 18.8736 17.009C18.7843 17.009 18.5622 16.9839 18.4282 16.7519L14.5328 10.0056C14.3988 9.77353 14.488 9.56868 14.5327 9.49145Z" fill="#F5A243"/>
<path d="M32.0322 17.6309C32.4429 18.3422 33.1784 18.7669 33.9998 18.7669C34.8211 18.7669 35.5567 18.3422 35.9673 17.6311L39.8632 10.8847C40.274 10.1734 40.274 9.32398 39.8632 8.61251C39.4526 7.90117 38.717 7.47647 37.8956 7.47647H37.0578V4.51892C37.0578 2.83277 35.6859 1.46094 33.9998 1.46094C32.3137 1.46094 30.9418 2.83277 30.9418 4.51892V7.47647H30.1044C29.283 7.47647 28.5474 7.90117 28.1366 8.61251C27.7259 9.32386 27.726 10.1733 28.1367 10.8846L32.0322 17.6309ZM29.659 9.49145C29.7037 9.4141 29.8365 9.23433 30.1044 9.23433H31.8207C32.3062 9.23433 32.6997 8.8408 32.6997 8.3554V4.51892C32.6997 3.80206 33.2829 3.2188 33.9998 3.2188C34.7167 3.2188 35.2999 3.80206 35.2999 4.51892V8.3554C35.2999 8.8408 35.6934 9.23433 36.1788 9.23433H37.8956C38.1635 9.23433 38.2962 9.4141 38.3409 9.49145C38.3855 9.56879 38.4748 9.77364 38.3409 10.0057L34.445 16.752C34.3111 16.984 34.089 17.009 33.9998 17.009C33.9106 17.009 33.6884 16.9839 33.5545 16.7519L29.659 10.0056C29.5251 9.77353 29.6144 9.56868 29.659 9.49145Z" fill="#F5A243"/>
<path d="M43.2631 10.8846L47.1586 17.6309C47.5693 18.3422 48.3048 18.7669 49.1262 18.7669C49.9475 18.7669 50.6831 18.3422 51.0937 17.6311L54.9895 10.8848C55.4002 10.1735 55.4004 9.3241 54.9897 8.61263C54.5791 7.90117 53.8435 7.47647 53.022 7.47647H52.1842V4.51892C52.1842 2.83277 50.8123 1.46094 49.1262 1.46094C47.4401 1.46094 46.0682 2.83277 46.0682 4.51892V7.47647H45.2308C44.4094 7.47647 43.6738 7.90117 43.2631 8.61251C42.8524 9.32398 42.8524 10.1733 43.2631 10.8846ZM44.7855 9.49145C44.8301 9.4141 44.9629 9.23433 45.2308 9.23433H46.9472C47.4326 9.23433 47.8261 8.8408 47.8261 8.3554V4.51892C47.8261 3.80206 48.4093 3.2188 49.1262 3.2188C49.8431 3.2188 50.4263 3.80206 50.4263 4.51892V8.3554C50.4263 8.8408 50.8198 9.23433 51.3053 9.23433H53.022C53.2899 9.23433 53.4227 9.4141 53.4672 9.49145C53.5118 9.56879 53.6013 9.77364 53.4672 10.0057L49.5714 16.752C49.4373 16.984 49.2153 17.009 49.1261 17.009C49.0368 17.009 48.8147 16.9839 48.6808 16.7519L44.7853 10.0056C44.6515 9.77364 44.7409 9.56868 44.7855 9.49145Z" fill="#F5A243"/>
</g>
<defs>
<filter id="filter0_d" x="0" y="0" width="68" height="68" filterUnits="userSpaceOnUse" color-interpolation-filters="sRGB">
<feFlood flood-opacity="0" result="BackgroundImageFix"/>
<feColorMatrix in="SourceAlpha" type="matrix" values="0 0 0 0 0 0 0 0 0 0 0 0 0 0 0 0 0 0 127 0"/>
<feOffset dy="4"/>
<feGaussianBlur stdDeviation="2"/>
<feColorMatrix type="matrix" values="0 0 0 0 0.960784 0 0 0 0 0.635294 0 0 0 0 0.262745 0 0 0 0.2 0"/>
<feBlend mode="normal" in2="BackgroundImageFix" result="effect1_dropShadow"/>
<feBlend mode="normal" in="SourceGraphic" in2="effect1_dropShadow" result="shape"/>
</filter>
<clipPath id="clip0">
<rect width="60" height="60" fill="white" transform="translate(4)"/>
</clipPath>
</defs>
</svg>
